<mxfile host="Electron" modified="2025-04-05T11:39:16.572Z" agent="Mozilla/5.0 (Windows NT 10.0; Win64; x64) AppleWebKit/537.36 (KHTML, like Gecko) draw.io/22.1.11 Chrome/114.0.5735.289 Electron/25.9.8 Safari/537.36" etag="1W-EmQE088ytVxSnVrv1" version="22.1.11" type="device" pages="2">
  <diagram name="Strona-1" id="npkftrRuNwn9087K4uMg">
    <mxGraphModel dx="3387" dy="2271" grid="1" gridSize="10" guides="1" tooltips="1" connect="1" arrows="1" fold="1" page="1" pageScale="1" pageWidth="827" pageHeight="1169" math="0" shadow="0">
      <root>
        <mxCell id="0" />
        <mxCell id="1" parent="0" />
        <mxCell id="RdxLe-xRa2sQG5XOvE3Y-2" value="[1, 4]" style="ellipse;whiteSpace=wrap;html=1;" parent="1" vertex="1">
          <mxGeometry x="180" y="80" width="80" height="40" as="geometry" />
        </mxCell>
        <mxCell id="RdxLe-xRa2sQG5XOvE3Y-3" value="[0, 4]" style="rounded=0;whiteSpace=wrap;html=1;" parent="1" vertex="1">
          <mxGeometry x="-640" y="160" width="40" height="40" as="geometry" />
        </mxCell>
        <mxCell id="RdxLe-xRa2sQG5XOvE3Y-5" value="[1, 3]" style="rounded=0;whiteSpace=wrap;html=1;" parent="1" vertex="1">
          <mxGeometry x="80" y="160" width="40" height="40" as="geometry" />
        </mxCell>
        <mxCell id="RdxLe-xRa2sQG5XOvE3Y-6" value="[1, 2]" style="rounded=0;whiteSpace=wrap;html=1;" parent="1" vertex="1">
          <mxGeometry x="600" y="160" width="40" height="40" as="geometry" />
        </mxCell>
        <mxCell id="RdxLe-xRa2sQG5XOvE3Y-7" value="[1, 1]" style="rounded=0;whiteSpace=wrap;html=1;" parent="1" vertex="1">
          <mxGeometry x="917" y="160" width="40" height="40" as="geometry" />
        </mxCell>
        <mxCell id="RdxLe-xRa2sQG5XOvE3Y-8" value="[1, 0]" style="rounded=0;whiteSpace=wrap;html=1;fillColor=#60a917;fontColor=#ffffff;strokeColor=#2D7600;" parent="1" vertex="1">
          <mxGeometry x="1120" y="160" width="40" height="40" as="geometry" />
        </mxCell>
        <mxCell id="RdxLe-xRa2sQG5XOvE3Y-9" value="" style="endArrow=none;html=1;rounded=0;" parent="1" source="RdxLe-xRa2sQG5XOvE3Y-2" target="RdxLe-xRa2sQG5XOvE3Y-3" edge="1">
          <mxGeometry width="50" height="50" relative="1" as="geometry">
            <mxPoint x="120" y="100" as="sourcePoint" />
            <mxPoint x="170" y="50" as="targetPoint" />
          </mxGeometry>
        </mxCell>
        <mxCell id="RdxLe-xRa2sQG5XOvE3Y-10" value="" style="endArrow=none;html=1;rounded=0;" parent="1" source="RdxLe-xRa2sQG5XOvE3Y-2" target="RdxLe-xRa2sQG5XOvE3Y-5" edge="1">
          <mxGeometry width="50" height="50" relative="1" as="geometry">
            <mxPoint x="120" y="100" as="sourcePoint" />
            <mxPoint x="170" y="50" as="targetPoint" />
          </mxGeometry>
        </mxCell>
        <mxCell id="RdxLe-xRa2sQG5XOvE3Y-11" value="" style="endArrow=none;html=1;rounded=0;" parent="1" source="RdxLe-xRa2sQG5XOvE3Y-6" target="RdxLe-xRa2sQG5XOvE3Y-2" edge="1">
          <mxGeometry width="50" height="50" relative="1" as="geometry">
            <mxPoint x="120" y="100" as="sourcePoint" />
            <mxPoint x="170" y="50" as="targetPoint" />
          </mxGeometry>
        </mxCell>
        <mxCell id="RdxLe-xRa2sQG5XOvE3Y-12" value="" style="endArrow=none;html=1;rounded=0;" parent="1" source="RdxLe-xRa2sQG5XOvE3Y-2" target="RdxLe-xRa2sQG5XOvE3Y-7" edge="1">
          <mxGeometry width="50" height="50" relative="1" as="geometry">
            <mxPoint x="120" y="100" as="sourcePoint" />
            <mxPoint x="170" y="50" as="targetPoint" />
          </mxGeometry>
        </mxCell>
        <mxCell id="RdxLe-xRa2sQG5XOvE3Y-13" value="" style="endArrow=none;html=1;rounded=0;" parent="1" source="RdxLe-xRa2sQG5XOvE3Y-8" target="RdxLe-xRa2sQG5XOvE3Y-2" edge="1">
          <mxGeometry width="50" height="50" relative="1" as="geometry">
            <mxPoint x="190" y="180" as="sourcePoint" />
            <mxPoint x="240" y="130" as="targetPoint" />
            <Array as="points">
              <mxPoint x="850" y="120" />
            </Array>
          </mxGeometry>
        </mxCell>
        <mxCell id="RdxLe-xRa2sQG5XOvE3Y-14" value="[0, 3]" style="ellipse;whiteSpace=wrap;html=1;" parent="1" vertex="1">
          <mxGeometry x="-960" y="281" width="40" height="40" as="geometry" />
        </mxCell>
        <mxCell id="RdxLe-xRa2sQG5XOvE3Y-15" value="[0, 2]" style="ellipse;whiteSpace=wrap;html=1;" parent="1" vertex="1">
          <mxGeometry x="-760" y="280" width="40" height="40" as="geometry" />
        </mxCell>
        <mxCell id="RdxLe-xRa2sQG5XOvE3Y-16" value="[0, 1]" style="ellipse;whiteSpace=wrap;html=1;" parent="1" vertex="1">
          <mxGeometry x="-640" y="280" width="40" height="40" as="geometry" />
        </mxCell>
        <mxCell id="RdxLe-xRa2sQG5XOvE3Y-17" value="[0, 0]" style="ellipse;whiteSpace=wrap;html=1;fillColor=#60a917;fontColor=#ffffff;strokeColor=#2D7600;" parent="1" vertex="1">
          <mxGeometry x="-560" y="280" width="40" height="40" as="geometry" />
        </mxCell>
        <mxCell id="RdxLe-xRa2sQG5XOvE3Y-18" value="" style="shape=image;verticalLabelPosition=bottom;labelBackgroundColor=default;verticalAlign=top;aspect=fixed;imageAspect=0;image=data:image/png,iVBORw0KGgoAAAANSUhEUgAAAaEAAAEGCAYAAADMsSqUAAAAAXNSR0IArs4c6QAAAARnQU1BAACxjwv8YQUAAAAJcEhZcwAAEnQAABJ0Ad5mH3gAAK7zSURBVHhe7J13eFTF+sc/Z3ezKbvpnTTSSAIJvXcIIKA0QQTsXex61Wv5XfWq134Ve+GKYkFFQZQivXcIhNAhhYT03pPN7p75/UGykk0CCSQQ4HyeZx9xZ/bktJnvvDPvvK8khBBcgxx9NoTO76bU+y74mSMkvxNV77trju+vR7p9Re3/jOdHsZxZVlWuVeq9Mx3/wZGU97jG3xYFhYtGulZFSEFBQUHh8qOy/kJBQUFBQeFSoYiQgoKCgsJlQxEhBQUFBYXLhiJCCgoKCgqXDcUxQUGhHSOE4OwmKklSvfI6zq6jUiljS4UrB0WEFBTaEXXN0WAwUFRURF5eHrm5uQBkZGSQm5uLLMsNftOhQwd8fX0RQhAaGoqDgwOenp6o1Wo4h3gpKFxuFBFSUGgnlJWVsWnTJnbt2kVJSQmnTp3CxcUFLy8v1Go1QUFBSJJUz+qpo6SkhJKSEsxmM2VlZWRlZREeHo5er2f48OF069YNV1dX658pKFx2FBFSULgMCCEwmUykpaWxceNGVq1aRWlpKa6urnTp0gVXV1e6d++OXq9Hr9cjSRLOzs7Y2NhYHwqAyspKqqqqEEJQXl5ORUUFO3fupLi4mCNHjlBeXo6vry/jxo1j0KBBFmFTLCSFy40iQgoKlxAhBDU1NaSkpPDrr7+yYcMGnJycGDp0KP369SMkJAS9Xo9arcbe3v6iRKKiogKTyURxcTGnTp0iISGBrVu3kpWVRY8ePbjzzjuJiYlBo9FY/1RB4ZKhiJCCwiVCCEFmZiZz585l+fLldO3aldtvv51evXphZ2fXppaJLMvIskxlZSXr169n2bJlrF27lokTJ/LSSy/h7u7eZn9bQeFcKCKkoNDGCCGoqqpix44dvPLKKwwfPpy77roLf39/NBrNJfdmq5sKTE5O5pNPPuHQoUO8+OKLDBw4EDs7u0t+PgrXNooIKSi0IUIIjh8/zu+//86KFSt48sknueGGG9BqtdZVLzmi1v37p59+YsmSJcTExHDzzTcTFhZm8apTUGhrFBFSUGgjzGYzBw8e5I033sDb25unnnqKoKCgdmdpyLJMYmIiH3zwAXZ2dtxzzz1ERkYqa0UKlwRFhBQU2gAhBNu2bePrr7+ma9euPProo2265nOxCCHIysrihx9+IDc3lzvuuIMuXbq0O8FUuPpQ3jAFhTYgLS2NuXPnEhYWxt13341Go2m3AkTtZlZfX19uu+02bGxs+O2338jJyWl0T5KCQmuiiJCCQisjhGDJkiU4OTkxffp0HB0draucFyEEsiw3KgJCnPF0a6zsYpAkCR8fH2bOnMmpU6fYuXMnRqPRupqCQquiiJCCQitz9OhRdu7cyeDBg+nYsWOLp7SMhmp2b1rH23O+YOuRjHplQggStyzl6X++wLK4FKD1hahLly706NGDlStXkpeXZ11FQaFVaVnrUFBQOCdCCHbt2kVERARDhw5tMsJB0wjyctL4/Otv2bF9OyfTi+qVmqoKmP34CxyP30VCSkG9stZCrVZz0003kZmZSXZ2doNYdQoKrYkiQgoKrYjRaCQ9PR03Nze8vLysi5uBhJdfCA/dfzcuWjCfLQBCMP+9F7Ab+iA9vHXUmGRaeUbOgpeXF4GBgZw8eRKz2WxdrKDQaigipKDQiphMJgwGAxqN5oL32qjVGhwddUiqsx0ZBHLRId7/NY77xsWQX1hGcW4y5QZzK0/InUGlUuHu7k5OTo5iCbUxsknGXGNGNgtErTVtNpox17TdIKM9oYiQgkIbcaGOA6aaGvJy86msrqS4OJ/yyioQYCrMond0CF/MeYf1CceJ37iCtJJq658rXEGYq2pIXhjHiqfWcmx1GrJZUJWez463NrHq5W1UVxqRTTI1lTWYDCaEWcZUbcJskjHXmDDVyK29LHjJUURIQaEVUalUqNVqTCbTBVoQgtzMU3z44ceknEpl+c/fsH57PGYBNqGj+N/8H1j02+88OnMS0+59gigvHW3h+C1qo3E7OTm1a9fyKx0hC2rKa6guqSL/cA7lhdVk78vGaJapLqjCbJbJiz/N8T+Okbj+FEWnS8jYkUbWgVzSt6WSl1iELF/ZKqSIkIJCK2Jra4uPjw/Z2dkX6Fkm4ebtx3Mv/5uPP/6Yd176B/26R6JSSUiSCq3WFnudlin3P8HkfhGo2kgg8vLyOHnyJF27dlUiJ7QxkkaNY4AzGmrIPZBFXko57qHO2NhrQMhk7Eon70g+ictPkBaXh6GwjKTlRzi2Jg2zGdroFbhkKCKkoNCKSJJEz549SUxMZNeuXZhMJusq58XeXkefvv0YMGAAfXv1wNvDtZ61I0kS/uFRBHjoz/q29RBCsGLFCry8vPDw8Gixi7lCS5HQeTui97AjbX0iBlmNk68etVpCNplQadQ4+Dlh66DGWCNwDnDCkFeKUdbg4GZntXZ45aG8XQoKrUyPHj3o2rUrq1evJjs7+4LXhi4Xhw8fZtWqVQwfPhxvb2/rYoU2QKO3w8nficqccuw99ejc7c44o9TUkLYpjYr8KowGM+ZKA0WnSnHwdkZtNFCSUYFsvrLeL2vUr7zyyivWXyooKFw4arUab29vli1bhtlspnPnzhewX+jyUFhYyPz589Hr9UyePBl3d3fFEmpjhFlg7+OMR4gzWkc7vGN8cfSyA5UWr84e2OltUNtpcQ1zw6mDHq1ei0eML85e9ti6OeDo5XBFW0NKAFMFhTZAlmW2b9/Oe++9x0033cSMGTNQqVTtdpFfCEFxcTE//vgjR44c4eabb2bz5s0MGzaMvn37Ymtr227P/YpGCMwGE0JSodZImAxmVDZqVCowVpmx0WmQa8y136sQ8pk1IJWNGmEyIyQJG1sNbeKdcolQLCEFhTagLiBoWFgYb731FgUFBXTt2hWtVtsuO/OcnBzef/99kpKSuPfee+nRowdFRUV8+OGH7N27l6CgIDw8PNrluV/RSBIqjRqVRoWkklDbqFGppTP/1p6Juq7SqNDYalDbqFFr1ZY6Khs1ao3qihYgFEtIQaFtkWWZ5ORkXnjhBVQqFa+++iphYWFIktQuOnQhBMnJyfzrX/9CpVLx3HPPERUVhVqtpqamhtOnT/Pjjz8yb9487rvvPp544gkcHBygVmgVFC4WRYQUFNoYIQRGo5HHH3+cbdu28dhjjzFp0iScnZ2xsbG55J153fkUFxfzyy+/MGfOHG6++Wb+9a9/YWdnV+986rqHv/76i7lz56LRaLjjjjsYOnQoer1eWS9SuGgUEVJQuESYTCbi4uL4z3/+A8DUqVPp168frq6uODk5NRCA1kSWZQwGA2VlZRQXF7Nhwwa+++47nJ2d+eCDD5qV0ru4uJhFixYxf/58evXqxS233EKnTp1wdHRss/NWuPpRREhB4RJRF1cuMTGRZcuWsWnTJlxcXPDx8SE6OpqYmBj8/Pzw8fFBrVafVxSEEJZ9SI1539UJT2ZmJpmZmRw7doy4uDiKiopwd3dn5MiRjBkzpkUiUlNTw9GjR/n1119JS0tjwIABDB48mE6dOmFra2tdXUHhvCgipKDQCpzdjGRZxmw2U1BQQFVVFZmZmdTU1JCZmUlZWRmZmZmUl5djY2NDZGQkycnJnDhxAq1WS3BwMEFBQbi5ueHi4oKzszOurq4AeHp61nNsMBgMHDx4EJPJRFRUFGVlZRYvt9LSUoqLi8nNzeXo0aMUFhaSl5fH6dOnmThxIg888AD+/v4X5LEnhKC6upq4uDh+/fVXKioqiI2NZcCAAQQGBipTdAotQhEhBYULQAhhsUSEEOTm5lJeXk5KSgr5+fnk5ORQWFhITU2NRaC0Wi16vZ7g4GDc3d0JDAzE398fvV5PZmYm+fn5HDp0iK1bt5KQkIC9vT0RERHY29sjSRKurq71QugYDAZ2795NZWUlAwcOpLq62vK3hBBoNBp0Oh1hYWFERUWh1WrZvXs3W7duxdvbm1mzZhEZGdmoFdUchBDk5OSwfv16NmzYgK2tLePGjWPAgAG4urq2WNwUrk0UEVJQOA9nd+yFhYWUlJSQkpJCWVkZBw8eRJZlKisrLcLk4OCAWq3G09MTV1dXy1RVYGAg9vb2FiGx7qSrq6vZsmULS5cupbi4mL59+xIWFkZpaSlCCNLS0qiqqqpndRkMBvbv30+HDh0YNWqUZaOsm5sb7u7ueHp6olarLdZJVVUVBw8e5I8//qC4uJhhw4YxduzYFk3JWWM2mzl48CCbNm0iISEBb29vJk6cSExMDA4ODhd8XIVrA0WEFK55mmoCpaWlGAwGduzYQV5eHvHx8ZSWllJWVoa3tzcODg5ER0ejVqvx9fXF1tYWd3d3nJ2dcXJywtbWtt70WVOdsRCCjIwM5s2bx6ZNmxg8eDATJ04kPDwcR0dHS72Kiop6kbnrLLGFCxdSWlrKgw8+iJOTk6WcJv6mEMJyPYsXL0atVvP4448THh7eaP3mIISgqqqKAwcOsGPHDnbs2EHfvn2ZNWsWvr6+yhSdQpMoIqRwzVFnsdRRU1OD2Wzm5MmTZGdns2vXLkpLSzlw4ACSJBEWFoazszMBAQH4+/vj7e2Ni4sLtra2eHt7I0lSvYgCze3IhRAYDAbWrFnD559/Tr9+/Rg9ejTh4eHN3hgqhGDTpk3Mnz+f22+/neHDhzfrd9RaMMnJyfz+++9s376d6dOnM2XKlIvy0pNlmdLSUvbu3cvKlSvJzc1lxowZDB8+3DKtqKBwNooIKVz11ImOqF1QLy0tJS0tjbKyMpYuXUpKSgqpqam4uLhgb2/PoEGD0Ov1XH/99UiShLOzMxqNxjKVptFoLqozFbX7dLZt28Znn32GLMvcd9999OvXDxcXlxYfu7i4mH//+9/4+Pjw0EMP1bOemkNZWRl79uzhnXfeoXv37jz88MP4+fldlPViNpspLi5mzZo1fP/99wQHB3PvvfdaLMeWXqPC1YsiQgpXFXXTVUIIZFkmOzubgwcPkpCQQF5eHps3b6agoICgoCAcHByIjY3F29ubmJgYvLy8cHFxsXSSbZFHRwhBeno6X331FevXr2fixIncdttteHt7n9cluymEECxfvpy5c+fy/PPP069fvxZ38rIsc+rUKebMmcOJEyd47rnnGDRo0AU7LdRRZ2199913LFmyhFtuuYX7778fFxeXixI5hasHRYQUrjhkWbashxiNRsxmM9XV1RQWFrJ9+3by8vI4ceIE+/fvR5ZldDodXbt2xcvLi2nTpqHX6wkICECqDZ1z9qetEEJQUlLC+vXr+fzzzy1WS8+ePVtlf40QgieffJLBgwczadKkCxIPIQQVFRUsWLCAb7/9lmnTpjFr1iyLc8OFUjcgWLNmDe+88w5arZYnn3ySfv364eTkpIjRNY4iQgrtkrOn0GpqaiwbPUtLSykqKrJMqR05coSMjAzKy8spKSnBbDYzZswYAgICiIiIwNvbm8DAwAYi05aCczayLFsW7H/99VcOHjzIHXfcwcyZM1t9WmrVqlX8+uuvvPDCCwQHB1/wsc1mMwcOHOC9995Dp9Nx55130rVrV/R6/QUfk7McKVatWsU777xDeHg49913HxERETg7OytidI2iiJDCZeXs189kMlFeXk5VVRUlJSXk5+dTVlZGSUkJ5eXlFBcXk5qaSnZ2NkajEW9vbzp37kxoaCje3t5ER0ej1Woto/aL6TAvFlG7afTYsWMcOnSI+fPnM3jwYP7xj3802+mgpRgMBm699VYmTZrEzTfffEHWUB11ltvnn3/O/v37GTJkCLGxsYSGhl605SbLMqmpqXz77bckJCQwZMgQRo4cSWho6EULncKVhyJCCpccUesVZjKZyMrKoqqqitOnT5OTk0NmZiZVVVVUVlZSUlKCra0tHh4e6HQ6PDw8CAsLw9/fHycnJ/R6fT1PrvbSeZlMJpKTk1m6dKll38zUqVPp3r37RXfg50IIwffff8/ixYuZO3cunp6e1lVajMlkYteuXfzwww+YzWZGjRpFbGws7u7u1lVbRN3U3969e1m/fj35+fl069aN0aNHExgY2CbrcQrtE0WEFFod61eqpqaGsrIyUlNTKSoqIicnh9TUVCorKzGbzahUKqqrq1GpVJZ9Nr6+vri7u1uiC9R13pdjSq25CCEoKChg06ZN7Nq1i8rKSkaOHMmoUaMuWcTp0tJSZs6cyT/+8Q9GjBjRKvdI1G7S/emnn9ixYweRkZFMnDixVTLGitqoC9u2bWPjxo0IIYiNjWX06NHodLpWOX+F9o0iQgoXRd3rI2rdjk0mE0VFRZSVlREXF0d1dTXHjh2jrKwMs9mMnZ0dOp0OvV6Pr68v/v7+ODg4WHb5n+2ddqV0QHWj+oSEBFavXk1ZWRn9+vWjd+/eBAQEXHRH3RKEEPz66698++23LF68GDs7O+sqF0x1dTXbtm3jzz//pLi4mOnTpzNixIhW2f8jhODEiRNs3bqVvXv3UlNTw6xZsxg4cOBF7VtSaP8oIqTQIs4WnZqaGk6cOEFubi7Hjh0jIyODrKwsNBoNKpWKgIAANBoNbm5uODs7W+Kk1UUUqHPTvZI7mLpNrl9//TWnT59myJAhDB069LJGlS4tLWXEiBG8/fbbjBo1yrr4ojAajaSlpbF27Vr2799Pt27dmDx5Mt7e3q1i6dXU1JCQkMCyZcs4cuQIUVFR3HTTTXTu3LlVjq/Q/lBESKEBda9EnTjIskxJSQkVFRXExcVRUFDAwoULkSSJyspK9Ho9QUFBdO3aldDQUFxdXdHr9ZaNl3q9Hq1W22TMtCsRUbuu9cMPPzB37lyGDx/O1KlT6dSp02V3O5Zlmc8++4yff/6ZtWvXtqo1RO21l5eXk5SUxE8//URGRgaPP/44vXv3hlZ4vnXv2/Hjx1m4cCHp6elMmTKF8ePH4+TkdNHHV2hfKCKkgDgrjI0sy1RUVFBaWsqqVas4deoUCQkJZGdnU1JSQt++fXF1dWX06NHY2toSHR2NRqPB1tYWW1tbixV0OTvhtqTuXq1Zs4YvvvgCjUbDPffcw+DBg3FwcGg3111VVUW3bt2YM2cO48aNa5OOW5ZlysrKWL16NZ9++injx4/nscceqxfC6GKoCwG0Z88e/ve//+Hs7Mx9991H165dL5uVqdD6KCJ0DVHXgcq1+W7q9t2kp6dTWFjI8uXLycvLY/369Tg4ONClSxc6duxI//796du3L506dbJ0sq3RyVxJCCEwm82kpaXx888/s3z5cqZMmcJDDz2Eg4ODdfV2wffff89nn33GunXr2vQcRW0qi9GjR+Pn58fbb79NVFRUq66FFRQU8NVXX/Hjjz9yxx13cMstt1xUlAmF9oMiQlcpZrPZssHTbDZTXl5ORkYGp0+fJjs7m0OHDpGXl0dOTg7u7u44OjoyfPhwXF1d6d27NzY2Nvj4+FjE5kpyFGhtTCYT2dnZrFixgj/++IOwsDDLJsvW7Ghbm+LiYiZOnMi7775L37592/T5ybJMQUEBH3zwAVu2bGHq1KnMmjULd3f3VhGKujXIY8eO8cEHH5CTk8M999zD0KFDW+1vKFweFBG6wpFl2TJtUV1dTVVVFeXl5RQUFJCRkUF2djZFRUXEx8dTUVGBt7c3np6eREdHEx4eTteuXXF0dKw3vdFeppQuN0IIysrK2L59O0uWLCEtLY27776b66+//orw2DKZTPz6669s2rSJ//73v+h0OusqrY7BYGDjxo189dVXeHl5ccstt9C9e/dWc7cWtZ6Ia9eu5bPPPsPf35/bb7+dzp074+np2Sp/Q+HSoohQO6fu8dRNBxmNRiorKykuLrakcc7Pz+fYsWNUVlZSWlpKeXk5AM7OzoSGhuLp6Um3bt2ws7MjJCQEIUQ9oVEabn1E7b6YxMRE4uLiWLlyJb179+bee+/Fx8fnihFpIQRHjhzhhRde4JlnnmHQoEGX5FmbzWZSUlL48ccfOXHiBKNHjyY2NhZfX99W2YRa1yZOnz7N4sWL2bJlC9HR0UyePJmQkBAcHR2vmGekoIhQu0PUrttIkmQRmcLCQrKzs8nOzqasrIzq6moKCgosVlBlZSUODg6Eh4fToUMH/Pz88PPzw9vb23LcS9H5XA0YDAaOHj3Kr7/+Sl5eHt7e3owfP55+/fpdkR1bUVERn376KXl5ebz66qs4OztbV2kzSktLWb9+PVu2bMHe3p7Ro0fTt29f7O3trateMCaTiS1btrB+/XoqKiro2LEjw4YNIzIyUnFeuEJQROgyUCcydRiNRkpLSykpKSEzM5OTJ0+Sl5dn2fSpUqnQaDQ4OTmh0+lwc3PDyckJf39/3N3d8fDwwMbGBr1ebzmmIjotQwhBVlYWv//+O/v27UOr1XLjjTcycODAKzpFtdlsZvv27Xz11VfMnj2bgQMHWldpU0wmEykpKfz1118kJCTQuXNnbr75Zvz8/KyrXjCyLFNUVMTu3btZu3YtJSUlDB06lLFjxypTdFcAighdAs6+xQaDAVmWOXToEAUFBSQnJ5Oenk52djZqtRpnZ2eEELi7u+Pj44OLiwsuLi54enri4+ODTqert+cGRXAuClGblnrnzp38+uuv6HQ6Bg4cSJ8+ffD3978q7m1xcTHffvstQggefvhhtFqtdZU2p6ysjF27drF48WIqKyuZPXs2vXv3blWHApPJRFpaGlu3biUhIQGDwUBsbCzXX3/9RSciVGg7FBFqRepupah1g64LwpmRkUF6ejpJSUnEx8dTXl6OXq9Ho9FYps7Cw8NxcXHB0dERnU5nsXpsbGyQrmHPtLbEZDJx4sQJvv76awoLCxk5ciRDhw7Fz8+v1dMsXE6EEKxYsYLff/+dRx99lK5du16WaxNCcOrUKX799Vf27NnDmDFjmDZtWqumcRC1m4jT09NZsmQJmzZtIjo6mltvvZWIiIir6rleLVzTIiTXJkdrDYQQJCUlkZ+fz4oVKzAYDBw+fJjKykp0Oh2dOnUiKCgINzc3y7qNg4MDDg4O2Nvb4+Dg0KqjQoWmEUJQWVnJO++8w969e+nVqxcTJkwgOjq6Vdcr2hMZGRm88847dOzYkQceeKBN9w2dj+LiYuLi4vjpp5+ws7PjnnvuITo6ulXd3YUQlJaWkpiYyIIFC4iLi2PGjBlMmTIFLy8vRYjaEdesCOXl5bFq1SoyMzOti1rM7t27OX78uCVawHXXXYeDgwMjRozA09MTV1dX7O3tUavVaDSaKy5A59WE2Wxm27ZtvPbaawghePrppxk2bBi2tratNhpvj8iyzLfffsvGjRt55plniI6Ovqzvn9lsJicnhwULFrBx40buuOMOrr/++lYJhno2ddOtx44d49VXX6W6upp//vOfDBo06LJMSyo05JoVoYMHD/Lss88SEBDQ4rwrZrOZo0ePsmfPHvr378+MGTMseW6cnZ0tI7q6xtSajepapqKigg8//PCCLUZZlklKSuKvv/7in//8J7Nnz76m1goKCgr417/+xbBhw5g6dWqruEtfLAaDge3bt/PJJ58QGhrKww8/TIcOHVrVKqJWjMrKyvj555/57LPPGD9+PPfddx/+/v7X1DvQHrmmReiNN97g+eefJyYmxrr4vKSkpPDFF1/Qu3dvbrrpJuUlvgTk5OTQuXNnbrzxxhZ3oKI2VUB8fDxHjx6t575+rSDLMl9//TX5+fncddddeHt7t4v3VgjBsWPHmDNnDmVlZcycOZMBAwbg7u7e6ucnhODo0aN88cUXZGVlceONNzJo0CB8fHwUy+gyoYjQ88/TtWtX6+LzkpyczJdffkmvXr0UEbpE5OTkEBsby65du1q8diNqE86NGzeOdevW4eLiYl3lqkPURrvOy8uz/H9KSgpvvfUW999/Pz179mzWFKSrqyuurq7WX18U4qzsunWUlpayePFili5dSkREBPfeey/BwcHnbFu2trYttppEberyLVu2sGjRImxsbJgwYQJ9+/bFy8urWfdEofVQREgRoSuGnJwcRo0axa5duy5oYb2mpobBgwezevXqa0KEzGYzO3bs4LvvvrNYfpIksWfPHvz8/JoV/SE3N5eRI0cyffp066KLory8nFWrVpGcnNzgHA4dOsSiRYvo1q0bEyZMaHT6VZIkzGYzY8aMabG3nxCC/Px8cnNzSU5O5q+//uLQoUP06tWL6dOn4+TkZP2TRnF0dCQwMND6a4UWooiQIkJXDIoItQyj0cgff/zBggULuOuuuxrtzM+FLMv88MMPxMTE8OKLL1oXXxRZWVk8/fTTlJaW0rNnz3pldQLDeeIYLly4kGeffZY77rjjnPWsMZlM/Pbbb2zYsAGtVoskSZw+fZoTJ07Qv3//epu+G6POwgwODubFF19s0d9WaIgiQooIXTEoItQyjEYjy5YtY8uWLbz99tstnrYym8289NJL6HQ6XnjhBeviiyIrK4uXXnqJnj178uCDD1oXnxchBDfccAPTpk3jzjvvbJEQGI1G3nnnHbKzsxk2bFiL14LqolCcOnWKX375pUV/W6Ehyt07i2tSjRUU2gFS7ZaFlnwuBiEEUVFRjBs3jgkTJrToc/3119OjRw9FfFoJ5S6exYl9W3jkkUdZuHQdQpGkdk9NdRmLf5jHi6++S1pmruX7ivJiPnvvde68915em/MliemF9X6noFCHtbA196PQeigiVItsKOWD158j4eBBDh5L5tqcpLxSEAjZzJqlS1kw9wvWb91GcdmZ9BUANYYqUssMhHg5seqHuaz8ay2y8kAVFNoliggBQphZ/Pm/OWruxLg+UchmpcNq30hIKhXDx09k6sSx6DWqenOpTs7uPHDzRNycnHF0dMbVyxsJZfSqoNAeUUQIQUnWCf7vw58ZO24k6RnZ5OXlUFhaZV1RoV0hWeLuSVL99Tyz0cChHcv56Y+llJoEdlqNYgkBIKiuKic+bg/J6bmY5bp7IqgqLyFh3242b9tBWlbeWWWXCCFTXlLIzm1byCworjcTYTLVkJaSRMKR45RU1pz9K4WrAEWEhKDGUIVvQEeWf/85K7ft5tiRgyRnKesI7RtBWUkx+YVFVFdVkZWdg8l0xq0XlZqwgTP4/L3X6Buk4UDcTgwm2foA1xzmmnKWLvqO22bN4McV2zEYz9wvYarh6PY/efyZZ3nw3rt47j/vk5xTZP3zNqWyMJX/ffwm06fdyLoDxyxrssJs5Fj8Dp5+7AGee+dTTmYXXZLVWrPJSGF+Hjl5+dTU3ieFtkERIUmFV8cerN+0ldUr/+LVpx9l+vTp9I5ovaRbCq2PkGUSdu9gZ8IJbCQzi35fSWl5JQAlBdl8NOd9Pv7fT2TLnvTu0xs7m2v8VRdgrqkmqmt3gkKCUav+np6U1DZ0HnQDPy38hYfuvJGi3HxKyy7tTEBVcTkDBw4koIM3qrOmToVsRqf3pFv3gXg5tSxKxoUim2s4nXyELz56n/e//J603GLrKgqtyDXeMmup9XixddARO2UGk64bqnjAtHMkSUVETHcefvZF3nrrP8y+52b0DnYAuHkF8H/PP8tDjzzJm2++w9iRg1Bd689TAq3Og87R0Xi6W0UEkFRo7fSUZyaRmJzBgH69CfJxq1+njXEPjaZbj+441j7DOlQ2dnSMiKJbl1DUl+gRCpOR4vwckpJPcirtNJXVyhRgW6KI0Fmo1Rq8/YPw9/VUlrHbO5KEh08HuvXsRa9evegRE4VWe2Yzplpjg19QKN17dicosANam5YFO72akc1mZFnGbDZiNNdOUQqZ7NPH+d+3C1C5RzDp+rG46Gytf9q2CIHZbEKWBWaTGfmsNSkhmzGZz3xnMptp6/31aq0D0X0GMXxIf2w1ShfZ1ih32AplH8CVgyRJqFQqVCpVg2em7OmwQghMlQX88cvPHDuewsY/F/DN2kPIQmA2GTi2azV/rlhH4onDfPvTQvYfO3VJ1l7qKE7Zz7yv5pKRX8zieZ+z52QOQghkYzUJOzfw6+I/OBS3i19//YO0rIK2PTdJQq3WoFJJINHmewbNNSaMlUbMpr8dRUxVRoxVJoQsk7Ejhby0v7cgXG0oItQIrZlxVeEK4Wp/3JKESmNHSKeuPPPc//HgnTPoGeJd6+5uQ3j3obz62qvcdvNkBvXpjper0yWdDbB18iSmzzBeef0tbpk6ER9XhzPT5Co1Hr7+TJt1G88++QijB3bHUWffpucm11RxcNdm/lq5nsP7drNkxUZyi8qsq7UKZoOJzHXH2fHRHlJ3ZSPLUJ1bQsJ3+9n1vwQM1SYKj+dQlm9ACGH5XE0bGa95ETr7wQohKC4uZunSpezYsaNBWb2XoPa3Clc+wmiiIqeM6hKDddFVhcpWR9de/Zk0eTKTJ09hUOcOqCRQqTX4hfdg0qTJTJ48mUljRxDg62798zbF3t2fwSOuY/LkM+cQ5HVGBCW1DX4dI5gwaRKTJ09m1JC+uDm1PG5gSxFCIjyqG6OGDcTDTd9m+8yEyUz56WJyEnLIisukqqyG/IPZFKUVk3MwH5NJYO+kR6tVUZSUR8qmNFLWJJN9tBCT8erw+LymRSg7O5vbbruNAQMGMHDgQAYMGMCIESN44IEHuOOOOxg4cGCjnwEDBjB16lQ2bdpkfUiFNqZuECDLcos/jQ0aTGVVJP6ZwJp/riZtW+pVbhBJqNVqbGxssLGxqechp1L9/b2NRnPpHTkkFWqNxnIOZ/99SaVCoznzvUatbvMpVpXWji59hvL08y/y0r/+xd1Tr8PdWWddrfXQqHHwdURUVVKYlE/24SJcg52xsdMAgpx9p8lPKyV3ZwoJvxwheUMKR5eepDjrjDfolc41G0W7tLSUAwcOUFz8t/tleXk5X331FXl5ecyePfu8uUIcHByIiIjA398fIYvaqQ3rWgqtRU5ODpGRkQwePLje93WdkhACSZIaFRs4kxZg3759HDx40BJFuzKjmIyNx8hKKsGzWxCRkyLbaMx76bmSomi3VFiEEFx//fUXHEX77bffxs3NjTvvvLPFEdmNRiO//vorf/zxBz/99FOL/rY1pgoDJ3+JJ68I9HqoKKjGbKMloIsjx9fmMfSVAez/z1r0g7tgX5JPXoktnfo7k7wjh+DrIvAJd7Y+5BXHhd+9KxwnJycGDx7MDTfcwA033MD111+Pu7s7eXl5hIaG4ujoyPjx4y3ljX1GjhyJn58fNWUGsuMyyTtVqoT8aUNcXFz44YcfmD17Nrfddht9+vQhKysLIQTTp08nIiKCbt260bdvXx5++GEeeughxo8fz+jRo3nwwQeZPXs28+bNQ+fgQFlWGeV5Fdh4OhMwOgJbO/VVIz7NQQhBUVERsnx1TOlc6dg4O+DsryfvcA42zg7oPRsRRklCpVbRQr1u91yzIoSVB1VVVRXfffcdU6dOJTw8nKVLl3L69Ol6dRr7yIYaMransPfTXSTuzL5q5mnbI1qtlhEjRuDl5cXBgwc5fvw4N910E59//jkTJkxgy5YthIWF8dtvvzF06FBGjx6NXq/n2LFjdOzYkdjYWGJjR6JWy+x8bwf7vo6nMM90ZpFX1K7xNWFFXanIskxeXh7x8fHs37/f8tm7dy/PPvss27dvr/e99Sc7O7tJy/JikWWZ4uJi0tPTL+hTXV1tfcgWY73W29xPayGpJOzcHdB56XAJdce3Rwd8Onvi4O6AUwc9arWE3tcZe2dbbN0c0LnbYeOgReepQ6NtWZLC9so1Ox13NiaTiSVLljB//nw++OADvv32W7755hueeuop7r33XpydrUxecWYvg5ABs5nKwkoS5sahjQqi++QQtHZXx8vRXqhr+GlpaWzcuJGtW7ei1Wq544476NWrF2q1mm3btvHvf/+bP/74g5EjR/Lxxx/Tu3dvcnNzee+999BqtTzyyCP4+PgAYCgxIKkkkM3k7UnhxJpT2Pm60fXWrug923D+/xJiMpnYsGED7733Hjrd39ckyzIHDx4kNTUVDw8PunfvXhuDr+EQu6Kigptvvpm7777b8p1slhECVJqzYxu0jNzcXF599VWysrIICQmpV1ZTU0NWVhZBQUH1vrdm+/btPP744y1OKlmX1K60tJRRo0ZhZ1d/g+z5MJlMbNq0icOHD198UjshMBlMCFSobSRMBjNqGzUqCYxVJmz0NpgqapC0GhAyQpZQ20iYjTIqGw1qTfOvu71yzYuQEIKUlBRuv/12XnjhBYYPH863337L/Pnz6d69O1OmTGHkyJH1si+aq41k7TpFSZGMVxcv3AIdiHt/BwT7KSLUygghKCgoYOfOnaxdu5a8vDwmTJjAmDFjcHM7s6vfZDLxwgsv4OnpyVNPPcUnn3xCUlISc+bMQZIk9uzZw3fffUenTp248847cXL6O2JAdW4paWuOU1IuIZAIHR2Ce4jrWWdw5SKEoKSkhIyMjHrfJSYm8u9//5vDhw8THBzMAw88wOjRo5vsTD09PfHy8gIhqC6qIPtADhonB3y6eqO5wHBIVVVV7Ny5k/T0dOsiTp06xauvvsrcuXPPmZJckiT69etHeHi4ddE5MZlMLFq0iC1btrRYgOooLy8nICCA559/vsn7ptA8rnkRqqmp4Z133uHEiRPMmzcPWZb55Zdf2Lx5M6GhoRQVFfHQQw/VG5WZqmrI3JZMcb4Zr67eOHnYsO/TPUgB3kRPDMPZ69LEuLraqaqq4uDBgyxatIi0tDT69evHmDFjiIiIqNc5ZWZmctttt/H+++/TtWtXDh48yOzZs/n2228JCwtDCMHWrVt56623uPfee5k4cSIaTW0UBVlgNstnrFoJ1BrVGQvpKkWWZd58803S0tJYvHgxjz76KPHx8Xz33Xfo9Xrr6vUwVxvJjz/FsdWpaD1c6H5nd+wdLjwaRVNdT1xcHIMHD6a0tLRZzhQtsYI4a2BTWFh4UWtijo6O+PkpMSYvlmtawoUQbNu2ja1bt/Lss8+i0WjQaDR4e3sjSRKdO3empKSE7du315t/1tjZ4Dc0jM6TI3DrYE/qxlMUpJVRsD+d5D35V//GxzZGCEFeXh7ffPONxYtp9uzZPPjgg0RFRdUTICEE69atQ6/XW56bv78/ffr0YcWKFQghUKlU9OvXj4ceeoj//e9/9dc5VBJqGzUaWzUarfqqFiBqtyXs2bOHMWPGoNfrmTp1KtnZ2Zw8edK6qoW66VBJJaH3c8EzzKlV3nHr9dW6z/nKrT8tRZIk3N3dCQ8PJyIi4oI/HTp0sD60wgVwTYtQeXk53333HYMHDyYqKgpq3Xh1Oh1GoxEnJydGjhzJb7/9Rmpq6t8dlySh1mrQ2GnQ6Gzp0C+Qfk8OoO8DPQjq7sYFT5Rf4wghqKioYMOGDbz00kucOHGCu+66iwceeIAhQ4ZgZ2fXoNORZZl169Yxbtw4y9qds7MzY8eOZceOHZSVndnpbmtry9ixYxkwYAAPP/wwmZmZTY7Er1ZkWWbLli14eHhYrEl3d3eGDh3K999/j9ncMGWBEDLHfjlI3P/2kX6yHHtvJ+wdz2+dtHeshaypDzT8rn65wsVyTYtQXFwcJSUl3HzzzfVG13Z2dmi1WgwGA6NHjyYkJIT//ve/VFY23BymstHgHOSKT1cffLr64OZ3dSxqX2pkWSY1NZV33nmHN998k5iYGJ5++mnGjh2Li4tLkw3+9OnTVFVV0aNHD8v8vlqtJiQkBA8PD+Li4ix1NRoNjzzyCFFRUTz11FOYTKazjnT1YzAY2Lt3L/3798fGxgZZllGpVNx6660cOXKEoqKGOYQkAXo/J1w6uuDgbIOQZcxmgZBli4PC1cIZi6/237KgMrec4vRSjIYLn7JTOD/XrAhlZmYyb948ZsyY0WBTqq+vLx4eHmRmZuLs7MwjjzxCSkoKS5YsaXS0qHDhCCEwGo0sXryYiRMnUlhYyKeffso999yDv7//32s3jSDLMsuWLaNDhw74+/vXEyo/Pz/Cw8MtU3J1uLi48Pzzz1NeXs7//d//XdSawJWEEIKjR49iMpmIjIxk9+7dBAQE4Orqiq+vL66urnz//fcN74dKhV//QIKHd8TZUUXiz3HsW3CStPXJHFp8ksoyY/36VyhCQElSAcZKM8JkIi/+NFvf3MS+n49RXnh1h3O63FyTImQ2m1m6dCkmk4mePXtia1s/bL1KpUKtVlsEJygoiCeffJIPPvigUWtIoeUIIaipqeH06dMMGjSIl19+mXfffZf//ve/hIeHN3gmjWE0Gjlx4gQjRoxosEDs4OBAVFQUJSUlHD9+3PK9JEk4OTkxb948li9fzvr166+JgYXZbGbDhg0AhISEYDabsbOzQ6VS4erqyv3338+2bdsoKSmx/ikqGxVqGzU2TnaE3NSHGz6fwMT/TaTHtE7Y66/8qTkhy8gmM/EfbiH7VBmyScbeW49XN29sbFWtsfylcA6uORESQpCamsqRI0e48cYbCQgIsK6Cm5sbHh4epKenW0Rn1KhR9OjRgxdeeIGqqkubdfJqQgiBwWAgKSmJr776iltuuYVBgwaxfv16rrvuOrRabZNTb2cjal3rDQYDjo6O1sVIkkSnTp3QarWsW7eu3ghfkiQ8PDx47733eO+999i8efNVPzWXlJTE4cOHiY6OxsvLq949VqlUeHl5IcsyGzdubGgN1SFJ2OhscXB3wMHdAa3OhqvBO7k8JY9jfx6nrNjI6c3JpMblYefphKNX20brVjjDVfAKtYyKigpWrFiBi4sLAwYMaHTEbWNjg1arpbKy0tI52djY8Mwzz5CQkMDKlSuvuUXt1sBsNpOVlcXy5ct544032Lx5M++88w5vv/023t7e1tXPiclkYvv27QQGBtK5c2frYgACAwPp2bMnp06dIi8vr16ZWq1myJAhTJo0ie+//56TJ09etc9UCMGJEyeQZdmyudeawMBARo8ezZ49e645a1+uMVFTUo1sFhjLazCWG5FrzJirzchGGWP1mWR7Cm3DNSVCsixz7NgxDh48SLdu3c7Z8bm4uKBSqaioqIDa0XNYWBgPP/wwX331FadOnbL+iUIT1Hm97dy5k7lz5/LXX38xcuRIPvroI/r27VtvI3BzKSkp4cSJE7i7u+Pu3njaAZVKRUxMDLm5uezbt6+ByOh0Oos1/PXXX5OdnV2v/GqhuLiYEydOEB0dTZcuXRq1NHU6HWFhYWRlZV3VgtwYTpEd6H5nd/y6ehE1NZrwkf6UpxWQczif8oxisg7mYai4ui3ly8k1JULl5eXExcXh7e1N//79m1z0liSJwMBANBoNubm5lgapUqkYPXo0MTExfP311xaBUmgao9FIYmIi33zzDfPnz8fW1pZnnnmGmTNn4uPj0+io/HzUjezz8vIICQk55zE6deqEq6sriYmJjcYa8/LyYurUqZSVlbFw4UIKCwutq1zRCCE4fvw4+/fvZ/DgwU1u/pQkieDgYBwdHdmzZw9G49XhcNAcJEkCSSJ0cjQu3nZIEkhIuIR6ENDLB3u9zVUXNLQ9cc2IkNls5tChQ+zZs4eRI0fi6+trXaUe9vZnoh4YDPU9Y1xcXLj11ltJTExk7dq1Tc+fX+MIISgrK2Pu3Ln897//tYTbefDBB+nUqdM5heN8mEwmTpw4gVarJTo6utGRfR1OTk707t2bo0ePcvr06QYjfKl2U/JNN93E3r17Wb9+/VW15ldVVcX+/fuRJMmyF64xJEkiICCAbt26kZyc3GD68mpHkiRcIz2x1WmQNBrcOvsSM6srXW/pSsTIAOyuAgeM9so1I0JlZWWsXr0aJycnevTocc6OC8Dd3R2j0UhBQUG97+um5UaNGsWff/7JkSNHGnRs1zomk4m4uDiefPJJ4uLiGDBgAA888ADjx4+35PG5GMrKysjPzyciIgJPT0/r4npIksTIkSMpKysjMTGxUU84jUbDwIEDufHGG/ntt984fPjwVTO4yM/PZ9u2bUyYMKFezLzG0Gq19OrVi6KiIg4ePKi81wqXhGtChIQQnDx5khMnTvDoo4+etzFSu2FVluUGlhC1VlJsbCxubm6sX7/+mpq6OBeyLFNUVMTrr7/OP//5T2JiYnjhhReYPn06HTp0uCjr52wSExM5fPgwo0ePbnJKtQ5JkvD29iYyMpKUlJQmrRwHBweuu+46unTpwrvvvltvGvZKRZZl0tPTKSoqYuTIkecdeEmSZAlHk5SUdM05KChcHq4JESovL+eLL76gf//+dOzY8byNkdpRoVarpby8vIHI1K0ZjR07lsOHD7Nr16565dcaQgjKy8v5448/uPnmm8nIyOC1117j3nvvJTQ01DK12RrUCV3dGkZznqVarWbChAksXryYzMxM62ILDg4OPPbYY+h0Oj744IMr3hqqrq7mk08+YciQIc22QO3s7OjevTvbtm3jxIkTV7wQK7R/rnoREkKwefNmDh06xI033tisTotabyEnJydycnIaHRGq1Wp69uyJl5cXv/zyC6dPn7auck1gNptJTEzk+eef5+OPP+bmm2/mjTfeYMCAAfVy2LQWhYWFrFu3joiIiBaJW2RkJC4uLpw8efKc4uLk5MRbb73Fhg0beO21185Zt71TUlLC4cOHmTVr1nktxjokSWLs2LHY29tz+PDhBgMwBYXW5qoXofLycr7++mv++c9/tjjqrUajwWQyNbqOQK2TwowZMygpKWHLli2NTt1drYja9NC//PILDz/8MLIs88UXX3DXXXfh6enZbLFvCUIIsrOzOXHiBFOnTm3R39BoNEybNo13332X8vJy62ILkiTh6enJmjVr+Pjjj9m4ceMVu5H1hx9+ICwszJLI72xMJlOT90+r1dKzZ082bNhATk6OdXGbU3deihV2bXBVi5DZbOaHH37AbDYzadKkFiWf0mg0dO3alfT0dLKysqyL4SzPqrFjx7J+/XoSExOv6JFzc5BlmYKCAvbs2cMLL7zA/Pnzeeqpp5gzZw7h4eEtusctxWQysW/fPjQaDWFhYdbF50SSJG666SZMJhMpKSnn7OCk2tA+ixYtYvbs2cTHx5+zfnuktLSU+fPn8/HHHzdwyxZCcPjw4QYZTc9m3LhxFBcXk5GRccnfaUdHR8tUuMLVT9v1GO2A1NRU5s6dy+zZs5sc9Z2LuoX0c3VAkiRx/fXXY29vzx9//HHVNhxRG24nISGBDz/8kNdff53OnTvzxRdfMHbsWGxsbC7oHreEqqoqVqxYwahRo6yLzoskSajVaoYPH85bb73VpHVbhyRJDB06lFmzZvHZZ59x9OjRc74H7QlZlvnpp59wdnbG1dW10edy6tQp7rjjjkYHDVLtmmdQUBBr16695BZ+aGgo7u7upKamWhcpXIU0fAOvEiorK5k/fz6xsbEMHTq00cZ2Ptzc3DCZTFRVVZ2zA3JycmLmzJnExcWxefNm6+IrHlmWOXnyJAsXLuTzzz+nurqap59+moceeojg4GDr6m1GXfK1cePGWRc1C0mSmDFjBlu2bGk0UKc1kiTxxBNP4OXlxdtvv10vTXZ7pqysjK+++oqHHnrogtNXq9VqrrvuOtasWUN+fr51sYJCq9HynvkKQAjBzp072b9/Pw899FCLFrDrkCQJX19fTCYTpaWl5xQhlUpFnz59GD9+PF9++eVVYw0JISguLmbZsmXMmTOH3bt3M2bMGJ5//nkGDx7cai7XzUGWZdauXUtMTEyDiNktITIyksjISH744YfzTjNJkoSjoyP33nsvHh4eLFq06JJbBS1FCEFcXBxqtZpx48Y1agU1B0mSGDx4MN7e3lflwEqh/XBVilBJSQm//fYbw4cPb5BnpiXY2tpia2tLRUXFeadvNBoNEydOxM3NjY8//vi89dszdVNv8fHxfPTRRyxevJjw8HAeffRRJk6ciKur6wVZlhdDTU0Nv//+O7feeutFiZ9arebZZ5/lm2++aZbDgUqlIjQ0lJkzZ5KQkMCSJUsa9ZZsLwghWLhwIXfffXez3bKbwt7enhkzZvDFF18oXnIKbcal7UkuASaTiWXLlmEwGBg/fnyzXVMbQ6fT4e7uTkFBwXkboVTrVfXoo4/y66+/NkgfcKUghKCwsJAff/yRd955B1mWefTRR7n77rvp1KlTg0XuS4EQgpycHDIzM+nfv/8FDyqoFZWhQ4ei1Wo5cODAOS3cOqRaB5Tx48ezevVq9uzZ024HGenp6SQnJ3Pddddd1H2i9l6NHDmSkpISdu7c2ax7paDQUq46EcrMzGTDhg2MGTOm2ZsZm0KtVqPVaqmpqWm2oHTr1o1HHnmEd955h6ysrCuq4dbU1LBq1Soef/xxdu3axfTp03nooYfo1asXzs7O1tUvKb/++ivjxo27oKlVa7RaLXfddRdvvfVWs59PXUSF7t27M2/ePI4dO9bs314qhBB8+eWXRERENMgZdKE4Oztz6623MmfOnPMOxBQULoSrSoRkWWb9+vXY2trSo0ePC0oRYE1gYCDZ2dmNRmBuDBsbG6ZPn467uzsffvhhs6Z8LjdybXiXV199lWeffZZu3brx1ltvcf311+Pl5WVd/ZIjyzJz5sy56Km4OlQqFZMnTyYlJYXi4mLr4ibR6/Xcfffd2NjYsHTpUsrKyqyrXFZKSkrYvXs306ZNaxWxptYKnD17Nrt27SIpKandCa/Clc9VJUKHDx9m48aNjBgxgpCQkIseCUqSRGhoKOnp6U3GHGsMnU7Hv//9b44cOdKuXXvr1n5+/fVXJk2aRFJSEsuXL+fpp5/G1dW1VUT8YhFCsHLlSmxtbYmOjrYuvmCcnJyIjIzkzTffbNHzcXBw4OWXX2bjxo188803zR6cXAp+/vlntFot/v7+rbpmp9frmTx5MvPmzWu305AKVy6t96ZeZiorK9m4cSNubm7nzBXUUuzs7Fo0HUeteAUFBTFx4kTee++9dpejRtQmmduzZw//93//xw8//MBzzz3H//73PwICAi5avFsTk8nEDz/8wNSpU1vFCqpDp9Pxr3/9i0OHDrXIm1GqTXnwwgsv8NNPP7WbtRKDwcCBAwe45557CAwMtC6+aG677Ta2b99OQUFBu7hehauHq0KEZFnm6NGjpKSkMHbsWPz9/a2rXBB1HU5OTk6LR7x2dnaMGDECBwcHfvzxxxZZUm2J0WgkKSmJefPm8d577+Ho6Mj777/PlClT2iTW28WSn5/PsWPH+Mc//tHq4qjX67G3t+f3339v0SADYMiQIbz00ks89thjl32aSgjBxo0bKSkpwd/fv9UGYHVItbmIOnTowJo1a1p8rxQUzsVVIULFxcVs2LABBwcH+vTp06qdVd3ou6WLsnXW0A033MD+/fuJi4u7rB2VLMvk5OSwcuVKPv74Y+Lj47nvvvt48cUXCQsLa/WOqzUQtfu9unbt2qz0Gy3Fzc2NoUOHsm3bthYPEiRJ4rrrrmPChAk8//zz5w0F1JYYDAb27NlDdHQ04eHhrfr+12FnZ8fQoUNZvHhxiyxHBYXzccWLkNls5sSJExw4cIARI0Zc9N4Ia+zs7PD09OTIkSMtdjLQarUMHDiQyMhI1q5de1mCQQohKC0tZdeuXXz44YcsXLiQzp078+677zJ69GjUanWbdFqtQd3eoKlTp7bJ+pSDgwM9evQgJyfngpITqtVqXnzxRVxdXfnoo4/Iyclp8TEuFiEEqamp5OTk0Llz52aJtSzLVFdXt2jdyMbGhjFjxqDVaklISLAuVlC4YJr/FrZTKisr2bx5MzExMRe9h6QxdDodfn5+HDhw4IIWZV1dXYmNjSUnJ4ft27df0h33JpOJgwcPMmfOHBYsWIBOp+OBBx7gvvvuw83Nzbp6u0IIQWZmJgUFBYSFhbXqelAdUm2W3KioKPbs2XNBAuLg4MBzzz2HyWRi7ty5LZ62vVjMZjP79u1Dp9PRvXv3ZgmLyWSioqICvV7f7PYiSRI+Pj706dOH1atXt3hmQEGhKc7/xrZztm3bxq5du5gwYQIODg7Wxa2Cn58fRUVFFzQXLkkSXbp0oW/fvixfvpzExMQL6uxaghCCgoICvv32W9544w0MBgNTpkzh8ccfZ9CgQc3qqC43dWF6unbtioeHh3Vxq+Hj40O3bt1ITU2lqKjIurhZdOzYkXvvvZf4+HgWLlxITU2NdZU2o7CwkGPHjuHr64uPj0+zRKXu/WtpXDm9Xk/37t1JSkpSEt4ptBrtvzc6BwaDga+//pqePXsSGhrarAbYUupEJCMj44IsIWob+3XXXYdWq2X16tVtOqdeXV1NXFwcr776Khs2bOCGG27g4YcfZvjw4S0a+V5uDAYDcXFx9O7dG1dXV+viVkOlUhEVFUV5eTk7duywLm4WdceYNWsWK1asYNu2bZekgxa1KRlOnjzZavvizoVaraZTp04EBgaydevWC24PCgpnc8WKkCzLbN68GVmWeeCBB9q0ATo4OGAwGC64Y6mbynjggQfYtGkTx48fvyCr6lzIskx2djZff/01L7zwAt7e3jz//PNMmzYNX1/fK8L6OZtjx45RWVlJhw4d2tRpQqrdC+bq6sqJEycu2IqxtbVlzJgxjBgxgu+++44DBw5YV2l1DAYDSUlJeHl50aNHj0vyjH19fencuTPx8fGtugYmyzJVVVXk5uaSk5OD2WxGluVWO75C+6Xt39pWRAiBLMuWDvfRRx/lgQceaNPpGiEEoaGhFBcXk52dbV3cbOosqqFDh/L6669TUVFhXaVFCCEs98NsNrN161ZmzpzJtm3beP3113nsscfo3LkzdnZ2V4z1czZ//fUXbm5uBAUFtfn563Q6wsLC2L59O4cPH7YubjZ6vZ4ZM2bg6+vLggULyMvLs67SqqSlpbFu3TqGDh16ydzrNRoN3bt3R6PRtEqyv7q1vw8//JCbb76ZYcOGMXjwYLKysnj77bfZtWtXqw/YFNoX7V6EjEYjKSkpzJ07lxtuuIHQ0FACAwN57rnn8PT0JCIiotUXSWVZpqysjKNHj1qyU2ZlZbFjxw6OHj1KdXV1sxqGEILKykp2797NG2+8wdChQ/nvf//L3r17efnll1m5ciVlZWUtmtYwm82UlpaybNky/vnPfxIVFUVgYCCTJ0+mqKiIRx99lJiYGBwcHC7JyPhikGUZk8mEwWDAYDBgNBqRZZny8nKKioqIiIjA3d3d+mdtwsyZM+nQoQMnTpygpKSEkpISDAZDs57z2dRFnj527Bgffvgh27dvp7Cw8IKOZY0sy5Z7VV1dTWFhIZIkMWrUqGY/a1mW693nuutsiednUFAQer2evXv3kpubS0lJCWVlZRgMhha9y1VVVaxevZq7776b1atXM3HiRNasWcOBAwf47LPPcHZ25rbbbuOFF14gIyPjogWv3SIEQhacfXmi9rtrAUm00ycraqM5r169mvnz5+Pi4sLUqVOJiopCrVYTFxfHwoULKS4uZubMmUyfPh03N7eLGjULIaiqqiI+Pt4ypRITE0NkZCQqlYr169eTlZXFyJEjufXWWwkPD29ycddsNnPq1Cl+++03li1bRp8+fZg0aRLe3t4YDAZWr17N77//jp+fHzNnzmxWcM6qqioSEhL4/vvvSUxMZOjQoYwdOxadTkdRURFLly5l06ZN9OnTh9tvv53o6OjLEvX6fJjNZoqLizl58iSZmZnExcWhUqno2LEj3bp1IyMjg2XLlnHHHXcwaNCgi3qm50OWZYqKiti6dSsff/wxp06dwtfXFxsbGwYMGMCECRMIDg4+bxijmpoaUlNTWbx4MRs3brSIjiRJSJJE3759mTZtmmXqryVUVVWRl5dHZmYmGzdupLS0FLPZTEpKCj4+Prz66qs4OTmdU4hkWaa0tJQjR46wfft2i7ekjY0NAwcOJDo6msGDB+Pu7n7O99BkMlFQUMD8+fNZtmwZWq0WWZZxdHSkS5cujBw5kq5du+Lq6nrOd6+iooJly5bx888/M23aNMaOHVvPY1OSJEwmE/Hx8Xz77bcAPPnkkwQHB5/zOq80hCxTmV1GeWENOl9HdO52iBojxaklmGQ1HmEuqNRt9/63B9qtCOXk5DB//nzi4+OZNWsWQ4YMwdHR0fICCiGoqalhxYoVrFixgpCQEG6//XY6dOhwwZ1WWVkZy5cvZ/ny5YSGhjJlyhSioqIsaxJCCPbs2cPChQvJyspi1qxZjBgxAr1eX+84Qgji4+P5+uuv0Wq13HLLLXTr1q3enpy6zm/BggVs27aNqVOnct111zW5z6OiooI1a9bw559/0rVrV6ZOnUqHDh0srstCCIxGI0ePHuXHH3+krKyMO+64g549e56z87zUlJaWcvjwYVatWsW2bdvw8fEhMjISIQRZWVlkZGRQWlpKdHQ0//znPy8qgd35qKmp4fDhw6xevZrdu3fj7+/PsWPHuPPOOwkLC2PlypXs2rWLTp06WdZ7bG1trQ9DTU0Nq1evZtOmTRQWFjJmzBiGDRuGl5cXNTU1HDlyhJ9//pkjR44waNAg7rrrLnx8fKwP0yi5ubls2LCBdevWkZeXR5cuXXBwcMBoNBIfH4+trS1Dhw5l2LBhRERENLp+ZjQaSU5O5o8//mDXrl0EBQUxcuRIPD09kSSJVatWcfjwYZydnRk9ejSxsbGNCqXBYGDfvn2sXr2a+Ph4HBwcuOGGGwgJCaGkpIRt27axbds2unfvzg033ED//v0bHaSZzWZWrFjBZ599xhNPPEFsbGyj503te3369Gk++eQTbG1tmT17Nr6+vhfcxtsbpgoDx+fv4sDaXMImRNFtViQVx9LZM+8gJaUarv9oJCpDDVVlNWjsbLBzsqOm3IDa1gZhNCJpbbBz0l7R96NdipDBYOCjjz4iPj6eV155hbCwsCZvstls5uTJk3z00Ud07NiRBx98sMmO/FwIIfjjjz/4+eefufvuuxk2bBhabcOHK8sylZWVrFmzhj/++IObbrqJ6667rl4jysvLs6zJPPbYYzg5OTU4Th0Gg4H169fz008/MW3aNMaNG9dgBGkymdi+fTufffYZU6dO5YYbbmhyrUec5Z6dmprK7NmzLZbc5aZO5Ddu3EjHjh2JjY0lIiLCIuJVVVWcPHmSpUuXcvDgQSZMmMDkyZNxdHS0PtRFU3dPv/32W7p06cK4ceMICQlh7dq19OrVCx8fH2RZ5vTp0/zxxx/s3r2bW2+9lZEjR9YTIlGbRO6XX37h3nvvZeDAgZbnXfd86gYIBw4cYO7cuQQGBnL//fefM0K5EIL09HQWLFjA8ePHGTZsGLGxsXh7e6NWqy3Ped++faxYsQKVSsVtt91G165d670/dXvF5s+fj62tLVOmTCEmJgZ7e/t6A6Lc3FzWrl3Lpk2bGDRoEFOmTKm38dtkMrFhwwZ+/PFHevfuzejRo/Hx8cHBwcHy7ptMJk6ePMmKFSs4fPgwM2fOZNiwYQ2EOzs7m4ceeohRo0bxwAMPnHcPmBCC/fv38/HHHzN8+HBuuummNtuOcakxVRg4+VMcx/cU4R7qSuS0zuRtS6I4t4LcRAOj3hpCxuqj5KVWoLKxwa+fP5Wp+ZjVNtQUVeDWPZDAnl5XtLWkfuWVV16x/vJys2PHDj777DOeffbZ827AU6lUODs7Y29vz+bNm3F3d6djx46NdtDnIjExkbfffpvp06czYcIEbGxsGj2GJEmWSMUlJSXs2LGDsLAwi3OEEIJPP/2UtLQ0/u///g93d/dGj1OHRqPBy8uLvLw8du3aRVRUVIONpHl5eXz++eeEh4dz3333NSqOdUiShIODAwEBAezatYuioiKioqIaHZFeSoxGI5s3b2bFihVMnDiRWbNmERgYaBHTuvvq7e3NgAEDcHR0ZMWKFTg5OREYGHjejqqlnD59mtdee43hw4fz4IMP4uXlhY2NDeHh4Tg6OiJJkuXdio6OpqamhiVLluDr62sJ8lpnGT/55JM8++yzjB8/3tK5n/18JElCrVbj6+tLWFgYf/75J1VVVURHRzdpAeTl5fH999+Tk5PDQw89RGxsLM7OzhZrWqVSodPpCAkJoXv37iQnJ7NlyxY6depUb1q67t1xdHTkscceIyIiwvL+1H1UKhWOjo5ERkai0+lYsWIFer2e4OBgy31PSkrijTfeYPTo0dxxxx14e3tjZ2dnOZ+6a/Tw8CAmJobi4mLWrFlDYGBgvf1LQggWLFhAamoqL7zwQrPERKpNGFlQUEB8fDydO3fG1dW13j2+UpGNZgqP5GKQbNDpJKoKKinNqcKto56STAMdh/uTuy+D6nKZktQS1M46XD01nN56ipISiY6DA9C52nEl34qme/fLhNls5vPPP2fkyJEMGDCggQCJWq+ws7GxsaF3796Eh4ezadMmCgoK6pWfj5qaGj788EM8PDwYN27c33/zLG8867+p1+sZMWIEZrOZ9evXW2KPZWRkMH/+fB577LFmbx50cnJi1KhRlhHf2X+r7rtjx44xffr0Ju+HtTnboUMHhg8fzs6dO0lPT29w/pcSIQSJiYksWrSIHj16MGLEiCYtOalWjEaNGsXAgQP58ccfSUtLa9XzN5vNfPTRR/j4+HDLLbeg0Wgs52J9TpIkodfrueGGGwgODmbx4sUWL0mj0cibb77J7bff3qxMpqraVOHjxo1j69atTYYKMhgMlvJbb72VLl26NBleSaVS0aFDB+666y6oTf5XlyPJaDSyatUqcnNzLVOAjR2jjrqpvZ49e/LHH39YArPKssx7771HWFgYN998cz0ryhpJknBycmLixIn4+fmxfPly8vPzLeVGo5Hvv/+e66+/vkkL12SsoaCgAPNZC/MajYbBgwdTWlrKqVOnLtrJo71h76HD0ceB9G2nMNva4ujtgEolYTZUU5xUgo27A7Y6FWazQK1VY640YjScWXO80ml3InT8+HESEhK4/fbbrUaJgqL8XPbt3UPCyWSMxvrePC4uLnTv3p20tDSOHz/eaONuDFE77bFo0SKeeOIJy1SekE0kHktg3twv+e/HnxGfmIp81jElSSIwMJDIyEj27dtn6eh///13vL29zxlCSFiJmiRJhISEEBYWxv79++vFmDMajaxYsYKePXvSsWNHy/cAJqOBI4cPsW3nTkor6+9vUavVDBw4EGr33LTE+6m1qUuzUVNTw4033tis0a+trS0TJ07EaDSyZMmSVvOAFLWx1lasWMHjjz/erHMBcHd3Z+rUqZSVlREfH48sy6SkpJCamsr999/fpEVjTV1H7+XlxY4dOxrtTHNycliyZAn9+vWjS5cuTb5HZ+Pl5cWMGTMs4lXn/fb9998zefLkZqd3sLe3Z+LEiRavToPBwJYtW9i8eTP33ntvfVfwWoFqrK15e3sTGxtLcnIycXFxFq85g8FARkYG/fv3bzCgAqgoTOfrT9/n4YcforCyvqddcHAw3t7e5Obmttr70C4QApWdFqdAJyRJhZOfM/bOtggZJCSMZdUUJRZgrJGpzi8j+3ABzpE+2GuM5J4oQjY1fIeuJBq+BZcRIQQnT56kQ4cOVvtDBEU5ycyd+zH/fu3fPHDX3fywdDvyWSMlSZLo1KkTDg4OZGZmNtq4m+LkyZOEhITUS5pmNho4cvIYSanJrPrtB15+dQ7lVfXjvmm1Wov3Vl0q7127djF8+PAG8+AAstnIvu3ruOfWW/lh7Z56omZra0vnzp0pKioiMzPT0rBNJhOJiYmMHz/eqtEKtv7+CW+/9TqvvfgP7nzweWqsOgNXV1c6d+7MqVOnLngTZmuQm5vLxo0bGTNmDN7e3mBxz27ozisLMyaTCVmW8fTw4MEHH+SPP/5otfMXQvD111/TpUsXgoODofZczGZzg860zgowmc2AICoqCh8fH5KTk6murubFF19kxIgRODs7NyoUstlESlISJRX1I3R7eXkRFhZGcnIyubm59crqBkWZmZlMmTLF8h5Zn1sdQgjqfHt79eqFXq9nx44dFseFgoIChg4d2uh0phACs8lUz+IA8Pf3JyIigvj4eIqLiy3rQH8nihQU55xi7kdvMe3GKdz35AskZuTWs8ZVKhW9e/fGz8+P48ePU11djRCCvXv34ufnR2BgYIN7JoRg39qlFBRksOyPJVQZ65+XVqslODiYrKysSx6jr61Q29kQeF0Una8LwjOmA/2eGEj4MH+cQ73p+2A3dK56+j41iB6zYuh9fx+63BBGyJhOdJ7ahd739cK/q/sVvR5EexShdevWMXz4cKuRpYTO2Zvpt97Df9/5D4HaCvbsP2JpfHX4+fnh4uJCcnIylZWV9cqaQgjBvn37GD58eL1OXq21Jzb2ep558nF6RfiRk53bQNgkSSIyMhK9Xk9GRgbZ2dkcOXKEW265pV69OkpzT7N99372bt9Kak5hvUYr1eZskWXZsslRCEFxcTFFRUX07NnTqtFKdB44kX//5y2eu386W9evphTqHVOtVhMbG8uuXbuafT9aGyEE+fn55OfnM2LECEBQVpTNnDde4Z7Hnye/qC69tiA7PYV/P/MoY6+fwDNvzeFkVgHdunWjrKysyU64pYhaa3XWrFmo1WqqK0v485d5PPjCe2w7kVfvDlYWZ/LU7Lt57s1PEcKMjY0NwcHBlJaWUlpayvHjxxkxYkSjHbzJUMzcz95iyqQb2Jhwql6ZWq227G+znmo0mUwcPnyY8PBwPD09QQjSThzixwW/cDo7p97zNRqq2LdzE3/+tYpSgwkbmzOemLt27bJsNQgPD2/U0w0E2SmHuHvWzby+YEsDK/+GG26gqKiI8vJy4uPjeeSRR+o5PMjCTETP3tw2bSRxqxexbufhBs/IwcGBoKAgqqurLe9fUVERjo6OjXpsSpJEr7EzGD+yH6KJ/UZarbbFSSbbM5Jahc7PGWdfPVq9He7h7ujc7NDo7PDo5IZaq8E5xAOfrt54RnjgGuyCc5ALek8drsFuOHnrkFSKCLUqOTk5jUZAsLHVkrB1Dc8++gi7kyu5blT/BjdfrVajUqksI+nmIIRg9+7d9O3bt14jkiQVDg4OZJ06wp5jucy48y4cGlnct7e3R6VSUVVVhcFgoLy8nICAAOtqADj7dOTeu2+lg7urlVycoa6Rn33uNTU1mM3mBm7gILCxUfGfV17mkafeYMT1M3AHrF9HOzs7yyj0ciDLMvn5+eh0Ojw83JGNNSz45nu2r/+LA4ePUFM3rSLAJIFvZAyxvaNYNe8r9mzdiV7vSLdu3fjkk0+a/UzPhcFgIDc3l6FDh4Iwc+BQAv/94ieSU1MpKPvb0hWy4KWH7sXBvoyDxxKhdnQ/cOBAduzYwaFDhwDo06eP5TdnU12cT3Sf/ghJorqm4VRoYGAgZrOZzMzMet/LssyRI0fo06cPKpWKgzvX8PZrz/LKu3NIzci2DLxM1WVs+fUD7n/4IX7+fQnlNSZUKonY2Fiys7Opqqrir7/+Yvbs2Y2KpDCV8swbn5OadJijaXkg1RehqKgoCgsLSUxMJDMzk6ioqLN+LeHqHcyggSPo3yUEldoGd2fHBu8eQP/+/UlLSyM1NRVq25u1BXQ2Do7OONg3bGdXNdJZDfesf0t1vbPEmb5OOvNs6v6NqpEGfwXS7kRIqvU6skbIEtG9BvHwU0/QO8KRTz+fh6mRHcWN/fZ8yLLcYH5aCJnjB7byyn/mMGjCrdw8qieaZow4JElqsrOUJBXqukXwRk6zpeduY+fEHXfezdPP38+GJV/y864ca+MQas/pcmE2m0lKSkKv16PR2KCy0XLnQ48wdXws9jZndY6ShJ9fR+65/W5iOkfg5uOLvZMzao0aLy8vDh48ePZhLxiTyYTJZDrjXaXS0LPXQF76x2ycbes/f0mSeHXub4yOcK73rFQqFXKts0rd/zeGziuE/n174eTY+JqTSqVq9LkYjUY2bdrE4MGDkSQJv9Bu3DNzCpEB7vUsf0ltS0y/63j8/ttRS1DnmqLX66mursZkMpGRkUGnTp3OOvrfSGpHvvhkDmE++kbfxbrrqq6uxmAwNBoWqDj/FK999C0xo29lSK+IRq9HXetOXvduBwQEWESyMQyVZRSXngnwW1RciMlcvy2ZzeYmnTQUrkwab0GXkcDAQNLT062/pig7naNHjpCeV4Ktgw4nfcPGYzQaMZvN2NraNjr6awoXF5cGYfyNVaWsXbGS9OwyMk7uZ84nn5NR1DDeW91aglqtxt7eHhcXF44fP25dDQBTTTWnUk5RXl1NbkYaqdl1U1FnMNTmGjp7KtLOzg6tVtvg/BAye9cuIz01hVITODs7Y2cjGlhYZWVl6HS6JjvLS0H90a+E1laLxkbTYBQnm4wkHd7Nqk1bGThpFgMG9bOu0upoVCpsbVS1f+eseyeBg86h1tpu2EvXXU9TC+QSIJvOvBsmoxGjVWcqN7Ggj9X9cvX0wsPDE5VVp6u20eIWFIHOTtvg9Op+WyeYjSKpsNdqznQAUkPvyjrqjlX/XAVlead5/83XOVmsZ9q4QZRXVtPImLABUVFRFBUVkZ2d3eD6hRBs+em/PPfalwR3iuSZh+8nNe/vqVij0cihQ4cIDQ1tVBQVrkwuX8/UCJIkMXz4cLZt22a1EC2w09lTVZTP7i076Nh9LC8/+yAaqwW5tLQ0iouLCQsLa7bXkyRJjB8/nkWLFtUbXalt7Bg+bgrPPP0Y466LpV/vHujtGoYhycjIoKqqCnd3dzw8POjSpQs///xzgwYGUFWcwzfzvkdy8eDwhiX8sOqApZ4QgkOHDqHRaCyL95Ik4ezsjJubW8Oka5IKdy83DuzZzcEjebz+3kdM6FnfBddkMrFq1SoGDhzY7PvR2ki1Ls7G2nhlQsikn0omOS2TirJiDhyqE2xBfuYpPv/wfU7mQb/oUMwVpZjMgurq6gZ7py4UjUaDVqs94zYsBCXFRRw5nkhRYQ5JiScpKq0daAg4mbCbo6cLKSnI4eSJk8iyoKysDCcnJ/R6PUIIkpOTrf8EAMaqEnZv30FFpYH9OzaxO7monpVaUFCAJEkNMgFLkoS3t7dlXbC6soy8ggKqq6vIyc6iptbLUchmKovzyC8sorKinOKiEozmM3Hh6qys4ODgprOgCjMH4w+QV1pJYWYSRxMz6p1fdXU1Go0GvV6Pvb09ZWVlZ/0WctOSKC0qh4ps5n78X/73+zZk0VDwSkpKsLW1tThY2NraWjYFWwukJEkMnvEkCxYuZvXq1Xz3zVcEeZ7ZsyWEsMT1c3V1bdEgU6F90+5EKCoqitzcXKukWRI6Fx+m3vkAn3z5Fa+9/AzR4Wc2DNYhyzLHjx/HaDTi5+dXr+xcSJJEx44dOXz4cD1rQ21jR5fuvZkydRrTpk3jxonjcdHV93iTZZmEhATKy8vx8vJCpVIxfPhwNmzYYLFqzkbn5sP9jzzOF199xccf/Jd7JvSibpdZVVUVR48excvLq975azQaoqOj+fPPPy1urmeQiB48kTc+/JSvvvycmycMR2N1zXl5eSQmJhIUFNToQvClQK1WExISQlFR0RkHA9nMobi9pBbWEO7nzfpNuxG10zWl5RWUVKvwcrZny5q/OHwihbKKSk6cOMGkSZOa/UzPhZ2dHcHBwSxZsgRZNpObnc6BIyfx0NmQeDCOzNxC4Mz01o6VvxGfYUuAi4YtW7djks/s2ercuTMdO3YkOjqazZs3Wz2XM5iqKzhyOJERsWMwF6aRmFNlsaiEEBw8eBB7e3urtZYzz3vo0KGsXLkSWZbJSjnK5p37MMuCjWtXU1hyZqrKbDSQFLeBvQeTqCgpJuHAQSqqTRw5cgS9Xo+trS3jxo3js88+a9xak02sWbkUe59IXCtS2bjniMWSEUIQFxeHk5MTQUFBBAYGsmnTpr/boyThH9WTp19+gw/nfMCbb73J/VMHo27k+Rw8eBBPT0/LHiWNRsOsWbP466+/Gt3PZ6d3xcfXlw4dOuDj7Y1GfaaLMhgMrF27FkdHRzp27HhZLXuF1qXdRUxwdnYmISGBhIQERowYUW9qSjprl7d1h5Sfn8+ff/6Ju7s7Y8eOPWcQxrORakfqixcvxsHBgR49eliObf33rJtYSUkJS5YsQafTMXbsWPR6PT4+Pnz77bcEBQXRqVOneucpqTS4uLri4eGBp6cnTg62Z6ZtZNkSw2zIkCH1zkGlUqHRaFi0aBF9+vSpF+rF+vzOxmQysXz5ck6dOsXkyZMtccIuB+Xl5fz1119ER0cTFBiEu5c3PfsOYNSoWPr17o6LsyOSpEKnd6JX3/4MHTqIPn37EBYcRE52Bl9//TWvvPJKo27vLUXURjZftmwZM2bORK93IqZbd2JHjmBwvx74+3phU7tu5xMUSp+BIxk1cgSdu3RBo9Hwx5IlBAYG0r9/f3x8fJgzZw633HJLg3PT2OmJ7taTESNGEBsbS/eObqhr1xQLCgpYsWIF7u7uDTxBJUmioKDAElVaEjLYONK1Rx86BgYSERmBnVYLQsZQXYnOoyO9evQgpGNHvLzc+erLL9DpdIwbNw6tVssPP/zA5MmTG4ayklQEBHVk6IhYYocNoltUGI56e6TaezRv3jycnJwYPnw4aWlprF+/nilTpljOVaO1w8XFDQ9PTzw9PXHROzR4vwoKCliyZAl+fn7069fPEoUkODiYDRs2kJubS69evZpl1ezfv59Vq1YRGxtLr169GoS2UrhyaXfDCZVKxYMPPkh8fDzr169vdFrLmpqaGnbs2EFaWhqxsbENpjjOh7OzM0899RQ//PADx44da9bfNJlM7N+/n9TUVIYNG2bx6PPy8uLRRx/l008/JTU1tdFjWYtGcXExq1evRqfT0atXr/rCJUnExMTQr18/FixY0Oz9MikpKWzbto0hQ4bg7+/foIO4VEiShK+vLwMGDGDdunUgSbh5ehEcGkpoaCgdA/8OOGtnr6NjyJnvQ0NCcNI7sOi33+jfv3+rdTqSJHHzzTdz+vRpjh07hr2D7szfCw2lY4AfDnZ/i4m3f4ilzNfHh927dpKZmUlYWBharZaePXuiUqlYsGBBI1NLKmxt7XBwcMDBwQGb2qljs9nMvn37OHXqFP37929goarVaiIjIykvL2f37t14+IUQO24SN06Zwo033oiz/sxaiMrGlo7dhnLjjTdy44030qtbF0oL89m5YwexsbHY2dkRERFBaGgoK1asaGitSSoCAoNq73UwPh4ulkHW8ePHOXHiBN27d8fJyYk777yTo0ePNtwEfo5BkKjdE1RcXEx0dHQ9kXZycuL2229nw4YNLFu2jJqamkbbCbXHSUxM5KeffiI4OJhhw4Zd9hBUCq1Lu7OEAMuofeHChYSGhp4z3IjJZCIhIYEffviBvn37MmbMmBZ3WJIkERQURFJSEnFxcfTq1eucoUlkWSY1NZUff/yRgIAAJk2aZFlzkWozde7fv599+/bRvXt3dDpdk8eqqKjgr7/+YufOncyYMYPo6OgGUw22tra4ubmxZs0aCgsL6dSpU5Px40TtZsdvvvkGlUrF9OnT8fLyarTupaKuo125ciUdOnSwxF5rrPM6+7t9+/bx/fff8+CDDxLaSunbpdrYehUVFSxYsIDx48dja2t7znORJInMzEzmzZuHu7s7U6ZMwcHBAa1WS2hoKK+88oolCoL1Mc5GCEFKSgpffPEFERERTJkypYEIUXu/CgsL2bdvH/369cPB4YyV0fDY9UXgxx9/pKSkhJkzZ+Lm5oaNjQ06nY4lS5YQExODh4dHvWOc/du67ysqKpg/fz6SJDF16lTc3Nzw8PAgLy+PlStXMnLkyPOKgKiNSvHLL78QHBxsialXh0qlwsfHB71ez59//klmZiaurq4N0lGUlpYSHx/PF198gZOTE7fddttFRclXaJ+0SxFSqVQEBwdTU1PDp59+Sk1NDQEBAZbGSO2LLoRg8eLFfPXVVwwaNIjp06c3nHZoJlqtlpCQEHbt2sWWLVsICwuzWFRnv/R1a0+ff/45Wq2We++9t0HnY2trS2RkJPHx8SxcuBBXV1cCAgLqTTvIskxFRQVvvvkmmzdv5v777290ZEzt/XB3d8fT05O//vqLuLg4goKCGgRxNJvNHDp0iH//+99oNBruvfdeQkJCmjXd0ZaoVCrc3NxIT09n/fr1dOvWrckoA3UUFRUxZ84cevTowQ033NDs6dXmoFKpCA8PZ+vWrSQkJDB06NAGwn82paWl/PzzzyQlJfHwww/XE9GAgAB0Oh0ffPAB3bt3b3LaUwhBUVER//nPf7C1teWRRx5pMv+VVqvFycmJTZs2UVlZSUxMzDnPT9Ru8v7xxx+55ZZb6NmzJxqNBpVKhYeHB+np6axZs4YePXqcs30YDAaWLFnC9u3bueWWW4iOjra4Q0dERPDXX3+RmJhomVprisLCQubPn09ubi533313o6kXbGxsCAoKwtPTkx07drBw4UIyMjLIzc3l5MmTHD9+nNdee41t27YxYsQIpk+fTmBg4Dnvg8KVSbsUIWo78rCwMBwdHfnxxx9ZtGgRZrOZiooK0tLS2LhxIw8++CDHjh3jjjvuYNq0aX83MEED99/m4OLiQnh4OFu2bOHDDz9k4cKFeHt707FjR2RZJiMjg48++og5c+YQHh7Ok08+iY+PT4OGIdV6PUVGRnL69Gm++OILdu7ciVQ735+amso333zDU089haurK7Nnz2bgwIEN1hXORqPR4Ofnh7+/vyXK+OnTpxG1eXiSk5N59dVX+frrr+nfvz8PPPAAoaGhZ/ZpmGSKThYg7GzQ2KgvS8TdOq+oAwcOsG/fPiIjIy3RquuoG1ikp6fz+uuvI0kS99133xmRhzMPtZXOXafTWRw+Vq1aRceOHc9EKLCitLSUf/3rX2zbto2XX36Zzp071xN1tVpNp06dMBgMPPvssxQXFxMUFFSvszebzWzZsoW77roLZ2dnXn/99XNa95Ik4eHhgZOTEz///DMFBQWWBIqS1T66mpoaNm3axNy5cxk/fjwTJ06sJ9j29vaEhIRw8OBBFixYgKenJ76+vg0GJoWFhcydO5e//vqL22+/nWHDhtUTGr1eT0xMDIsXL2bv3r3odDpMJhN2dnaWdaI6oX3llVdITEzk6aefplOnTg3aRx1arZaAgAAGDBiAn58fcXFxbNq0ib179xIXF8f111/PQw89xIABA3Bzc2vyOApXOKKdYzAYxNdffy0GDRokhg4dKvz9/UVwcLCYMGGC+Omnn0RFebkwm2UhCyFkWRYVOSXi2JKjIj+tVMjWB2smVVVV4q+//hL9+/cXnp6eIjAwUAQEBIjg4GAxfvx4kZCQIGT576PL8pm/3xgmk0kkJyeL9957TwwcOFCEhISI0NBQ8cQTT4iEhARhNpvrHet8yLIsjhw5Im6//XYxbdo00alTJxERESEiIiLEV199JZKTk4WhwiCqS6qFWRbCWF4p9szZIn6atEAc2VckzGbrI146ZFkWp0+fFvfcc48ICQkR//rXv0ROTo4wGo2ipqZG5Obmim+//VaMGTNG3H/f/SIl5ZSouzWmyhpx4Os4kXK4xPJda5CSkiLuuusu4e/vLx599FGxf/9+8eabb4rDhw+LJ598UoSGhopZs2aJ48ePn/M5GQwGsWnTJnHDDTeImJgYcffdd4snnnhCPPHEE6JLly4iJCRE/PLLL6KiouKcx7Fm1apVon///mLEiBFi7dq1oqqqSqSkpIiioiIRHx8v7rjjDhEVFSU++eQTUVVVZf1zC1lZWeL5558XwcHB4uabbxbbtm0TiYmJ4uTJk+K9994TUVFR4rrrrhObN28W5iZeElmWxalTp8RDDz0k3N3dxZQpU8SmTZtEUlKSOHXqlHjiiSdEWFiYuPPOO0VKSkqLrlOW5fof05l20ZJjKFyZtMukdmeTlZXFF198gZ+fH0OGDGHevHncddddREREoFKpqDhdQE5iNR1H+FGVXsTJ5cc4tbeQHo/2IyDGk1oPzxaTm5vLG2+8ga+v75kQL4CPjw8BAYGo1X/vdpeNZqoKKqgxCPQ+emxsG5/6amxzoqqJXfPnwmQy8fHHH1NZWcldd93Fu+++y7Bhw7j++utRq9TI1UbS1ieTl1VN5M0x2JqqKc4sY88b2wh7dhQR3Vy43APKukR+X331FVlZWVBr6Tk7O+Po6MjMmTPp6d0ZG50T7hGeqDGy9e0d5B3JI+juofQade61l5YghKCqsopta7aw+Nc/ScxKZHfcTjp37syIESOYPHkyvXr1atazErWx/vbu3cv+/fspKytDkiQGDx5s8YJr6Whe1GYWXbz4zN4ZtVrNpk2biIyMxNXVle7du3PbbbcRGRlZz8uuMcxmM0eOHGHdunWsWbOGkpISJEmiW7duXHfddYwePdqyPnYuqqurmT9/Pp999hlarRZbW1uEEAwdOpTx48dbgvqe7ziNImTKsko5tSEVn6HheAZcnv1tCpcQa1VqT8iyLPbv3y8effRRsXv3blFYWChmzJgh1q9fL8xGoyjLKhUpyxPEiuc2icLsMlFRWCVKU3LExtc2iZT9OcLU+ICuWeTk5Iinn35aLFq0qN4IzWySRVl6sagoMgjZbBaFx7LF1tfWihWvbBFFmWXWh2kUU3WNKD5VKAqSi4Ro0oZqnLy8PPHkk0+K7777ThgMBvHll1+K0aNHC5PJJEyVBnF64wmx9Y2NYtXza8T+JSdFSVa5kA3VYtktiy67JXQ2ZrNZJCUliejoaKFSqUSnTp3Evn37RHlJqajMLxWH5+4Qu+fGidzEYmGsrhGluRVi5V2LxJ5V2Rc9OpbNQpSnF4ryYqMQQojS1EKx440N4o+n1oiUhCzRu3dvceLECWEymS7ob8myLMxmc73PxWIymUR5ebmIj48XwcHB4sMPPxTZ2dmiurq6Recoy7LlWKWlpaK0tFQYDIYWH+OXX34R//jHP8TBgwctxzEajS06TmOYysvErjlbxE8TfhRHdxRYFytchbRsWHaJMRqNJCYmolKpiImJwdHREX9/f1JTUzGUV5C88jipu3KozC4heW0qZYUmbBy0ZwL/tbJ9J0kSCEFNeTUnFuwjeXsupmozAjXO/nrs9OcehVoQMvkH0jn4XRzbPtpLwz3mTSNqd42bzWZCQkIsG1nz8vIwGo0IITDXmDDXyJhrZEyVJoRZxlxjRiCQa8yY20nuEYPBwM8//4yNjQ1ubm5ER0eTlJSEjSzIiztN5pFC8o/mkbQqkepyEzqXMw4bF2u3C1nGWGkk+ee9nNxfjMlgQpZU2Om1ODhosdWeWXc5O2toS5Fqs5We/blY1Go1Op2OmJgY7OzsCAwMxMvLq1mWy9lIkoQkgyGjirLkKnT6MxGtW3KMOjQaDQ4ODjg6OuLo6IjmrOSALUE2y5iqjRirTSBp6HJrDHb26lZb/1No31x862hDiouL2b9/PzExMdja2qLRaIiIiGDPnj1U1Rjw7e2PVycXbF0c8Onuhb2DRHl2OTUVRsqzyjCUN7JT/EIRgprcIk6sSCQ/rYycA+lkxOeiC3LDLcj5/FNcom7hHcwGgWugDtncsh7VaDRy4sQJvLy8iIyMRJIkwsPDKSkpIT09HY2DLYEjIwgfHULgkI50mRqBg5OG1C1pmIH8vWlknSxtMC14qakLJ7R7926mTZuGh4cH999/P5988gmns7NwCffCLdARpwAnfHr5orVXU5hcjMkkYygop6ygYTSK5mIqKSdx1UnyUivIjTvF6R3pOHZwwjPSrXUdNkTrD4TquJCOvg4hBAVHczi+6CC75h3E3MJ3sNURUJldSurGFJI2ncZQo8LetdZB5zKfmsKl4Xxd52VDCEFGRgaJiYn07dvX0vCCg4PPWEJmM55dfPDr50/w8CC8ozzQCCN5R/NACIqP51OWX33RI+fGqNcFyLXptYVAyGdExhrZaCTnQCYnlp4gP7UCrwEd0bs17QnXFGVlZeTn51vyJkm10R46dOhgSRUtqSRcOnng38sXrab2TNUawm/sjIdP3aj5wjuxi0WWZXbs2MGPP/7IzJkzCQ8Ph9qEbF26dGHx0j/RB7riPzCQwAGB+HbzxsZGInVzKjbuOoxZBeSlnAldc2H8fe0SQK23mZDPhOoRzYnCeR7M1Uay92WQcTgfo6F9WJ7UtqkzV61C76atDbBqXesSc+YhWP5XmEwUnyrBbBZU5pRSXtS8zdkKVy7tVoRMpjNxsJycnAgLC7N836VLFwwGw5lkYAj0gR6EjQxErZLQOtvj0yuAmBkxhI8OxtHdtvVGt5KErbcbUZMi8OvhTeDgEAJ6e1N0KIPE9WkUHcvn6LKkxq0vWVBTZqAivxKjwfy3cJ2ZnWsWQghOnTpFVlZWPbdXW1tbZs6cycqVK88IjCRh76HD2c8RtQps9HYEx4YQOTGCqEmR+Ec6td49aSGi1v16wYIF9OjRw5L+ecCAATg7O3PjjTdy+PBhTpw8iVu0L75dvdHaqkGtJmBAAN3u6knnscF4BF14BGUbFz0RN0QQ0NOLgOFhBA32p/hkHokbUihNLSJ5ZSpVF2FpCbNM7uFcDv98mNR9uRgMDePKXXJkE6WpeSQuP0nu8UJcIr1w9m16A/WlRtfBieDRYXSKDcJOayZ1fRr2Pk6UHs8mN63qslvuCm1LuxWhmpoa9u3bx5AhQ+rt0HZzc0Or1ZKTkwOASqvB1lGLBGh0triGeeDd1RvvaC8cnBtu/LwoJAmNnQ0dx3cmoJsrKo0afQcnQq+Potcd3Qjq64tG29A7TqW1wbtHByInReAZpCPl1ziOrjxNVUYRe79p3pSIyWTi5MmTGAwGwsPDLR2IJEn06NGDAwf+jsh9pqDuvxIqtQqV5szHOhHgpcRgMLB8+XJ0Oh0zZszAycmJ+Ph4xo0bh1qtpmvXroSHh7Nw4UKMkhmNvQZJAkmlwiva68xz7eKJs9dFbFyVJNRaNf7jogmKcESlVmHvoSNsYhd639eT4CEd0Dg0c33vLOqsYQCnABccXO0xV5vbzZSSubqGqsJKTNXGv89J+nuK+HIinf2O2tvTMTaUfk/0I2ZqJ7w7NoxJp3B10S5FSNRuektMTGTw4MH1ymxsbBg6dCj79u1rEK/rUiCpJBx8HLFzskFSSej8nPHrF0BA/wA6dPNCY5Uc7cyPJLR6WxzcHbCx0+DezY+o6d3o93Af/Ht6N8gV0xglJSWcPHmSwMDAemkNpNqQQ9YZOtsbJpOJtWvXsmHDBkaPHk1QUBDURg+vi0zh5uZG3759OXLkCLt27bI6Qisigb23E/Z6NXDGcvTrF0DAgAB8e3hgY99wIHEuhCzI359O4upkso8V4eCpw8HlzMDpMvfvZ1CpcQr2otOkSLwi3UlbeYSjq1Kpyihiy/t7MBkvfTtqCslGg2uwG+5h7riHuqFzbjoyg8LVQSM9Zvtgx44duLu7Nxp8c/jw4cTFxTUMyngZkKQz6XYldW3a3fMhSbhE+RI4OIiOQ4Pw7er5dxrfJhC1URFOnTrF4MGDG3hbeXh4EBERwYIFC9rl1IUQgpMnT/Ldd9/Ro0cPhg4datmxbzabLftb1Go1ffv2JSoqij179lyy5ytJtc+vuc/QCiELytIKyTmUR1lOxd8ufO3mUUiotTbYOduhsVXj2b0DMXf3Zvjzg4gaH4xac54XUEGhDWmXb5/ZbOa3335rEOa+Dk9PT4qLizHVJvi60jh7ekzVjN20JpOJ06dPo1arGTBgQANR1mq1eHt7W+Vgaj+UlpayZMkSPDw8eOaZZyxhZaqqqjh+/DjDhw+3CKujoyPDhw/nwIEDrFu37rJYuy1FpVERPKkrg57qR9jQDpzedorT8Vnkx59m/+JkDJWXRkybgyRJOAa64tuzAx16d6BDjOf5PTsVFNqQdvn6ZWdnc+DAAQYPHtygw5VqUwM4OTldtim5S43BYCAxMbFBfqKzueuuu9i5c2e7ux9Go5GNGzeyceNG/vGPf9QbVJy9jlKHSqVi0KBBREREsG7dOkuG0faOVBeNWqVC7+tE5LTOxEyJILCbO2qbxp/Z5cJyrhca1UBBoRVplyK0cuVKevbsSVBQUKONRKPR0KFDBzZv3mxddFWSk5PDqlWruO6666yLoLZT8fT0JD8/v9FslZcLUZuy/NNPP+WBBx4gODi4XrnJZGo0arhGo2HChAmkpaWRkJBwyablWgNJpcItzJ3Q0aGEjg4hqIc7Gpt22cwUFNoF7a51VFRU8OeffzJjxoxGBYjatYMhQ4awZcuWBiPpqw1Zltm3bx8qlYpOnTpZF1vw9/dHp9ORkpLSbu5JTk4Ob7zxBsOHD2fKlCn11rLq1rkCAwMbtd46d+5MdHQ0q1evJj8/37q43aNYGgoKzaNdiZAQgv3795ORkVFvncAaSZKIiori6NGjVFRUWBdfVdTU1PDnn38yevToRq2GOmxtbRkyZAgJCQntQoSqqqr473//i4ODA48++mijnXFeXh7e3t6NWjo2NjbcdNNNHD16lG3btjVaR0FB4cqn8V7+MmE2m1m8eDEDBw7E0dHRutiCJEkEBgYihODo0aPWxa2C2WxGkqQGeVcuJUII8vLyOH78OFOmTLEurodarSYiIoKEhATrokuOyWTip59+YteuXbz00kvo9XrrKlB7fY2JE7XPODQ0lMmTJ/Pdd99hMFz4BtLmIoSgoqLinJlw2wMmk+mcuacUFK4k2pUI5ebmsn37dqZMmXLeTsDd3d2ySbMtyM/Px8bGBnd3d+uiS8q2bdsICgo6ZxI0akUoMDCQ3NxcqqqqrIsvGbIss3PnTubPn8+//vWvJtNyCyFYs2ZNgyRxZ6NWq5k0aRIVFRUsXLjwklh4WVlZeHl5NWmFX24MBgP5+flERkZaF10yhBBUV1dja2t73lTfCgrno920NFmWiY+Px9nZmW7dulkXN0ClUjFmzJg2E6HKykpUKlWrppVuKWazmVdffZXx48c32VHXIdVm4wTIyMi4JB12YxQUFPD5559z5513WvIwNcWOHTvo2LHjOa/N3d2d119/nffff9+Se6gtqa6utmQwbY+YTCYqKyubTA1+KZBlmYKCAhwdHc+ZLlxBoTm0GxESQrBu3ToGDRrU5PTN2UiSRK9evdi6deslmaq5HBw7doycnBxGjBhx3pG5JEk4OTlhZ2fH6tWrrYsvCRUVFfznP//B1dWVsWPHnnfKqKampl4K6cZQqVT07t2bmJgYXn311UuyNnS5OveWcDnPUQiB0WhEpVKdcwChoNAczt2zXSKEEBQUFJCUlMTgwYMb3aBqjSRJdOrUCbVaTXFx8WUb+bcly5cvJyYmhoCAAOuiRnFycqJz584UFhZe8vthMpn4/fffOXXqFHfeeSc+Pj7WVepRJyYODufPnKlSqXjttdf4888/ycrKuuTXpqCg0Ha0CxEC2LJlC3Z2duednjkbFxcXYmJiWLp0qXXRFU9ZWRmLFi1i9uzZ57WC6nBwcCAsLIy0tDSqq6uti9sMs9lMQkICa9as4Y477qBnz57nHamXlZWh1WqbtbYh1TqiTJs2jZdeegmjsZFI5QoKClckzevd2hiDwcCuXbuIiIjA1dXVurhJJEkiICCAuLi4q2p0LIQgKSkJs9nM9OnTz9uh16FWq3FycqKqqoqMjAzr4jZBCMHp06eZN28eHTt2bNbUIWd5xrXk2l5++WVSU1PZsGHDVfW8FRSuZc7fW1wCMjMzSU9PJyYmBp2uZbli+vfvT1ZW1iUd+bc1JpOJpUuXNsuiOBuVSkWHDh3w8vIiOzvburhNKCsrY9WqVZSWljJ16lScnZ2tqzRKeXk5KpWq2dcnSRKOjo5MmTKFjz/+mNLSUusqCgoKVyDtQoSOHDmCo6MjkZGR59yQ2Rjh4eHk5eWRmpp61YyOCwsL2bRpE5MnT7YuOidSbfged3d3Dh8+bF3c6phMJnbv3s3mzZuZNWsWMTExzRIVIQQJCQk4Ojo2a/2vDhsbG8aMGYOdnR0rV65sNNKCgoLClcVlF6Hq6moSEhIICgrC19fXuvi8uLi40KFDB5KSkq4KERK18daMRiNdu3a1Lj4vOp0OnU5HYWGhdVGrk5WVxcKFCxkyZAixsbHNEqA6MjMzsbe3b/b6H7Ui6+/vz/jx41m1atVV88wVFK5lLqsI1a0nZGRk0KlTp2ZP5ZyNTqejd+/eJCUlWRddkZhMJrZv387w4cMv6H7Y2dnh7e1NcXFxm0agLisr491330Wr1TJjxozzulpbI4RArVa3SLiodb6IjY3F0dGRlStXXhKXbQUFhbbjsovQ4cOHkWWZTp06tWhqpg4bGxsCAwNJTk6+KjqkkpISUlJSGDZsWLPcl61Rq9V4enqSm5vbZvmFTCYT33zzDYcPH+aJJ56wZEZtLmazmZMnTzJixIgWrwEC+Pr60qdPH+Li4jh27FibXKOCgsKl4bKKUHl5OUeOHCEgIIDw8HDr4mZhY2ODn58fhYWF5ObmXtEdkhCCI0eO4OLigr+/f4umquqQJImQkBD0ej2pqanWxRdN3Tl++umnfPDBB4SFhVlXOS9ms5msrCyio6MvKOyLjY0NgwcPxtXVld27d18Vgw8FhWuVyyZCQghyc3OprKykc+fOF9QZUdvpurm5odfrSU9Pty6+opBlmZUrV+Lp6YmXl1eLp6rq8PT0xMPDg6KiolbfU5Ofn88DDzzA//3f/9GlSxfr4mYjyzI2NjYXdI11rvmjRo1i/fr1xMXFWVdRUFC4QrhsIgSQmppKVVUVffv2vaDOiNoOydXVFScnJw4ePGhdfEWRmZlJfn4+PXr0uKD1oDocHR1xcHAgPT29VVNdGAwGnn/+efz9/Zk1a9YFWWrUCtDFolarGTx4MPb29iQkJFy1oZsUFK52LpsIVVZWkpqaiqOjY4s2qDaGvb09Tk5OJCcnYzQaL3pK7mJ/fyEIITh27BharRYvLy/r4hbTqVMnSktLSU9Pb9b1CCEwm81NfsrKypg/fz5ZWVm8//77UDutZv2p+1uyLDcoM5vNmEymemGWrMutP+c6dycnJ8aOHcvixYtJSEholrhVVFRQWlra5KeoqIjq6mrKy8sblNV9qqurz3leF0NT963uUxch3fp764+CwpWCJNqqNdUGqKyoqMBkMlkXkZ6ezv/+9z969uzJhAkTmrSEJEmyLNA3labAYDCwfPlyTp48yaOPPtrkgr5KpcLV1RUPDw9ycnIoKSlpsjNJSEhg06ZNxMbGEhUV1ej56XQ6fHx8mr23SQhBSUlJo1NkNTU1zJs3D41Gw6233nrO6Uk7Ozt0Oh2nT5+msrLSuhiAEydOsGzZMkaNGnXO/TvOzs54enpSWFjIwYMHm9z0e/ToUebPn8+0adPo2bNno1ERbGxs6Nq1Kz4+Puzfv7/JOG+lpaV89tlnTJ8+nZCQEOtiC87OznTt2hW9Xk9iYmKjImM0Gnn11Vfp2LEjs2bNajLquZubG+7u7nz66aeYTKZG74csy2zZsoXMzEwmTJjQaCBdg8FAz549GTx48AU5VZyPuLi4c0YL37NnD2+88QYLFixo8lqdnJwYMGBAiz0Wz6ax51aHyWTigw8+QKPRMHv27Cbf1cbusYKCNW0qQkePHmXFihUUFxc36LQKCgrYv38/3bp1w9PTs17Z2ahUKgYPHoyHhwdffvklBQUFjTa+srIyiouL8fLyajR6syzLVFRUMHz4cO68804++ugj9u/f32hHQ+2G0ZycHHx9fXF2dq7XoERt8rMOHTrw7LPP4u/vX++3TWEymfjqq6/IyspqcD9qamosGzgjIiLqlZ1NTU0NPXr0YMyYMTz77LPk5eXh5OTUoMGbaxf/nZ2dm0wQWFJSQq9evbj33nvZv38///73vwkODm7US9FkMmEymdBqtQ3OnVoxyMjI4B//+AcTJkzgvvvu4+jRo406LgghLBG0GzuWEILS0lI0Gg0vv/wywcHBTJgwgY4dOza4Tmqv4+DBg0RFRTWa4iAvL48xY8Zw++23M2zYMG666aYmpzslSWqyAxZCsGvXLjp37syDDz5oSZ3RWsiyzJ133smBAweaHDhUV1cjy3KjA626+1ZdXc0vv/xywTMMOTk5HDp0iLKyMusiqD3PP//8E41Gw9ixYxt9XzQaDWFhYURERDR6HQoKdbSZCInapGVffPGFZSOqdUfOeUZLVVVVJCQk0L9/fwYNGsTcuXPp27fvOTvppqiurmbVqlXodDqeffZZnnvuOYKCgujXr591VaidtikuLsbV1bVBgxdCcODAAXbt2sUbb7xxztH82RgMBqZMmUKnTp3o0KFDg2s/3z2RZZkDBw7g5+fHE088wV133cWgQYMYPHhwo535uRBCsG3bNioqKnj44YdJSEjgxx9/5Msvv2xStM5FSUkJ7777Lj179mTSpEnceeedREdH889//tO6arNISEjg+++/55ZbbiEoKIjo6Gjmz5/f6DqUEIINGzYQHBxMcHBwg7KffvoJLy8vnnjiCWJjY1myZEmzn9nZyLLM119/TVlZGbfffnubiNDtt9+Ot7c37733XpPvQVPUvZevv/46c+fOvWARWrNmDa+//jpOTk64ublZFyOEoLi4GEmSGgzQqB2QZGZmMmrUKJ577rlGRUpBwYJoI2RZFqtWrRKPPfaY2L9/vzCbzUKW5RZ9CgsLxVtvvSXeffddsX37dvH444+L3bt3C1mWrf/ceSkrKxNz5swRL7zwgiguLhazZ88WS5cuta5m4ezzsMZsNot169aJW265RSQlJVkXN0l1dbW44YYbxO7duy/ofhiNRvHDDz+Il19+WaSnp4sxY8aIhQsXCpPJZP2nzovZbBaLFi0SL7/8skhLSxPLli0TM2fOFKWlpdZVm0VxcbF48cUXxaJFi4TJZBK33nqreOutt6yrNZsDBw78f3t3Hh5HcSd8/Ns9t6TRfViHLcuHLMkXtjHGNtiY0yQheMEJWSAEniSbvNkl2RdIOJIQIIFdG9hkA0k2DuHYsMvt5CUGDLbxhY3v+5YP3cfonNEcmpnurvcPSY41kmxpJHlspz7P09hM9Yx7arrr111V/Wvx0EMPid27d4vm5maRn58vQqFQ5GqntbS0iEAgEPmy0HVdPP300+InP/mJcLlcYvLkyQP6zc6k67pYtmyZeP7550VDQ0Nk8aDpui7uuusu8cADD/S6352LYRhi9+7d4vbbbxfNzc2Rxf32ySefiK985Sti1apVor6+vtfl8OHD4siRI6Kurq5HWWlpqfjFL34hnnrqKREOhyM/XpK6GdjpcxSUzkzJ0S6R+np9qHX9G8P1b0V+z4EsFxIhRJ/dV2cTzXvOJjk5udexiQHX1xBv11ATQnA+ttBsNpOSkkJmZmavy4QJEygsLCQrK6tHWXp6+rCMl13SevlRu44RIUSv5ZeKYQ9CfelqvIaiMRJCoIXDhELhoWlDhMDrcVNVXYPX33MixHA4sz4G/xUEhqERCoXQexnMHxiBFg5SXVlJc6sH4/TGddR5dWU5tQ1N3d9yFkII2v1eysvKCAR6nwTRfwJd12hvbyfcy+SXgTD0MAd3beNPb/2Z+sb+f5/zRQhBKOCl9FgpmiZnv10yDINgix93lYegr3MfNgy8dW201foQmsa+V7ZwfEfj0LRtF6CYBCFdC7Nn60ZeePEF3vvwYxo90d/LIoRBbUUpzz79M3657DWa/INrjIQwKCvdxzOPP8j9jz3J7iMnej9NGUKGoVNddow3XvsjL770KkdOVaBHvccJfO4m3nv9ZR766S84cOzkoLY/4G3hL2++xL33fYMPN24hpHcENUML8sqvf8693/w2v3v9z/QrdAqBq+IIL/7Hk9x5732UnjgZuUb/CUFbQxkvvfBv3PmPX+M7DzxGRUt0j3cQQrDqg/d59umf8h+/+wM19cOXcy8qQtBYsY+nf/EIt331azT5Bhu8ByfgdbNu1Yd8unkrvuDgjre/d3pQo/yDA6z7xWcc+bgcTRO0nXKx47db2PjLnbS36yRkJxKXbAUhMIyOZShO3i8UMQlCPp+Hd99axuZNG/nZoz/llbc/JBRlnYYCPratfpcte/dx4OBRgtrgzvyFYaDrZvKys0mL0wkEg/1pXgcl5G/ls8/X8t4nn/Lab37JT/7991TWRnc2bmgae7ZvZ/2nH3Kq8gTNbnfkKgMS9PsZlZ9PanoGXp/vdF1o7WHaNCdTcmw0tbjpT6eXADwtXmZOKyAx0UwoFIpcZUA0LcyEGVdwx+KFbF+9nHdXH0b87VKt3xRFYdrs+fzDwmuIU7UL7j4bIaCxysVtX56Np7URTQxuHx+MQGsd77/+nzzw4IOsXPcZvrAMQoMhDIEe0NCCYdylLrxNAep21YHNRMgTRDfAc7QFb22AyvXH2PyrLWz+t40c+uAU7V1XThe5mAQhZ2Iqjy95mScfe4hJY7Np8/oxoozsVkcCNyz+Fl+65gqMITg4VZOZscUlzLnyciznqXZs8ancfse3eH3Zi8yfNQNvswctHF1DqJrNXLngBr71jTvJTBj8rKSkjFwmT5tJZkr3GXPWBCf/9E9fJ87cn/DTQVEUxk29nMnTpmO39JzlNiCKQkr2eObNvZ6rpk/EYXNQMCqFfkXDXmRmpJGVnoo60DGk80BRFYrmXM+UorFYTOdpp+yD2Z7ItV/4Cl+5/RZMinFJnZHHjMmEc2QSFrOOa18NDRUBMsYkYXGYAYG3rhWf24+vvBl3TQB7mgPXgTrctdH3IF1IYrJHKwqEA252fr4RJT6D6+bNxq5Gd/ArioLZHF0Osr4YukE4rKFrBlo4jBj0uMrZKYqCYmgc2PkZVU1uvrzoJkZk9Zwa2z8KJpO5c1qsMpieuE4CXQuj6TpaOExYMzo/UhAKdow56brW7zEZw9AJhzUM3SAUDGJEceXSRRgG9dUnWPr8ixRd/VXmTeg57b1/BAGfj1aPFy0cormlFa2z2/FCIQyNYFjrGBtqbx+Csb7oWOxxpGblEme1DMG+JXWJy3SSkOHg1IelhBQTCVnxqF1tYmc9KxYLyeMzGXVFJvYE8yUzRhSTIBQOtrPq/f/l5Xc/Ye61NzN+ZHrUB72h6zTUVFBeVUtzYz1lldX4Q9FdRQAIQ6eu6iSfb9tGdU0NO3bspL6xdViPN0MLc3jPZl78/X+TNW4mc6eVYI32QkEIWptclJ44RVNTM8dPnKDNF/3kinZfK3t2bqeyqoZ9O3ewr7QKTTcwwkFWf7SC47XNVJedYP/h4+esIyEETTWn+HzDFpoaW1m/fj01zd7I1fpJ4G2q4jfPPcOhBgtfvn4WtY2ec25Db4SAXZ9v4s8rN9Ae8PLGm3+hzRvtdg0DIWiqOMonqz9HNww+fv/P1LQEY3IVYuhhPK1NtLo9tHk8uD3emAXES4OCalKwJDpIzk8i7A2SMCKRuDQHqllFAVSzCUVVUUwqqtoxQ1Y1q1GecF14YhKEAn4vqz/6AHN8Gk1Vh9m8dRdt7f07k46kh4Mc2bOV0vJGbEY7n2/dSbO3Z1qcfhOC1sYGGlpDjB0zgYCnDY/XP6xnfeFAG7u3bqWszgeahzWfrqUp2kF2Q6e89DAbt+xFMUxs37KN+oaWqDc/HPBTUVZJwbgJ2IwgNQ2tGEbH2NOhA0cZUXg543MyqKp29aOOBJ7GRk6cbGbGjNnU19fT4o0u8agQAo+rHBVBViJ8vOJd3lu9M6orKwVIzxrBNTf/A/96//0smD8H6yBS3gw1IQStrhr27G/k1lv/gcP79uEORHe8DFbY72H/1o0cK6uhtvwEew8cISAnJ0RNMaskjc8gc0IqyePSGffFCYycnkV8ViJ5V2RjsZjIunwkqSMTSBqbRkZRMvb0BDKLM3AkXjj76GDEJAjZ4xJY/PXv8q27b2dSSQl5OVlR93WbrXZmXreIp5/5N55/dgl3f/laMpN6pu3pL8VkpmjaLH7y83/n2aVLeeLRBxg/OpfhPOkwWR1cMe8Gvv+9bzHvyhlMGFeAw9a/fHSRFNXE+InT+MHDT/Dcc8/x6EM/IC87I9qhEpzpuXz1G9/l2aVLefbZpdw2fwo2i4rZHs9jzyzh2aXP8m9P/4wv3nDVOetIUVTGTLmC+x/5GUuXLmXJvz/DxPy0yNX6RVFUMsZM4//88CmefOJJHnn4Yb75D1dFN6ajKBROmsLXvv4N7rnnHr5+xyLi4nqmhooVRVUZO/NaHnn8KZYuXcrS556jJNcZkzNh1WwlI3cMt33lTu5cvJixuVmYzdEduxKYbGayZuWTPzMLZ04ShbdMIHNCMnFZyZQsGofVbmbMLSXkTUwlc/ooxszJISEvhfyrRuLM6Hlf3MUoJnuP1eZgwc23sXjxYhYvvp0rp08mwR7dILqiqiSlZjJ27FjGjh3LiIxUrKbBHZyqasJms2G327HZes+VNpTMNgdFUy7n9sW3s3jxYr608FqSkwaeOgc6GtQ4ZyL5BWMYO3YsBfkjsUcZ0Ogac7NYsdvt2G02zF0nC4qC1WY//Xpv6XR6o5pMWE/XrS26oNHJ6nCSnZd/+rfPy0o5ZyDsYhhGt6XbfVpCICLKz1wvFlTVfLre7HY7UQ6hDprF4aR4xlWnj93pkwqxW6I7dqUOiklFNSmgKKimzm62zi63rj9VU0e3nWrq7I7rWu8SMLyta4QeB/o5lt4IIXpvNPqx9CZynYEsgxH5Wf1dIkWWD2SJFAwGqa2tpaqqasBLXV0dPp+v2+d6Oh8lEc1SX1/f6zOCIr/DuRYjYrxCCMH69ev54IMPBrx8+OGH7N+/v9ftGipCCLxeL9XV1T3qpD+Ly+W64KaYS9LZDHsC09dee43LL7+c/Pz8yFXOye/3s27dOoqKipg7dy5Lly7FbDZHlThS0zROnTrFrFmzTicwraqqYuTIkd0azv6qrq7GZDLx/PPP9zsZZjAY5LbbbmPBggUUFBQM+EzGMAw2b96M1Wrl/vvv595770VV1ag+C+DUqVOMHz+eH/3oR+zbt48f/vCHJCcnR3Xlp+s6Ho+Hp556ikWLFnHvvffy+eefM2LEiMhV+8Xv95Oens7SpUvJz89n/PjxLF68OKrvuWfPHubPn8+DDz7I008/DZ0PxYuG1+tl3rx53HLLLSQmJkYWD4phGNx5551s3LixRyLW/vL5fCQkJPD+++8PKoHpK6+8woMPPsj06dMji8/J7Xbz6quv0tbWxqOPPioTmEpnNaxBaOvWrfzhD3+gvr6+20F/5tleQUFBr49eoHM9i8XC7bffztVXX8369etxuVxRNUR0di1NmTKFOXPmsHbtWg4fPhz1ZxmGQV5eHjfddBPJycmRxb0KhUI8/PDDlJaW9mgEw+EwdXV1OByOswbZYDDIddddx3333cfKlSupq6vr8Vn9ZRgGRUVFXH311ZhMJhoaGnpcOdCZgfzZZ5/lyiuv5Prrrz9dZyKs01bbhmK3kZDhQFUVMjIySEhIoL6+ftBPdbXZbKSnpyOE4De/+U2vwXHHjh2cOnWK66+/vs9G1zAMpk2bxpVXXkkwGOz1+VYDERcXh8Ph6HV7BqvrijLa/RLAarWSk5MT9fZ9+umnPPHEEzQ0NPR5bJ5NV9fl3XffzUMPPSSDkHRWwxaE6NwZe3vSqRCCbdu28atf/YolS5YwcuTIPg86RVEwmUyYTKb+9cl35vrr4+NQVRVVVU8fKGcloL3Jj6GacCTbUCKO6a5tG4hQKNTrv+tyufjjH//IhAkTuO222yKLuzGZTJjN5v7VBx3fo6+ZCV31cTZ+v59HHnmEBQsWcOutt6KqKkLT2fu7TZzY3UzegkKuuLv3B/8Nlb4Cx8svv8yGDRtOP3eoL/35nl067gtTUGI18BJjXq8Xl8vV5wMOu+lj31JVldTUVDIyMoZ1v5Aufv07KqOkqio2qxWLyYLN+rdBVbvdfvrhaFarFYfD0a3szMVms2E2m083+GZzx42YXYtiKB1/N5nQfWGqN1VQu7cRQ+vIBBy5dDVEqqr2LBMK/hovRljBJMC1vYKNT65j1/JTaCHRY/2BBiA6z1JtZisWU+dg/xnfs6s+IusgcrFYOm7O7VEfJjMmVFQ6Xld0cB9rpHTlSUT47PUxUEI3cORnkj8xkWgSVRiajr/eQ9Mpd79uujOpKnq7DqL776aqHQO0Peqiv9/TEBhhvWMbBIS9QcpWn6R0t6ezhb2wCE3HX+uh6URr1FlGziUhIYExY8ZQUlLSbSkuKmbC+KKOvxcWMdI5AvNxhdzU0RQXd1+3qKiIzMxMGYCkc+rjyBwahqbjrXFz/INjNFb6+9XYDIQRCnPyo+O0Bw00f4iaz8vY96d9VO1xEQ4NrGU0wjq+Wg/7/riD2pNewkEN+4hE0sclYXOYejvZi0qorZ2az8soXVfRv6uYAdBDGk0H66jZ24QwDJr2VnLk/YMc/H/H0KK8D+tMhq7TVtNGa7kbYbYw5ppRqP1sqA1Np73ZT9CrgRA0H6xh639uZuOLu4FzDKQLg6YjdWz42XqObGsZ0nprb/BS+9kp/C0hhNA4/N5hDry5n9Ldg8u5N1SMsIa/KUC4vaOOmvZV8NmS9Xz24k50fejq4VyEEPgqmihbX42hC7zlDZSuOMS+tw7gqY/+ZmhJGtYgFGr2UrHhJAffPUhztZ9eeqGi1t7kpfl4E6V/PUL9yVYCXo3smXnkTssa+PRVIfCcqOPU+nI8dX5qtlbSVO4juSCFuFTbkAUgoRs07Kzk6IrDHF9f2c/mu3+MsEZzaRNVm8s5tbECT50fx8gMJizMJy55KO4nUND87Rx85wA7/7ATb0AQDmjoeseVhH6WXHdC0/FWtnDof/ZSuq6GcLtGOKSQPyMJk1XpvT+HzgsR0ZFR4vinNQRcbUOXtFEINLcX1746Tq46TvWhBto9IUbfUsyIwqS/pUyJISOs4y1vYO/rB6jZ14gW1mlv1ZhwXSYM4bHUH61lLdTvrqL0kxO0VHogLp7xC8eQmu/s69eTpH4Z8iAkDEHYGyLkC4PVSs7MHJJyE/oco4mKYdC0v5pjK08QaAtSvuoEruNurAlWzNbovpIR1Ai1hTryxvmCaO1h9KCGHjYwQhrhgBbdlZwQ6O0aQW8IXTNIKhpB/mWpmIY4O6rua+fYR8epP9JM6/EGyrfVYVismB0d9whFs+ndCSwJcUz/5gyu+tFcEqw6FetO4mkI4qtx01Da2nv9GAYBl5vja8ppKnPTsK+ahhNu0i/LISHN3mcDpgeCeKpaaT7VghAmpn9zCjZLX2tHwTDwn6zh1KZKWmsDVK07ScspD/HJ1gvj5kvDwFPezMkNlbSWt1C9pZzGci/Z88YSHz/wbuDBEZxcWUrFDhf+eg8n11cSaFewJto6j2vR+28vSf0w5EdbsM3P0ff2c2hFKV63hj3FgWmoD2pFIbEgnbyZOdjirGTNyCElNx5/ow9/SzvtzX489QF0rZ9HhqKQMmUUk742kZFX5FC0qJicianUbaui7mAzTQdqOLGxGj2Kx0To7SFqt1ew73/34zruxp6egHmIAxCAyW4lb1YOKaOcJOQmk1WcihIK4qluQ2sP0XyyBa2/9dEHRVGwJlixJdpQEChmE1lXjCZnUjqIviaDKHDGfUlCdDVYSp8BCCDs9lG3u4ryTZUEA/rQ15mqYstOY8SkDBLSbGRMzcGZHU9bdRt+dxCtxUPDqehSJw2prp9MdJzQ9FHJw0whZ2YumYXJ2FLiyZ6aic1q4KnyEPJreCrcf3sgmyQN0BAf2WAym0jITSRxRDwmVeB3+QgHNPwuL+3eIXryqaLgHJVG7hW5FCwYQ96MbBIz7DQfbcLbGiTU7MN1zI02gHEhRVGwOu0U3FRIcroNxaRiT41j9I3jKbxhNMl58fQ1tn02iqpiS3GQNDIJW4KZ9iYvPncIPRDCU902NPUBqHYreVfkMWpuPqOvHkXm+GRC9S3U72/GbFEp31RJKNj/+jgX1Wph/KKJlNxWTPGthYwo6SP9jqoQl5NKya2F5F2eTf78sWQXp+L6/CTH1tfTXudm1yt7iLy/0uyMI6NkBLkzcrBY4OSaMgK+MK2H66grHYLgoCjYstIYOXsko+ePZtSVeSRkxFG7qwZ/EMxNDZzc6hqy32fAVJWkselM+MI4cmfkMubG8WSNTaJ2zSEOr20g1NTGkeWHBn1i0V8jpucwck4+BdeMJntSOmooQO0uF0I14dpXQ1tTIHZ1JV3UTE888cQTkS8OhslqJrkgleT8JIw2H2Xrymmu9BJo8hOXn0pSZsf4RFVVFZs3bx7QfTbdKB3pLhLzk7HHW1BMCuY4K6mF6YyYmkVqQRKOROuA+vYVk4ot2Y7J0pGxNj7TSer4NNIK00jJc0Y1ZVcxmzo+Z1wqDqeV6rWlVO1tJNQWJuAOkzMjG1XpuMlwx44dZGZmUlJSEvkx/aKYVBxp8ThHxGO2qqhWMwk5yWRPyyZtXCoJGfEd6UEGKBwOs3r1agoKCigqKjo940lRO6YxK52ZffukKJgsJuJHOEnMScBqN6EFQlhTEhkxKRNHehwpBcndTvJVqxlHahzxGXGoCtTvdeHITCA+1YY9PYGkzI7cbrt27aK8vJwFCxb0eZ9QnxQwOSwk5CZ37CsmBUuchYySTHKmZJA6Opn4lIHfJzNUFEXBZDMTPyIBZ2Y8ZpsJzRfCkp5C9mWZJGQm4MxNHNA+Hi1FUTAn2EkemYjFYUY1m3CkJZA1NZuM4nQSs51YbOe7m1C6FAzrfUJ6MIy/KYAW7DjNdWQkYE+wIIRgy5YtPPfcczz//POMHj068q2XJiHwN3o7ui4EKBYzSblOFAXq6+v5r//6LyZOnMjixYsj3xlTvd0nNFhCN7qdOatn67IVgoC7854VRcFss2CxdzR4L730EuvXr+fJJ5/sd+aKi9mA6k2SLgLDugebbBacOYmkFKSQUpCCPeHSSD0eNUUhLsNJyuiO+kjO6whAf48Uk9qRmLFzOStFwZHs6FiS7KcD0N+jAdWbJF0E5F4sSZIkxYwMQpIkSVLMyCAk9YvJZELX9SHNViBJkiSDkHROFouFtLQ02tra+pfUUpIkqZ9kEJLOSVEUnE4n7e3thMPhyGJJkqSoySAkSZIkxYwMQpIkSVLMyCAkSZIkxYwMQpIkSVLMyCAkSZIkxYwMQpIkSVLMyCAkSZIkxYwMQpIkSVLMxCwIyfQv0mB1PKVV7keSdDE770FICIFhGITDYYQQf/f5yLrqQ9O0bn/+PdfJuQgh0DSNpqYmGhsb8Xg8+Hw+gsGgrDdJusgM+ZNV+yKEwO/3s2PHDtavX8/y5cs5dOgQuq4TDAaJi4vD4XAMyQPTLgZdAbi8vJwPPviANWvWsH79eurr6/H5fDgcDhITEzGZYv/sHMMw2L59OyaTiUmTJuFwdDzVNBbC4TBHjx7l7bffZsWKFezfv5+mpiaqqqrYuXMniYmJpKenXxD1JknSuQ3rk1W7CCE4ePAgr7/+OtXV1YwePZqMjAwMw6C9vZ3y8nIArrvuOhYuXEhCQkLkR1xShBC0trby/vvvs2bNGhISEhg9ejQ2m41wOIzL5aK2tpbJkydzzz33kJWVdfbHZw8zTdN48cUXaW1tpbCwkNmzZzNq1ChUVT2v2xUMBnnjjTdYuXIlmZmZTJ06lezsbMxmM9XV1Rw9epTa2lpGjRrFd7/7XXJycs7r9kmSNHDDHoQMw2DVqlW89tprTJ06lXnz5pGXl0dqaipCCAKBALW1tWzfvp2VK1fyhS98gbvuugur1Rr5UZcEIQRut5sHHniAuLg4br75ZgoLC0lNTcVutxMOh2ltbeXQoUP89a9/paKigj/+8Y+MGDEi8qOGnRCCxsZG3n33XV577TXa2tqwWCxkZWWRmZnJ1772NW644QYsFsuwN/aapvG73/2OVatW8d3vfpeSkhKysrKw2WwoikJ7eztut5vKykpWrlzJ8ePHWbp0KVlZWZEfJUnSBWRYg5AQgg0bNvCb3/yGxYsXc+ONN5KYmNijy60rGO3Zs4fHH3+cu+++m2984xvD3rDFgtvt5sEHH8Rms/H444+TmpqK2Wzu8V3D4TAtLS388pe/5MSJEyxbtoykpKQe6w2XcDjMtm3beOGFFwgEAixcuJArr7ySxMREmpqaWLduHe+88w6TJk3i4YcfZsKECcO2bUIIPv30Ux599FFefvllJkyYgMXS+6PihRDU1dXxwgsv4Pf7Wbp06SV7QiNJlwQxjOrq6sT3vvc98etf/1q43e7I4h40TRMfffSRmDx5sigrKxOGYUSuclHTdV289NJLYv78+aKhoSGyuFdtbW3i1ltvFc8884zQNC2yeFhomiY2bNggrrnmGvHWW28Jj8cjNE07/XsYhiHC4bCoqKgQP/rRj8SXvvQlcfTo0WH5vQzDEC0tLSInJ0e88847Qtf1yFV6MAxD7N27VyxcuFAsW7YssliSpAvIsM0C0DSNDz/8EE3TuO6663A6nZGr9GAymbjxxhtZuHAhjz32GJqmRa5y0RJCUF5eznvvvcfPf/5zUlJSIlfpVXx8PD/+8Y/56KOPOHDgQGTxsDh8+DA//OEPeeihh1i8eDFOpxOTyXT6SkdRFMxmMyNHjuTRRx9lwYIFvPDCC9TX1w/57DRd13nqqaeYMmUKixYt6nEV3RtFUSgqKuKrX/0qn332GS6XK3IVSZIuEOc+oqPkcrk4cOAAU6ZMYcyYMb121YjO6clnNluqqvLtb3+bzZs3s3///iFv1GJF13XeeustsrOzGT9+fO+zt4TAMHSMM76zoigUFhYyb9483n777W6rD4f29nYee+wxFixYwM0333zORj8pKYkvfvGL+Hw+/ud//odgMBi5yqD4fD7Wrl3L73//e8xmc2QxAKH2AJ42L4ZhnH7NYrFQUlJCe3s7mzZtumT2I0m61Jy9hRmEuro6NE2juLgYm80WWUyo3c+xg/vYun0XLd5At7LRo0dz2WWXsXnz5kum8fD5fBw7doxZs2aRlJQUWYyhh6mrLmfDhg1U1Najn/G14+PjmTVrFtXV1YRCoTPfNqSEEKxZs4bKykoee+yxcwYgOoPkuHHjuOmmmzhw4ABHjhyJXCVqQgiqq6sxm82kpqZGFoMQNLtq+GTFcn776pu0+XynixRFobi4mIkTJ3L8+PFuAUqSpAvHuVuZKDU3N2O32xk1alRkEcLQqa04yst/eJGl//kipTXN3crNZjOLFi3iwIED6Lrerexi1draiqZpTJgwodeg7GmsZd0Hb/Ljn/yYT7ftIWz8LQqZTCby8vKgs6tsuAJzMBhkyZIl3HHHHX1Mkxfo4RAuVz3aGZtgMpmYO3cudrudY8eODdn2CSHYt28f06dP7/UqSAiDI/v3sHLFm7z69l/wBfzdyp1OJ+np6fh8PvlYckm6QA1rEAqFQqSmpvbaFWe1xTFq7FgS7b10SwHFxcVUVlZeEmewonOqs9lsJj4+vo8rDJXc7BFkZaT0aMQVRSEpKQmTycShQ4e6lQ2ltrY2ysrKuOOOO3r9zQKeBlYsf4NfPLOExlD33yUrK4tRo0bR0NCA74wrksEQQrB7924uu+yy3utMUSkonsaXF8wkzdnzBtqu79CVhUKSpAtPL0f20OhKPdNb46GoJkaMGsvk4vGYexZfknRdR1GUXusDIDkzl6LJ00hJiKNn839+VFdXEx8f3/vVqxC4Th6k4tRh3nr7XTya4MxYaTabGTduHMePH6e2tvbMtw4bRVEYkT2CJGcCdBtZlCTpYtF7izgELBYLqqr22Q2i6xqhUPh02p4zu91EZ0qbvhrsi5HNZjv9vXpjGDqhUBBNN07/2b284/9765YaCkIImpub+0ydpCgKqSOLuPHa+cTZrUReKCmKQmJiIm63G7+/e7dYtBRFYdKkSRw4cKD3KxkhaKyvoaymnoDPw7Fjx9HPiIyiM8Hp+c7sIElS//VsbYZIZmYmNpsNl8vVo3vJ0ELs2bCSJUt+ybq16/jdb3/PgeOVp8sVRWHTpk2UlJT0PovsIqMoCllZWYTDYTweTy8NqqDm2C6W/Wop6z7byrJfv8DmvScId85O6OrOC4fDzJkzJ+K9548zLZvkpETU89SgK4rCtGnT2L59e6/T9Q1hsGXtJ/x13X7iCPGHV94kfEaMb2tro7m5mYSEBHnDqiRdoIYtCKWmptLa2sqxY8cii1BMZsZPnc2S/3iRt99+mx9//1uMyftbepVgMMif/vSnvscCLkJOpxOn08nmzZvxer0RpQrpowq55wc/5Z13l/P7Xz/LjMJcTGpHYx8OhykrK8NisZCdnT1sZ/Xp6en4/f5egmRHIAz5PTQ2NaFpGq7aWkIRV2vBYBCbzdZnNoOBUhSF/Px8QqEQzc3dJ690lKtce8tifvnbV1n+ztv8askTWE0ddSM68xXu3buXwsLCS2Y/kqRLzbAdmTk5OaSmpnLo0CE8Hk+3MkVRSUrLYtqMy5k5cyYTi8bhjP/bwPKOHTvwer3MnTt32Brc8y0uLo65c+eyf/9+WltbI4uxxyczZsIUZs6cyeXTp5GWFE9nDMLj8bBixQqmTZs2bI2poijk5uaepTtNsPevL3Lvt3+Ax9PKbfPmcrCuHaNzFp+maWzfvp05c+ZQVFQU+eaoddXbfffd1+NqSFEU4hOcZGRmkpmZSUZ62uk6C4fDHD58GKfTydVXX33J7EeSdKkZnhat8ybG2bNnc/jwYXbv3t3rWIiiKKeXLi0tLTz77LPcc8895OXlXTKNh6Io3Hzzzei6ztq1a3u9qbO3+tB1nTVr1lBdXc2iRYu6rT/U4uPjmThxIj/72c96XA0pisrlX32UrftP0NjYSE3lKablOlBVBSEEDQ0NuN1u7Hb7kP5mJpOJpUuXUl9fz5o1a3rdjyIJISgtLWXVqlXMmjWLtLS0yFUkSbpADFsQUlWV+fPnU1JSwscff0xFRUWPhi2S2+1m2bJlCCH4/ve/P6SN2YUgJSWF+++/n1dffZVt27adsz4Mw+DgwYO89NJL/Ou//is5OTmRqwwpm83GD37wA1avXt1rqhulc3afyWTCdMZgfzgc5pNPPqG5uZlx48YN+e8WFxfHc889x1NPPcXu3bvPecNudXU1f/rTn8jLy+O+++6LLJYk6QIyrA+1s9ls5OXlsXHjRo4ePYrT6SQ5ObnHDC/DMCgvL2f58uVs2rSJxx57jLFjxw55YxZrSmeXVzAY5PXXXyc9PZ24uDji4uK6fVfRmVV88+bNLFmyhPnz53PfffcNW1dcF0VRGDNmzOkgNGPGjHOO7wghOHHiBH/+85+54ooruPHGG4d8MomiKBQUFBAIBHjllVcwm804HA6cTufpOhFC4HK5OHToEG+88QZNTU088sgj/c7RJ0kxIQRhb5B2dwhFVTFZVDAMAs0BQn4Ni71nhv1LzbAGIYDk5GSKiorYsmULa9eupbKyEqvViq7reDweqqurWbduHcuXL6e8vJx/+Zd/YebMmZdsxZtMJqZOnUowGGT58uUcPXoUv9+P2WzG5/PR0tLCzp07WbVqFX/5y1+YPXs2//zP/3zeZnd1PT311VdfxeFwUFBQ0OujJug8eaitreXNN9/EMAzuuuuu3tPrDAFFUZg6dSqaprFixQp2795NW1sbLpeLkydPcvDgQd599122bt1KYmLi6SvH3rZbki4URkijbtMpjq6uwDCZScxNINjg5tiHpVTvayFzcjomFQzN6LgVTgHRldPL6LhXT+kaCL1IDevzhM5UW1vL+vXr+fzzz09n1BZCoCgKwWCQkSNHcu211571WTGXkmAwyNatW/nss8+oqakhOTm5W1l8fDxz5szhhhtuOO8NaTgc5sMPP2TFihVMnDiRq666iuLi4m6P9fZ6vZSWlvLWW28RDAa55557mD59+rBvaygU4uDBg2zatIn6+vpuZRaLhWuuuYarrrpq2K8aJWkoaL4gx17fwYENLnJm5jH161No3n6cE59V01IvuOn5a3Dvq6SxzIc9LYHMojT8tW5UpwPd48ealUx6QRJq56zQi9F5C0KiM2N2fX09FRUVNDc3Y2gGDquDUWPzyc3NxuHo3i11qRNC0NbWxsmTJ2loaCAcDGGEDLJH5lIwtoDk5KSYNaaBQICtW7eyevVqysrKKC4upqSkBKvVevpqRAjBuHHjuOWWWyguLj5v2yqEIBQK0djQiMfjxlfXRjigMmHWWFLSUv6u9iHp4qb5gpS+tZuyIz6SMm3kzM2ncWc1pniVyt1tXPvzuVR9fBRvaxhPVRtZV4zC3O6l4UQrQb9gwuJJ5ExMQ72Ir4bOWxA6kzAEgQYPxz8qpd0wM/6LE0jJ6pn76++FEAItEKR2awXlW+oY/cUiciZlYjo/bXqfNE2jvr6eXbt2cfDgQdxu9+l0TGPHjmXq1KkUFhaSkhKbhl8YgvrtFZRtKsftMzPvB9NxJNojV5OkC1ZHENpDQ6uCMxFaa9pQ4+MZOTmRIyvrufqnV3Dk1Z1421WCjW2kzRxDfqGdfa/vI+hIZc4/X0ZKTnzkx15UYtPMCUGwxUfQp9He4EMLn32W2KVOURRCjX5CTV4CrQECnlC3vGyxYjabyc3NZeHChXznO9/h+9//Pt/75ne4e+Hd3HnX3cyaNavPBLXDqjMdD4At3Ul6nh3NH0KckXlcki4aCliSHCTlOfEcb8GanEB8qgMU0Hw+anY2kDQmGbNJRWga7goPqtmM5vHhawoiLvLm87wGIWF0PsROUUgal0ne5Vl09OCc50bsAmIYBoZh4MhNInvWSOKSz88EhIGwWCwkJyeTGISKt8s4/LsjGKojNr+bEARbvNTvq8dd68WZn0JidvxFPzgr/X1SVJW4jAQSc5ykjE8jd3Y+OVMyiE+PI3lUErZEJ2OvzaXpgAvHyCRUXSPgMyi4ZSIF09PwunzoEZlLLjbnrTtOCMHR/97GoXU1JE4ezbX/dyquXRUc/7SaCXdcRsaoi/uSMhrBJjerf/gpphFJTPz6DNKTdXa9tpeMq8YzZnYe5qGd6Rydzr1DCEHbkVqCwXbWP7eL61+6jSS72iOR6XATWpi6LcfZ8tJR8m8YT/HiEjxbD7FzZSPzH5xJfFpc5Fsk6YLW1QQrdNz4rSgKgo6Zb6qiIETH06eVrpM+pes/na+e52NwqJ3HIATtTV7a28KY4qw44lQqNp6ifJuLMV+eRG5JCpY+ni10qTI0HU+lB8Viwua04CtvYN87R0idNprxN47BEW+O8Q4mCHmC+Br9mOJsxKU6CNU38NGjG7nuD7EJQtAxNdUQAgVo3F9L2afHqD7mJ/+qUUz5x8kM8W1KkiQNo/PWHaco4EhPIKUgBWe6g5ajdZxcV0XYF6bys3I89b3lK7u0qWYTyQUpJOUlojV7KVt7imC7Qt3WCporvLEfFxKC5sMudv52O4dWltHWFEALaGBA2BvDvmhVQTV1ZGzQghrmRCe500Zg6CI2QVGSpKidtyuhSEZYI+TXQIBiNmFxmC/que6DJTSdcLuGoQlQFCzxFkwXwBP/9JBO2B9GtZgI1TVRvrmSIx9XkP+FCRR/uZj4hNhedggh/vY8O6VjkockSRePmAUh6SIjwHuijqp9zYTDBsKAcV8uIS4+9oFSkqSLlwxCUv+J7o/0ljPSJEkaLBmEJEmSpJiRfSmSJElSzMggJEmSJMWMDEKSJElSzMggJEmSJMWMDEKSJElSzMggJEmSJMWMDEKSJElSzMggJEmSJMWMDEKSJElSzMggJEmSJMWMDEKSJElSzMggJEmSJMWMDEKSJElSzMggJEmSJMWMDEKSJElSzMggJEmSJMWMDEKSJElSzMggJEmSJMWMDEKSJElSzMggJEmSJMWMDEKSJElSzPx/wr8k8/xAOqQAAAAASUVORK5CYII=;" parent="1" vertex="1">
          <mxGeometry x="51.5" y="-320" width="417" height="262" as="geometry" />
        </mxCell>
        <mxCell id="RdxLe-xRa2sQG5XOvE3Y-19" value="" style="endArrow=none;html=1;rounded=0;" parent="1" source="RdxLe-xRa2sQG5XOvE3Y-3" target="RdxLe-xRa2sQG5XOvE3Y-14" edge="1">
          <mxGeometry width="50" height="50" relative="1" as="geometry">
            <mxPoint x="-530" y="200" as="sourcePoint" />
            <mxPoint x="-480" y="150" as="targetPoint" />
          </mxGeometry>
        </mxCell>
        <mxCell id="RdxLe-xRa2sQG5XOvE3Y-20" value="" style="endArrow=none;html=1;rounded=0;" parent="1" source="RdxLe-xRa2sQG5XOvE3Y-3" target="RdxLe-xRa2sQG5XOvE3Y-15" edge="1">
          <mxGeometry width="50" height="50" relative="1" as="geometry">
            <mxPoint x="-530" y="200" as="sourcePoint" />
            <mxPoint x="-480" y="150" as="targetPoint" />
          </mxGeometry>
        </mxCell>
        <mxCell id="RdxLe-xRa2sQG5XOvE3Y-21" value="" style="endArrow=none;html=1;rounded=0;" parent="1" source="RdxLe-xRa2sQG5XOvE3Y-3" target="RdxLe-xRa2sQG5XOvE3Y-16" edge="1">
          <mxGeometry width="50" height="50" relative="1" as="geometry">
            <mxPoint x="-530" y="200" as="sourcePoint" />
            <mxPoint x="-480" y="150" as="targetPoint" />
          </mxGeometry>
        </mxCell>
        <mxCell id="RdxLe-xRa2sQG5XOvE3Y-22" value="" style="endArrow=none;html=1;rounded=0;" parent="1" source="RdxLe-xRa2sQG5XOvE3Y-3" target="RdxLe-xRa2sQG5XOvE3Y-17" edge="1">
          <mxGeometry width="50" height="50" relative="1" as="geometry">
            <mxPoint x="-370" y="200" as="sourcePoint" />
            <mxPoint x="-320" y="150" as="targetPoint" />
          </mxGeometry>
        </mxCell>
        <mxCell id="RdxLe-xRa2sQG5XOvE3Y-23" value="[0, 0]" style="rounded=0;whiteSpace=wrap;html=1;fillColor=#d80073;fontColor=#ffffff;strokeColor=#A50040;" parent="1" vertex="1">
          <mxGeometry x="-640" y="360" width="40" height="40" as="geometry" />
        </mxCell>
        <mxCell id="RdxLe-xRa2sQG5XOvE3Y-24" value="" style="endArrow=none;html=1;rounded=0;" parent="1" source="RdxLe-xRa2sQG5XOvE3Y-16" target="RdxLe-xRa2sQG5XOvE3Y-23" edge="1">
          <mxGeometry width="50" height="50" relative="1" as="geometry">
            <mxPoint x="-570" y="270" as="sourcePoint" />
            <mxPoint x="-620" y="390" as="targetPoint" />
          </mxGeometry>
        </mxCell>
        <mxCell id="RdxLe-xRa2sQG5XOvE3Y-26" value="[0, 1]" style="rounded=0;whiteSpace=wrap;html=1;" parent="1" vertex="1">
          <mxGeometry x="-800" y="360" width="40" height="40" as="geometry" />
        </mxCell>
        <mxCell id="RdxLe-xRa2sQG5XOvE3Y-27" value="[0, 0]" style="rounded=0;whiteSpace=wrap;html=1;fillColor=#d80073;fontColor=#ffffff;strokeColor=#A50040;opacity=20;" parent="1" vertex="1">
          <mxGeometry x="-720" y="360" width="40" height="40" as="geometry" />
        </mxCell>
        <mxCell id="RdxLe-xRa2sQG5XOvE3Y-28" value="" style="endArrow=none;html=1;rounded=0;" parent="1" source="RdxLe-xRa2sQG5XOvE3Y-15" target="RdxLe-xRa2sQG5XOvE3Y-26" edge="1">
          <mxGeometry width="50" height="50" relative="1" as="geometry">
            <mxPoint x="-680" y="320" as="sourcePoint" />
            <mxPoint x="-630" y="270" as="targetPoint" />
          </mxGeometry>
        </mxCell>
        <mxCell id="RdxLe-xRa2sQG5XOvE3Y-29" value="" style="endArrow=none;html=1;rounded=0;opacity=20;" parent="1" source="RdxLe-xRa2sQG5XOvE3Y-15" target="RdxLe-xRa2sQG5XOvE3Y-27" edge="1">
          <mxGeometry width="50" height="50" relative="1" as="geometry">
            <mxPoint x="-680" y="320" as="sourcePoint" />
            <mxPoint x="-630" y="270" as="targetPoint" />
          </mxGeometry>
        </mxCell>
        <mxCell id="RdxLe-xRa2sQG5XOvE3Y-30" value="[0, 0]" style="ellipse;whiteSpace=wrap;html=1;fillColor=#60a917;fontColor=#ffffff;strokeColor=#2D7600;" parent="1" vertex="1">
          <mxGeometry x="-800" y="440" width="40" height="40" as="geometry" />
        </mxCell>
        <mxCell id="RdxLe-xRa2sQG5XOvE3Y-31" value="" style="endArrow=none;html=1;rounded=0;" parent="1" source="RdxLe-xRa2sQG5XOvE3Y-26" target="RdxLe-xRa2sQG5XOvE3Y-30" edge="1">
          <mxGeometry width="50" height="50" relative="1" as="geometry">
            <mxPoint x="-790" y="320" as="sourcePoint" />
            <mxPoint x="-740" y="270" as="targetPoint" />
          </mxGeometry>
        </mxCell>
        <mxCell id="RdxLe-xRa2sQG5XOvE3Y-32" value="[0, 2]" style="rounded=0;whiteSpace=wrap;html=1;" parent="1" vertex="1">
          <mxGeometry x="-1120" y="361" width="40" height="40" as="geometry" />
        </mxCell>
        <mxCell id="RdxLe-xRa2sQG5XOvE3Y-33" value="[0, 1]" style="rounded=0;whiteSpace=wrap;html=1;fillColor=#60a917;fontColor=#ffffff;strokeColor=#2D7600;" parent="1" vertex="1">
          <mxGeometry x="-1000" y="361" width="40" height="40" as="geometry" />
        </mxCell>
        <mxCell id="RdxLe-xRa2sQG5XOvE3Y-34" value="[0, 0]" style="rounded=0;whiteSpace=wrap;html=1;fillColor=#d80073;fontColor=#ffffff;strokeColor=#A50040;" parent="1" vertex="1">
          <mxGeometry x="-920" y="361" width="40" height="40" as="geometry" />
        </mxCell>
        <mxCell id="RdxLe-xRa2sQG5XOvE3Y-35" value="" style="endArrow=none;html=1;rounded=0;" parent="1" source="RdxLe-xRa2sQG5XOvE3Y-32" target="RdxLe-xRa2sQG5XOvE3Y-14" edge="1">
          <mxGeometry width="50" height="50" relative="1" as="geometry">
            <mxPoint x="-1030" y="351" as="sourcePoint" />
            <mxPoint x="-980" y="301" as="targetPoint" />
          </mxGeometry>
        </mxCell>
        <mxCell id="RdxLe-xRa2sQG5XOvE3Y-36" value="" style="endArrow=none;html=1;rounded=0;" parent="1" source="RdxLe-xRa2sQG5XOvE3Y-33" target="RdxLe-xRa2sQG5XOvE3Y-14" edge="1">
          <mxGeometry width="50" height="50" relative="1" as="geometry">
            <mxPoint x="-1030" y="351" as="sourcePoint" />
            <mxPoint x="-980" y="301" as="targetPoint" />
          </mxGeometry>
        </mxCell>
        <mxCell id="RdxLe-xRa2sQG5XOvE3Y-37" value="" style="endArrow=none;html=1;rounded=0;" parent="1" source="RdxLe-xRa2sQG5XOvE3Y-14" target="RdxLe-xRa2sQG5XOvE3Y-34" edge="1">
          <mxGeometry width="50" height="50" relative="1" as="geometry">
            <mxPoint x="-1030" y="351" as="sourcePoint" />
            <mxPoint x="-980" y="301" as="targetPoint" />
          </mxGeometry>
        </mxCell>
        <mxCell id="RdxLe-xRa2sQG5XOvE3Y-40" value="[0, 1]" style="ellipse;whiteSpace=wrap;html=1;fillColor=#d80073;fontColor=#ffffff;strokeColor=#A50040;" parent="1" vertex="1">
          <mxGeometry x="-1160" y="441" width="40" height="40" as="geometry" />
        </mxCell>
        <mxCell id="RdxLe-xRa2sQG5XOvE3Y-41" value="[0, 0]" style="ellipse;whiteSpace=wrap;html=1;fillColor=#60a917;fontColor=#ffffff;strokeColor=#2D7600;" parent="1" vertex="1">
          <mxGeometry x="-1080" y="441" width="40" height="40" as="geometry" />
        </mxCell>
        <mxCell id="RdxLe-xRa2sQG5XOvE3Y-42" value="" style="endArrow=none;html=1;rounded=0;" parent="1" source="RdxLe-xRa2sQG5XOvE3Y-32" target="RdxLe-xRa2sQG5XOvE3Y-40" edge="1">
          <mxGeometry width="50" height="50" relative="1" as="geometry">
            <mxPoint x="-1140" y="361" as="sourcePoint" />
            <mxPoint x="-1000" y="311" as="targetPoint" />
          </mxGeometry>
        </mxCell>
        <mxCell id="RdxLe-xRa2sQG5XOvE3Y-43" value="" style="endArrow=none;html=1;rounded=0;" parent="1" source="RdxLe-xRa2sQG5XOvE3Y-32" target="RdxLe-xRa2sQG5XOvE3Y-41" edge="1">
          <mxGeometry width="50" height="50" relative="1" as="geometry">
            <mxPoint x="-1127" y="361" as="sourcePoint" />
            <mxPoint x="-920" y="311" as="targetPoint" />
          </mxGeometry>
        </mxCell>
        <mxCell id="RdxLe-xRa2sQG5XOvE3Y-47" value="[0, 3]" style="ellipse;whiteSpace=wrap;html=1;" parent="1" vertex="1">
          <mxGeometry x="-320" y="280" width="40" height="40" as="geometry" />
        </mxCell>
        <mxCell id="RdxLe-xRa2sQG5XOvE3Y-48" value="[1, 2]" style="ellipse;whiteSpace=wrap;html=1;" parent="1" vertex="1">
          <mxGeometry x="-40" y="280" width="40" height="40" as="geometry" />
        </mxCell>
        <mxCell id="RdxLe-xRa2sQG5XOvE3Y-49" value="[1, 1]" style="ellipse;whiteSpace=wrap;html=1;" parent="1" vertex="1">
          <mxGeometry x="200" y="280" width="40" height="40" as="geometry" />
        </mxCell>
        <mxCell id="RdxLe-xRa2sQG5XOvE3Y-50" value="[1, 0]" style="ellipse;whiteSpace=wrap;html=1;fillColor=#d80073;fontColor=#ffffff;strokeColor=#A50040;" parent="1" vertex="1">
          <mxGeometry x="320" y="280" width="40" height="40" as="geometry" />
        </mxCell>
        <mxCell id="RdxLe-xRa2sQG5XOvE3Y-51" value="" style="endArrow=none;html=1;rounded=0;" parent="1" source="RdxLe-xRa2sQG5XOvE3Y-47" target="RdxLe-xRa2sQG5XOvE3Y-5" edge="1">
          <mxGeometry width="50" height="50" relative="1" as="geometry">
            <mxPoint x="320" y="220" as="sourcePoint" />
            <mxPoint x="370" y="170" as="targetPoint" />
          </mxGeometry>
        </mxCell>
        <mxCell id="RdxLe-xRa2sQG5XOvE3Y-52" value="" style="endArrow=none;html=1;rounded=0;" parent="1" source="RdxLe-xRa2sQG5XOvE3Y-5" target="RdxLe-xRa2sQG5XOvE3Y-48" edge="1">
          <mxGeometry width="50" height="50" relative="1" as="geometry">
            <mxPoint x="320" y="220" as="sourcePoint" />
            <mxPoint x="370" y="170" as="targetPoint" />
          </mxGeometry>
        </mxCell>
        <mxCell id="RdxLe-xRa2sQG5XOvE3Y-53" value="" style="endArrow=none;html=1;rounded=0;" parent="1" source="RdxLe-xRa2sQG5XOvE3Y-5" target="RdxLe-xRa2sQG5XOvE3Y-49" edge="1">
          <mxGeometry width="50" height="50" relative="1" as="geometry">
            <mxPoint x="320" y="220" as="sourcePoint" />
            <mxPoint x="370" y="170" as="targetPoint" />
          </mxGeometry>
        </mxCell>
        <mxCell id="RdxLe-xRa2sQG5XOvE3Y-54" value="" style="endArrow=none;html=1;rounded=0;" parent="1" source="RdxLe-xRa2sQG5XOvE3Y-5" target="RdxLe-xRa2sQG5XOvE3Y-50" edge="1">
          <mxGeometry width="50" height="50" relative="1" as="geometry">
            <mxPoint x="320" y="220" as="sourcePoint" />
            <mxPoint x="370" y="170" as="targetPoint" />
          </mxGeometry>
        </mxCell>
        <mxCell id="RdxLe-xRa2sQG5XOvE3Y-62" value="[0, 2]" style="rounded=0;whiteSpace=wrap;html=1;" parent="1" vertex="1">
          <mxGeometry x="-440" y="360" width="40" height="40" as="geometry" />
        </mxCell>
        <mxCell id="RdxLe-xRa2sQG5XOvE3Y-63" value="[0, 1]" style="rounded=0;whiteSpace=wrap;html=1;fillColor=#60a917;fontColor=#ffffff;strokeColor=#2D7600;" parent="1" vertex="1">
          <mxGeometry x="-320" y="360" width="40" height="40" as="geometry" />
        </mxCell>
        <mxCell id="RdxLe-xRa2sQG5XOvE3Y-64" value="[0, 0]" style="rounded=0;whiteSpace=wrap;html=1;fillColor=#d80073;fontColor=#ffffff;strokeColor=#A50040;" parent="1" vertex="1">
          <mxGeometry x="-240" y="360" width="40" height="40" as="geometry" />
        </mxCell>
        <mxCell id="RdxLe-xRa2sQG5XOvE3Y-65" value="" style="endArrow=none;html=1;rounded=0;" parent="1" source="RdxLe-xRa2sQG5XOvE3Y-62" target="RdxLe-xRa2sQG5XOvE3Y-47" edge="1">
          <mxGeometry width="50" height="50" relative="1" as="geometry">
            <mxPoint x="-350" y="350" as="sourcePoint" />
            <mxPoint x="-278" y="309" as="targetPoint" />
          </mxGeometry>
        </mxCell>
        <mxCell id="RdxLe-xRa2sQG5XOvE3Y-66" value="" style="endArrow=none;html=1;rounded=0;" parent="1" source="RdxLe-xRa2sQG5XOvE3Y-63" target="RdxLe-xRa2sQG5XOvE3Y-47" edge="1">
          <mxGeometry width="50" height="50" relative="1" as="geometry">
            <mxPoint x="-350" y="350" as="sourcePoint" />
            <mxPoint x="-269" y="318" as="targetPoint" />
          </mxGeometry>
        </mxCell>
        <mxCell id="RdxLe-xRa2sQG5XOvE3Y-67" value="" style="endArrow=none;html=1;rounded=0;" parent="1" source="RdxLe-xRa2sQG5XOvE3Y-47" target="RdxLe-xRa2sQG5XOvE3Y-64" edge="1">
          <mxGeometry width="50" height="50" relative="1" as="geometry">
            <mxPoint x="-11" y="318" as="sourcePoint" />
            <mxPoint x="-60" y="300" as="targetPoint" />
          </mxGeometry>
        </mxCell>
        <mxCell id="RdxLe-xRa2sQG5XOvE3Y-70" value="[0, 1]" style="ellipse;whiteSpace=wrap;html=1;fillColor=#d80073;fontColor=#ffffff;strokeColor=#A50040;" parent="1" vertex="1">
          <mxGeometry x="-480" y="440" width="40" height="40" as="geometry" />
        </mxCell>
        <mxCell id="RdxLe-xRa2sQG5XOvE3Y-71" value="[0, 0]" style="ellipse;whiteSpace=wrap;html=1;fillColor=#60a917;fontColor=#ffffff;strokeColor=#2D7600;opacity=20;" parent="1" vertex="1">
          <mxGeometry x="-400" y="440" width="40" height="40" as="geometry" />
        </mxCell>
        <mxCell id="RdxLe-xRa2sQG5XOvE3Y-72" value="" style="endArrow=none;html=1;rounded=0;" parent="1" source="RdxLe-xRa2sQG5XOvE3Y-62" target="RdxLe-xRa2sQG5XOvE3Y-70" edge="1">
          <mxGeometry width="50" height="50" relative="1" as="geometry">
            <mxPoint x="-460" y="360" as="sourcePoint" />
            <mxPoint x="-320" y="310" as="targetPoint" />
          </mxGeometry>
        </mxCell>
        <mxCell id="RdxLe-xRa2sQG5XOvE3Y-73" value="" style="endArrow=none;html=1;rounded=0;opacity=20;" parent="1" source="RdxLe-xRa2sQG5XOvE3Y-62" target="RdxLe-xRa2sQG5XOvE3Y-71" edge="1">
          <mxGeometry width="50" height="50" relative="1" as="geometry">
            <mxPoint x="-447" y="360" as="sourcePoint" />
            <mxPoint x="-240" y="310" as="targetPoint" />
          </mxGeometry>
        </mxCell>
        <mxCell id="RdxLe-xRa2sQG5XOvE3Y-76" value="[0, 2]" style="rounded=0;whiteSpace=wrap;html=1;" parent="1" vertex="1">
          <mxGeometry x="-120" y="360" width="40" height="40" as="geometry" />
        </mxCell>
        <mxCell id="RdxLe-xRa2sQG5XOvE3Y-77" value="" style="endArrow=none;html=1;rounded=0;" parent="1" source="RdxLe-xRa2sQG5XOvE3Y-76" target="RdxLe-xRa2sQG5XOvE3Y-48" edge="1">
          <mxGeometry width="50" height="50" relative="1" as="geometry">
            <mxPoint x="-30" y="350" as="sourcePoint" />
            <mxPoint x="3" y="311" as="targetPoint" />
          </mxGeometry>
        </mxCell>
        <mxCell id="RdxLe-xRa2sQG5XOvE3Y-78" value="[0, 1]" style="ellipse;whiteSpace=wrap;html=1;fillColor=#d80073;fontColor=#ffffff;strokeColor=#A50040;" parent="1" vertex="1">
          <mxGeometry x="-160" y="440" width="40" height="40" as="geometry" />
        </mxCell>
        <mxCell id="RdxLe-xRa2sQG5XOvE3Y-79" value="[0, 0]" style="ellipse;whiteSpace=wrap;html=1;fillColor=#60a917;fontColor=#ffffff;strokeColor=#2D7600;opacity=20;" parent="1" vertex="1">
          <mxGeometry x="-80" y="440" width="40" height="40" as="geometry" />
        </mxCell>
        <mxCell id="RdxLe-xRa2sQG5XOvE3Y-80" value="" style="endArrow=none;html=1;rounded=0;" parent="1" source="RdxLe-xRa2sQG5XOvE3Y-76" target="RdxLe-xRa2sQG5XOvE3Y-78" edge="1">
          <mxGeometry width="50" height="50" relative="1" as="geometry">
            <mxPoint x="-140" y="360" as="sourcePoint" />
            <mxPoint y="310" as="targetPoint" />
          </mxGeometry>
        </mxCell>
        <mxCell id="RdxLe-xRa2sQG5XOvE3Y-81" value="" style="endArrow=none;html=1;rounded=0;opacity=20;" parent="1" source="RdxLe-xRa2sQG5XOvE3Y-76" target="RdxLe-xRa2sQG5XOvE3Y-79" edge="1">
          <mxGeometry width="50" height="50" relative="1" as="geometry">
            <mxPoint x="-127" y="360" as="sourcePoint" />
            <mxPoint x="80" y="310" as="targetPoint" />
          </mxGeometry>
        </mxCell>
        <mxCell id="RdxLe-xRa2sQG5XOvE3Y-84" value="[1, 1]" style="rounded=0;whiteSpace=wrap;html=1;" parent="1" vertex="1">
          <mxGeometry y="360" width="40" height="40" as="geometry" />
        </mxCell>
        <mxCell id="RdxLe-xRa2sQG5XOvE3Y-85" value="[1, 0]" style="rounded=0;whiteSpace=wrap;html=1;fillColor=#60a917;fontColor=#ffffff;strokeColor=#2D7600;" parent="1" vertex="1">
          <mxGeometry x="80" y="360" width="40" height="40" as="geometry" />
        </mxCell>
        <mxCell id="RdxLe-xRa2sQG5XOvE3Y-86" value="" style="endArrow=none;html=1;rounded=0;" parent="1" source="RdxLe-xRa2sQG5XOvE3Y-84" target="RdxLe-xRa2sQG5XOvE3Y-48" edge="1">
          <mxGeometry width="50" height="50" relative="1" as="geometry">
            <mxPoint x="10" y="330" as="sourcePoint" />
            <mxPoint x="60" y="280" as="targetPoint" />
          </mxGeometry>
        </mxCell>
        <mxCell id="RdxLe-xRa2sQG5XOvE3Y-87" value="" style="endArrow=none;html=1;rounded=0;" parent="1" source="RdxLe-xRa2sQG5XOvE3Y-85" target="RdxLe-xRa2sQG5XOvE3Y-48" edge="1">
          <mxGeometry width="50" height="50" relative="1" as="geometry">
            <mxPoint x="10" y="330" as="sourcePoint" />
            <mxPoint x="60" y="280" as="targetPoint" />
          </mxGeometry>
        </mxCell>
        <mxCell id="RdxLe-xRa2sQG5XOvE3Y-88" value="[0, 1]" style="ellipse;whiteSpace=wrap;html=1;fillColor=#d80073;fontColor=#ffffff;strokeColor=#A50040;" parent="1" vertex="1">
          <mxGeometry y="440" width="40" height="40" as="geometry" />
        </mxCell>
        <mxCell id="RdxLe-xRa2sQG5XOvE3Y-91" value="" style="endArrow=none;html=1;rounded=0;" parent="1" source="RdxLe-xRa2sQG5XOvE3Y-84" target="RdxLe-xRa2sQG5XOvE3Y-88" edge="1">
          <mxGeometry width="50" height="50" relative="1" as="geometry">
            <mxPoint x="60" y="420" as="sourcePoint" />
            <mxPoint x="110" y="370" as="targetPoint" />
          </mxGeometry>
        </mxCell>
        <mxCell id="RdxLe-xRa2sQG5XOvE3Y-96" value="[0, 1]" style="rounded=0;whiteSpace=wrap;html=1;fillColor=#60a917;fontColor=#ffffff;strokeColor=#2D7600;" parent="1" vertex="1">
          <mxGeometry x="160" y="360" width="40" height="40" as="geometry" />
        </mxCell>
        <mxCell id="RdxLe-xRa2sQG5XOvE3Y-97" value="[0, 0]" style="rounded=0;whiteSpace=wrap;html=1;fillColor=#d80073;fontColor=#ffffff;strokeColor=#A50040;opacity=20;" parent="1" vertex="1">
          <mxGeometry x="240" y="360" width="40" height="40" as="geometry" />
        </mxCell>
        <mxCell id="RdxLe-xRa2sQG5XOvE3Y-100" value="" style="endArrow=none;html=1;rounded=0;" parent="1" source="RdxLe-xRa2sQG5XOvE3Y-96" target="RdxLe-xRa2sQG5XOvE3Y-49" edge="1">
          <mxGeometry width="50" height="50" relative="1" as="geometry">
            <mxPoint x="260" y="360" as="sourcePoint" />
            <mxPoint x="310" y="310" as="targetPoint" />
          </mxGeometry>
        </mxCell>
        <mxCell id="RdxLe-xRa2sQG5XOvE3Y-101" value="" style="endArrow=none;html=1;rounded=0;opacity=20;" parent="1" source="RdxLe-xRa2sQG5XOvE3Y-97" target="RdxLe-xRa2sQG5XOvE3Y-49" edge="1">
          <mxGeometry width="50" height="50" relative="1" as="geometry">
            <mxPoint x="260" y="360" as="sourcePoint" />
            <mxPoint x="310" y="310" as="targetPoint" />
          </mxGeometry>
        </mxCell>
        <mxCell id="RdxLe-xRa2sQG5XOvE3Y-104" value="[1, 1]" style="ellipse;whiteSpace=wrap;html=1;" parent="1" vertex="1">
          <mxGeometry x="600" y="280" width="40" height="40" as="geometry" />
        </mxCell>
        <mxCell id="RdxLe-xRa2sQG5XOvE3Y-105" value="[1, 0]" style="ellipse;whiteSpace=wrap;html=1;fillColor=#d80073;fontColor=#ffffff;strokeColor=#A50040;" parent="1" vertex="1">
          <mxGeometry x="720" y="278" width="40" height="40" as="geometry" />
        </mxCell>
        <mxCell id="RdxLe-xRa2sQG5XOvE3Y-107" value="[0, 1]" style="rounded=0;whiteSpace=wrap;html=1;fillColor=#60a917;fontColor=#ffffff;strokeColor=#2D7600;" parent="1" vertex="1">
          <mxGeometry x="600" y="360" width="40" height="40" as="geometry" />
        </mxCell>
        <mxCell id="RdxLe-xRa2sQG5XOvE3Y-110" value="" style="endArrow=none;html=1;rounded=0;" parent="1" source="RdxLe-xRa2sQG5XOvE3Y-107" target="RdxLe-xRa2sQG5XOvE3Y-104" edge="1">
          <mxGeometry width="50" height="50" relative="1" as="geometry">
            <mxPoint x="700" y="360" as="sourcePoint" />
            <mxPoint x="750" y="310" as="targetPoint" />
          </mxGeometry>
        </mxCell>
        <mxCell id="RdxLe-xRa2sQG5XOvE3Y-114" value="" style="endArrow=none;html=1;rounded=0;" parent="1" source="RdxLe-xRa2sQG5XOvE3Y-104" target="RdxLe-xRa2sQG5XOvE3Y-6" edge="1">
          <mxGeometry width="50" height="50" relative="1" as="geometry">
            <mxPoint x="660" y="300" as="sourcePoint" />
            <mxPoint x="710" y="250" as="targetPoint" />
          </mxGeometry>
        </mxCell>
        <mxCell id="RdxLe-xRa2sQG5XOvE3Y-115" value="" style="endArrow=none;html=1;rounded=0;" parent="1" source="RdxLe-xRa2sQG5XOvE3Y-105" target="RdxLe-xRa2sQG5XOvE3Y-6" edge="1">
          <mxGeometry width="50" height="50" relative="1" as="geometry">
            <mxPoint x="660" y="300" as="sourcePoint" />
            <mxPoint x="710" y="250" as="targetPoint" />
          </mxGeometry>
        </mxCell>
        <mxCell id="RdxLe-xRa2sQG5XOvE3Y-116" value="[0, 2]" style="ellipse;whiteSpace=wrap;html=1;" parent="1" vertex="1">
          <mxGeometry x="440" y="280" width="40" height="40" as="geometry" />
        </mxCell>
        <mxCell id="RdxLe-xRa2sQG5XOvE3Y-117" value="[0, 1]" style="rounded=0;whiteSpace=wrap;html=1;fillColor=#60a917;fontColor=#ffffff;strokeColor=#2D7600;" parent="1" vertex="1">
          <mxGeometry x="400" y="360" width="40" height="40" as="geometry" />
        </mxCell>
        <mxCell id="RdxLe-xRa2sQG5XOvE3Y-118" value="[0, 0]" style="rounded=0;whiteSpace=wrap;html=1;fillColor=#d80073;fontColor=#ffffff;strokeColor=#A50040;" parent="1" vertex="1">
          <mxGeometry x="480" y="360" width="40" height="40" as="geometry" />
        </mxCell>
        <mxCell id="RdxLe-xRa2sQG5XOvE3Y-119" value="" style="endArrow=none;html=1;rounded=0;" parent="1" source="RdxLe-xRa2sQG5XOvE3Y-116" target="RdxLe-xRa2sQG5XOvE3Y-117" edge="1">
          <mxGeometry width="50" height="50" relative="1" as="geometry">
            <mxPoint x="452.121614028385" y="310.00290060043574" as="sourcePoint" />
            <mxPoint x="570" y="271.62" as="targetPoint" />
          </mxGeometry>
        </mxCell>
        <mxCell id="RdxLe-xRa2sQG5XOvE3Y-120" value="" style="endArrow=none;html=1;rounded=0;" parent="1" source="RdxLe-xRa2sQG5XOvE3Y-116" target="RdxLe-xRa2sQG5XOvE3Y-118" edge="1">
          <mxGeometry width="50" height="50" relative="1" as="geometry">
            <mxPoint x="467.87838597161544" y="310.00290060043574" as="sourcePoint" />
            <mxPoint x="570" y="271.62" as="targetPoint" />
          </mxGeometry>
        </mxCell>
        <mxCell id="RdxLe-xRa2sQG5XOvE3Y-123" value="" style="endArrow=none;html=1;rounded=0;" parent="1" source="RdxLe-xRa2sQG5XOvE3Y-116" target="RdxLe-xRa2sQG5XOvE3Y-6" edge="1">
          <mxGeometry width="50" height="50" relative="1" as="geometry">
            <mxPoint x="680" y="340" as="sourcePoint" />
            <mxPoint x="730" y="290" as="targetPoint" />
          </mxGeometry>
        </mxCell>
        <mxCell id="RdxLe-xRa2sQG5XOvE3Y-124" value="[0, 1]" style="ellipse;whiteSpace=wrap;html=1;fillColor=#d80073;fontColor=#ffffff;strokeColor=#A50040;" parent="1" vertex="1">
          <mxGeometry x="917" y="280" width="40" height="40" as="geometry" />
        </mxCell>
        <mxCell id="RdxLe-xRa2sQG5XOvE3Y-125" value="" style="endArrow=none;html=1;rounded=0;" parent="1" source="RdxLe-xRa2sQG5XOvE3Y-7" target="RdxLe-xRa2sQG5XOvE3Y-124" edge="1">
          <mxGeometry width="50" height="50" relative="1" as="geometry">
            <mxPoint x="937" y="200" as="sourcePoint" />
            <mxPoint x="1027" y="170" as="targetPoint" />
          </mxGeometry>
        </mxCell>
        <mxCell id="RdxLe-xRa2sQG5XOvE3Y-131" value="(alpha, beta), ex: (1, -1), (-inf, -1)" style="text;html=1;strokeColor=none;fillColor=none;align=center;verticalAlign=middle;whiteSpace=wrap;rounded=0;" parent="1" vertex="1">
          <mxGeometry x="-1005" y="-170" width="190" height="30" as="geometry" />
        </mxCell>
        <mxCell id="RdxLe-xRa2sQG5XOvE3Y-150" value="(-inf, inf)" style="text;html=1;align=center;verticalAlign=middle;resizable=0;points=[];autosize=1;strokeColor=none;fillColor=none;" parent="1" vertex="1">
          <mxGeometry x="-1190" y="351" width="70" height="30" as="geometry" />
        </mxCell>
        <mxCell id="RdxLe-xRa2sQG5XOvE3Y-151" value="(-inf, -1)" style="text;html=1;align=center;verticalAlign=middle;resizable=0;points=[];autosize=1;strokeColor=none;fillColor=none;" parent="1" vertex="1">
          <mxGeometry x="-1190" y="371" width="70" height="30" as="geometry" />
        </mxCell>
        <mxCell id="RdxLe-xRa2sQG5XOvE3Y-152" value="(-inf, inf)" style="text;html=1;align=center;verticalAlign=middle;resizable=0;points=[];autosize=1;strokeColor=none;fillColor=none;" parent="1" vertex="1">
          <mxGeometry x="-1030" y="251" width="70" height="30" as="geometry" />
        </mxCell>
        <mxCell id="RdxLe-xRa2sQG5XOvE3Y-153" value="(-inf, inf)&lt;br&gt;(-inf, 1)&lt;br&gt;(-inf, -1)" style="text;html=1;align=center;verticalAlign=middle;resizable=0;points=[];autosize=1;strokeColor=none;fillColor=none;" parent="1" vertex="1">
          <mxGeometry x="-710" y="125" width="70" height="60" as="geometry" />
        </mxCell>
        <mxCell id="RdxLe-xRa2sQG5XOvE3Y-154" value="(1, inf)" style="text;html=1;align=center;verticalAlign=middle;resizable=0;points=[];autosize=1;strokeColor=none;fillColor=none;" parent="1" vertex="1">
          <mxGeometry x="-1025" y="291" width="60" height="30" as="geometry" />
        </mxCell>
        <mxCell id="RdxLe-xRa2sQG5XOvE3Y-155" value="(-inf, 1)" style="text;html=1;align=center;verticalAlign=middle;resizable=0;points=[];autosize=1;strokeColor=none;fillColor=none;" parent="1" vertex="1">
          <mxGeometry x="-820" y="268" width="60" height="30" as="geometry" />
        </mxCell>
        <mxCell id="RdxLe-xRa2sQG5XOvE3Y-156" value="(-inf, 1)" style="text;html=1;align=center;verticalAlign=middle;resizable=0;points=[];autosize=1;strokeColor=none;fillColor=none;" parent="1" vertex="1">
          <mxGeometry x="-850" y="365" width="60" height="30" as="geometry" />
        </mxCell>
        <mxCell id="RdxLe-xRa2sQG5XOvE3Y-157" value="" style="endArrow=classicThin;dashed=1;html=1;dashPattern=1 3;strokeWidth=2;rounded=0;endFill=1;" parent="1" target="RdxLe-xRa2sQG5XOvE3Y-40" edge="1">
          <mxGeometry width="50" height="50" relative="1" as="geometry">
            <mxPoint x="-1159" y="396" as="sourcePoint" />
            <mxPoint x="-1104.0515338941377" y="443.82990784262984" as="targetPoint" />
          </mxGeometry>
        </mxCell>
        <mxCell id="RdxLe-xRa2sQG5XOvE3Y-158" value="" style="endArrow=classicThin;dashed=1;html=1;dashPattern=1 3;strokeWidth=2;rounded=0;endFill=1;" parent="1" source="RdxLe-xRa2sQG5XOvE3Y-33" edge="1">
          <mxGeometry width="50" height="50" relative="1" as="geometry">
            <mxPoint x="-984" y="355" as="sourcePoint" />
            <mxPoint x="-992" y="315" as="targetPoint" />
          </mxGeometry>
        </mxCell>
        <mxCell id="RdxLe-xRa2sQG5XOvE3Y-160" value="(1, 1)" style="text;html=1;align=center;verticalAlign=middle;resizable=0;points=[];autosize=1;strokeColor=none;fillColor=none;" parent="1" vertex="1">
          <mxGeometry x="-815" y="291" width="50" height="30" as="geometry" />
        </mxCell>
        <mxCell id="RdxLe-xRa2sQG5XOvE3Y-161" value="" style="endArrow=classicThin;dashed=1;html=1;dashPattern=1 3;strokeWidth=2;rounded=0;endFill=1;" parent="1" source="RdxLe-xRa2sQG5XOvE3Y-26" edge="1">
          <mxGeometry width="50" height="50" relative="1" as="geometry">
            <mxPoint x="-782.2779922779923" y="366" as="sourcePoint" />
            <mxPoint x="-787.9729729729729" y="316" as="targetPoint" />
          </mxGeometry>
        </mxCell>
        <mxCell id="RdxLe-xRa2sQG5XOvE3Y-162" value="(-inf, 1)&lt;br&gt;(-1, 1)" style="text;html=1;align=center;verticalAlign=middle;resizable=0;points=[];autosize=1;strokeColor=none;fillColor=none;" parent="1" vertex="1">
          <mxGeometry x="-700" y="280" width="60" height="40" as="geometry" />
        </mxCell>
        <mxCell id="RdxLe-xRa2sQG5XOvE3Y-163" value="(-1, inf)" style="text;html=1;align=center;verticalAlign=middle;resizable=0;points=[];autosize=1;strokeColor=none;fillColor=none;" parent="1" vertex="1">
          <mxGeometry x="-1025" y="268" width="60" height="30" as="geometry" />
        </mxCell>
        <mxCell id="RdxLe-xRa2sQG5XOvE3Y-164" value="" style="endArrow=classicThin;dashed=1;html=1;dashPattern=1 3;strokeWidth=2;rounded=0;endFill=1;" parent="1" source="RdxLe-xRa2sQG5XOvE3Y-32" edge="1">
          <mxGeometry width="50" height="50" relative="1" as="geometry">
            <mxPoint x="-1069.6153846153848" y="360" as="sourcePoint" />
            <mxPoint x="-1015" y="289" as="targetPoint" />
          </mxGeometry>
        </mxCell>
        <mxCell id="RdxLe-xRa2sQG5XOvE3Y-165" value="" style="endArrow=classicThin;dashed=1;html=1;strokeWidth=2;rounded=0;endFill=1;" parent="1" source="RdxLe-xRa2sQG5XOvE3Y-14" edge="1">
          <mxGeometry width="50" height="50" relative="1" as="geometry">
            <mxPoint x="-920.5701579162896" y="284.1918092933961" as="sourcePoint" />
            <mxPoint x="-695" y="157" as="targetPoint" />
          </mxGeometry>
        </mxCell>
        <mxCell id="RdxLe-xRa2sQG5XOvE3Y-167" value="" style="endArrow=classicThin;dashed=1;html=1;dashPattern=1 3;strokeWidth=2;rounded=0;endFill=1;" parent="1" source="RdxLe-xRa2sQG5XOvE3Y-23" edge="1">
          <mxGeometry width="50" height="50" relative="1" as="geometry">
            <mxPoint x="-639.5" y="357" as="sourcePoint" />
            <mxPoint x="-664.5" y="317" as="targetPoint" />
            <Array as="points" />
          </mxGeometry>
        </mxCell>
        <mxCell id="RdxLe-xRa2sQG5XOvE3Y-168" value="" style="endArrow=classicThin;dashed=1;html=1;dashPattern=1 3;strokeWidth=2;rounded=0;endFill=1;" parent="1" source="RdxLe-xRa2sQG5XOvE3Y-16" edge="1">
          <mxGeometry width="50" height="50" relative="1" as="geometry">
            <mxPoint x="-640" y="248" as="sourcePoint" />
            <mxPoint x="-680" y="178" as="targetPoint" />
          </mxGeometry>
        </mxCell>
        <mxCell id="RdxLe-xRa2sQG5XOvE3Y-169" value="(-inf, inf)&lt;br&gt;(-1, inf)&lt;br&gt;(1, inf)" style="text;html=1;align=center;verticalAlign=middle;resizable=0;points=[];autosize=1;strokeColor=none;fillColor=none;" parent="1" vertex="1">
          <mxGeometry x="110" y="30" width="70" height="60" as="geometry" />
        </mxCell>
        <mxCell id="RdxLe-xRa2sQG5XOvE3Y-170" value="" style="endArrow=classicThin;dashed=1;html=1;dashPattern=1 3;strokeWidth=2;rounded=0;endFill=1;" parent="1" source="RdxLe-xRa2sQG5XOvE3Y-3" edge="1">
          <mxGeometry width="50" height="50" relative="1" as="geometry">
            <mxPoint x="-596" y="170.02300405953974" as="sourcePoint" />
            <mxPoint x="123" y="63" as="targetPoint" />
          </mxGeometry>
        </mxCell>
        <mxCell id="RdxLe-xRa2sQG5XOvE3Y-215" value="(-1, inf)&lt;br&gt;(-1, 1)&lt;br&gt;(-1, -1)" style="text;html=1;align=center;verticalAlign=middle;resizable=0;points=[];autosize=1;strokeColor=none;fillColor=none;" parent="1" vertex="1">
          <mxGeometry x="20" y="115" width="60" height="60" as="geometry" />
        </mxCell>
        <mxCell id="RdxLe-xRa2sQG5XOvE3Y-216" value="(-1, inf)&lt;br&gt;(1, inf)" style="text;html=1;align=center;verticalAlign=middle;resizable=0;points=[];autosize=1;strokeColor=none;fillColor=none;" parent="1" vertex="1">
          <mxGeometry x="-370" y="245" width="60" height="40" as="geometry" />
        </mxCell>
        <mxCell id="RdxLe-xRa2sQG5XOvE3Y-217" value="(-1, inf)&lt;br&gt;(-1, -1)" style="text;html=1;align=center;verticalAlign=middle;resizable=0;points=[];autosize=1;strokeColor=none;fillColor=none;" parent="1" vertex="1">
          <mxGeometry x="-500" y="346" width="60" height="40" as="geometry" />
        </mxCell>
        <mxCell id="RdxLe-xRa2sQG5XOvE3Y-219" value="" style="endArrow=classicThin;dashed=1;html=1;dashPattern=1 3;strokeWidth=2;rounded=0;endFill=1;" parent="1" source="RdxLe-xRa2sQG5XOvE3Y-70" edge="1">
          <mxGeometry width="50" height="50" relative="1" as="geometry">
            <mxPoint x="-500" y="428" as="sourcePoint" />
            <mxPoint x="-470" y="385" as="targetPoint" />
            <Array as="points" />
          </mxGeometry>
        </mxCell>
        <mxCell id="RdxLe-xRa2sQG5XOvE3Y-222" value="" style="endArrow=classicThin;dashed=1;html=1;dashPattern=1 3;strokeWidth=2;rounded=0;endFill=1;" parent="1" source="RdxLe-xRa2sQG5XOvE3Y-63" edge="1">
          <mxGeometry width="50" height="50" relative="1" as="geometry">
            <mxPoint x="-280" y="478" as="sourcePoint" />
            <mxPoint x="-344" y="284" as="targetPoint" />
            <Array as="points" />
          </mxGeometry>
        </mxCell>
        <mxCell id="RdxLe-xRa2sQG5XOvE3Y-223" value="" style="endArrow=classicThin;dashed=1;html=1;dashPattern=1 3;strokeWidth=2;rounded=0;endFill=1;" parent="1" source="RdxLe-xRa2sQG5XOvE3Y-47" edge="1">
          <mxGeometry width="50" height="50" relative="1" as="geometry">
            <mxPoint x="-281.69178525685265" y="285.94957933280034" as="sourcePoint" />
            <mxPoint x="32" y="148" as="targetPoint" />
            <Array as="points" />
          </mxGeometry>
        </mxCell>
        <mxCell id="RdxLe-xRa2sQG5XOvE3Y-224" value="(-1, 1)&lt;br&gt;(1, 1)" style="text;html=1;align=center;verticalAlign=middle;resizable=0;points=[];autosize=1;strokeColor=none;fillColor=none;" parent="1" vertex="1">
          <mxGeometry x="-100" y="263" width="60" height="40" as="geometry" />
        </mxCell>
        <mxCell id="RdxLe-xRa2sQG5XOvE3Y-225" value="(-1, 1)&lt;br&gt;(-1, -1)" style="text;html=1;align=center;verticalAlign=middle;resizable=0;points=[];autosize=1;strokeColor=none;fillColor=none;" parent="1" vertex="1">
          <mxGeometry x="-180" y="360" width="60" height="40" as="geometry" />
        </mxCell>
        <mxCell id="RdxLe-xRa2sQG5XOvE3Y-227" value="" style="endArrow=classicThin;dashed=1;html=1;dashPattern=1 3;strokeWidth=2;rounded=0;endFill=1;" parent="1" source="RdxLe-xRa2sQG5XOvE3Y-78" edge="1">
          <mxGeometry width="50" height="50" relative="1" as="geometry">
            <mxPoint x="-171" y="457" as="sourcePoint" />
            <mxPoint x="-157" y="398" as="targetPoint" />
            <Array as="points" />
          </mxGeometry>
        </mxCell>
        <mxCell id="RdxLe-xRa2sQG5XOvE3Y-229" value="(-1, 1)&lt;br&gt;(-1, -1)" style="text;html=1;align=center;verticalAlign=middle;resizable=0;points=[];autosize=1;strokeColor=none;fillColor=none;" parent="1" vertex="1">
          <mxGeometry x="-60" y="351" width="60" height="40" as="geometry" />
        </mxCell>
        <mxCell id="RdxLe-xRa2sQG5XOvE3Y-230" value="" style="endArrow=classicThin;dashed=1;html=1;dashPattern=1 3;strokeWidth=2;rounded=0;endFill=1;" parent="1" source="RdxLe-xRa2sQG5XOvE3Y-88" edge="1">
          <mxGeometry width="50" height="50" relative="1" as="geometry">
            <mxPoint x="8.26237106004146" y="436.5807649674184" as="sourcePoint" />
            <mxPoint x="-29" y="392" as="targetPoint" />
            <Array as="points" />
          </mxGeometry>
        </mxCell>
        <mxCell id="RdxLe-xRa2sQG5XOvE3Y-231" value="" style="endArrow=classicThin;dashed=1;html=1;dashPattern=1 3;strokeWidth=2;rounded=0;endFill=1;" parent="1" source="RdxLe-xRa2sQG5XOvE3Y-85" edge="1">
          <mxGeometry width="50" height="50" relative="1" as="geometry">
            <mxPoint x="-33" y="351" as="sourcePoint" />
            <mxPoint x="-70" y="299" as="targetPoint" />
            <Array as="points" />
          </mxGeometry>
        </mxCell>
        <mxCell id="RdxLe-xRa2sQG5XOvE3Y-232" value="(-1, 1)&lt;br&gt;(1, 1)" style="text;html=1;align=center;verticalAlign=middle;resizable=0;points=[];autosize=1;strokeColor=none;fillColor=none;" parent="1" vertex="1">
          <mxGeometry x="140" y="273" width="60" height="40" as="geometry" />
        </mxCell>
        <mxCell id="RdxLe-xRa2sQG5XOvE3Y-233" value="" style="endArrow=classicThin;dashed=1;html=1;dashPattern=1 3;strokeWidth=2;rounded=0;endFill=1;" parent="1" source="RdxLe-xRa2sQG5XOvE3Y-96" target="RdxLe-xRa2sQG5XOvE3Y-232" edge="1">
          <mxGeometry width="50" height="50" relative="1" as="geometry">
            <mxPoint x="150" y="321" as="sourcePoint" />
            <mxPoint y="250" as="targetPoint" />
            <Array as="points" />
          </mxGeometry>
        </mxCell>
        <mxCell id="RdxLe-xRa2sQG5XOvE3Y-234" value="" style="endArrow=classicThin;dashed=1;html=1;dashPattern=1 3;strokeWidth=2;rounded=0;endFill=1;" parent="1" source="RdxLe-xRa2sQG5XOvE3Y-50" edge="1">
          <mxGeometry width="50" height="50" relative="1" as="geometry">
            <mxPoint x="228" y="182" as="sourcePoint" />
            <mxPoint x="72" y="162" as="targetPoint" />
            <Array as="points" />
          </mxGeometry>
        </mxCell>
        <mxCell id="RdxLe-xRa2sQG5XOvE3Y-235" value="(-1, inf)&lt;br&gt;(-1, 1)&lt;br&gt;(-1, -1)" style="text;html=1;align=center;verticalAlign=middle;resizable=0;points=[];autosize=1;strokeColor=none;fillColor=none;" parent="1" vertex="1">
          <mxGeometry x="520" y="150" width="60" height="60" as="geometry" />
        </mxCell>
        <mxCell id="RdxLe-xRa2sQG5XOvE3Y-236" value="(-1, inf)&lt;br&gt;(1, inf)" style="text;html=1;align=center;verticalAlign=middle;resizable=0;points=[];autosize=1;strokeColor=none;fillColor=none;" parent="1" vertex="1">
          <mxGeometry x="384" y="278" width="60" height="40" as="geometry" />
        </mxCell>
        <mxCell id="RdxLe-xRa2sQG5XOvE3Y-240" value="" style="endArrow=classicThin;dashed=1;html=1;dashPattern=1 3;strokeWidth=2;rounded=0;endFill=1;" parent="1" source="RdxLe-xRa2sQG5XOvE3Y-117" edge="1">
          <mxGeometry width="50" height="50" relative="1" as="geometry">
            <mxPoint x="370" y="405" as="sourcePoint" />
            <mxPoint x="410" y="315" as="targetPoint" />
            <Array as="points" />
          </mxGeometry>
        </mxCell>
        <mxCell id="RdxLe-xRa2sQG5XOvE3Y-241" value="" style="endArrow=classicThin;dashed=1;html=1;dashPattern=1 3;strokeWidth=2;rounded=0;endFill=1;entryX=0.478;entryY=1.088;entryDx=0;entryDy=0;entryPerimeter=0;exitX=0.5;exitY=0;exitDx=0;exitDy=0;" parent="1" source="RdxLe-xRa2sQG5XOvE3Y-116" edge="1">
          <mxGeometry width="50" height="50" relative="1" as="geometry">
            <mxPoint x="456.05879244136486" y="271.8518007680159" as="sourcePoint" />
            <mxPoint x="531.6799999999998" y="184.51999999999975" as="targetPoint" />
            <Array as="points" />
          </mxGeometry>
        </mxCell>
        <mxCell id="RdxLe-xRa2sQG5XOvE3Y-242" value="(-1, 1)&lt;br&gt;(1, 1)" style="text;html=1;align=center;verticalAlign=middle;resizable=0;points=[];autosize=1;strokeColor=none;fillColor=none;" parent="1" vertex="1">
          <mxGeometry x="550" y="273" width="60" height="40" as="geometry" />
        </mxCell>
        <mxCell id="RdxLe-xRa2sQG5XOvE3Y-244" value="" style="endArrow=classicThin;dashed=1;html=1;dashPattern=1 3;strokeWidth=2;rounded=0;endFill=1;" parent="1" source="RdxLe-xRa2sQG5XOvE3Y-107" edge="1">
          <mxGeometry width="50" height="50" relative="1" as="geometry">
            <mxPoint x="567" y="362" as="sourcePoint" />
            <mxPoint x="580" y="311" as="targetPoint" />
            <Array as="points" />
          </mxGeometry>
        </mxCell>
        <mxCell id="RdxLe-xRa2sQG5XOvE3Y-245" value="" style="endArrow=classicThin;dashed=1;html=1;dashPattern=1 3;strokeWidth=2;rounded=0;endFill=1;" parent="1" source="RdxLe-xRa2sQG5XOvE3Y-105" edge="1">
          <mxGeometry width="50" height="50" relative="1" as="geometry">
            <mxPoint x="682" y="298" as="sourcePoint" />
            <mxPoint x="574" y="196" as="targetPoint" />
            <Array as="points" />
          </mxGeometry>
        </mxCell>
        <mxCell id="RdxLe-xRa2sQG5XOvE3Y-246" value="(-1, inf)&lt;br&gt;(-1, -1)" style="text;html=1;align=center;verticalAlign=middle;resizable=0;points=[];autosize=1;strokeColor=none;fillColor=none;" parent="1" vertex="1">
          <mxGeometry x="860" y="163" width="60" height="40" as="geometry" />
        </mxCell>
        <mxCell id="RdxLe-xRa2sQG5XOvE3Y-247" value="" style="endArrow=classicThin;dashed=1;html=1;dashPattern=1 3;strokeWidth=2;rounded=0;endFill=1;entryX=0.655;entryY=0.99;entryDx=0;entryDy=0;entryPerimeter=0;" parent="1" source="RdxLe-xRa2sQG5XOvE3Y-124" edge="1">
          <mxGeometry width="50" height="50" relative="1" as="geometry">
            <mxPoint x="926.767438089445" y="277.3535513243494" as="sourcePoint" />
            <mxPoint x="896.3000000000002" y="198.60000000000014" as="targetPoint" />
            <Array as="points" />
          </mxGeometry>
        </mxCell>
        <mxCell id="RdxLe-xRa2sQG5XOvE3Y-248" value="" style="endArrow=classicThin;dashed=1;html=1;dashPattern=1 3;strokeWidth=2;rounded=0;endFill=1;" parent="1" source="RdxLe-xRa2sQG5XOvE3Y-8" edge="1">
          <mxGeometry width="50" height="50" relative="1" as="geometry">
            <mxPoint x="1010.7" y="273" as="sourcePoint" />
            <mxPoint x="167" y="75" as="targetPoint" />
            <Array as="points">
              <mxPoint x="870" y="90" />
            </Array>
          </mxGeometry>
        </mxCell>
        <mxCell id="RdxLe-xRa2sQG5XOvE3Y-249" value="" style="shape=flexArrow;endArrow=classic;html=1;rounded=0;entryX=0;entryY=0;entryDx=0;entryDy=0;fillColor=#e3c800;strokeColor=#B09500;" parent="1" source="RdxLe-xRa2sQG5XOvE3Y-2" target="RdxLe-xRa2sQG5XOvE3Y-8" edge="1">
          <mxGeometry width="50" height="50" relative="1" as="geometry">
            <mxPoint x="250" y="70" as="sourcePoint" />
            <mxPoint x="1020" y="80" as="targetPoint" />
            <Array as="points">
              <mxPoint x="260" y="40" />
              <mxPoint x="940" y="50" />
            </Array>
          </mxGeometry>
        </mxCell>
      </root>
    </mxGraphModel>
  </diagram>
  <diagram id="Rh67xMo9DECs0rw9jeNh" name="Strona-2">
    <mxGraphModel dx="1725" dy="584" grid="1" gridSize="10" guides="1" tooltips="1" connect="1" arrows="1" fold="1" page="1" pageScale="1" pageWidth="827" pageHeight="1169" math="0" shadow="0">
      <root>
        <mxCell id="0" />
        <mxCell id="1" parent="0" />
        <mxCell id="hfAvHa6saPe22wwvzet9-1" value="[3, 2]" style="ellipse;whiteSpace=wrap;html=1;" vertex="1" parent="1">
          <mxGeometry x="200" y="40" width="80" height="40" as="geometry" />
        </mxCell>
        <mxCell id="hfAvHa6saPe22wwvzet9-2" value="[3, 1]" style="rounded=0;whiteSpace=wrap;html=1;" vertex="1" parent="1">
          <mxGeometry x="340" y="160" width="40" height="40" as="geometry" />
        </mxCell>
        <mxCell id="hfAvHa6saPe22wwvzet9-3" value="(-inf, inf)&lt;br&gt;(1, inf)" style="text;html=1;align=center;verticalAlign=middle;resizable=0;points=[];autosize=1;strokeColor=none;fillColor=none;" vertex="1" parent="1">
          <mxGeometry x="130" y="25" width="70" height="40" as="geometry" />
        </mxCell>
        <mxCell id="hfAvHa6saPe22wwvzet9-4" value="[3, 0]" style="rounded=0;whiteSpace=wrap;html=1;" vertex="1" parent="1">
          <mxGeometry x="440" y="160" width="40" height="40" as="geometry" />
        </mxCell>
        <mxCell id="hfAvHa6saPe22wwvzet9-10" value="[2, 2]" style="rounded=0;whiteSpace=wrap;html=1;" vertex="1" parent="1">
          <mxGeometry x="40" y="160" width="40" height="40" as="geometry" />
        </mxCell>
        <mxCell id="hfAvHa6saPe22wwvzet9-11" value="[1, 2]" style="rounded=0;whiteSpace=wrap;html=1;" vertex="1" parent="1">
          <mxGeometry x="140" y="160" width="40" height="40" as="geometry" />
        </mxCell>
        <mxCell id="hfAvHa6saPe22wwvzet9-12" value="[0, 2]" style="rounded=0;whiteSpace=wrap;html=1;" vertex="1" parent="1">
          <mxGeometry x="240" y="160" width="40" height="40" as="geometry" />
        </mxCell>
        <mxCell id="hfAvHa6saPe22wwvzet9-13" value="" style="endArrow=none;html=1;rounded=0;fillColor=#e3c800;strokeColor=#B09500;strokeWidth=3;" edge="1" parent="1" source="hfAvHa6saPe22wwvzet9-10" target="hfAvHa6saPe22wwvzet9-1">
          <mxGeometry width="50" height="50" relative="1" as="geometry">
            <mxPoint x="120" y="160" as="sourcePoint" />
            <mxPoint x="170" y="110" as="targetPoint" />
          </mxGeometry>
        </mxCell>
        <mxCell id="hfAvHa6saPe22wwvzet9-14" value="" style="endArrow=none;html=1;rounded=0;" edge="1" parent="1" source="hfAvHa6saPe22wwvzet9-11" target="hfAvHa6saPe22wwvzet9-1">
          <mxGeometry width="50" height="50" relative="1" as="geometry">
            <mxPoint x="120" y="160" as="sourcePoint" />
            <mxPoint x="170" y="110" as="targetPoint" />
          </mxGeometry>
        </mxCell>
        <mxCell id="hfAvHa6saPe22wwvzet9-15" value="" style="endArrow=none;html=1;rounded=0;" edge="1" parent="1" source="hfAvHa6saPe22wwvzet9-12" target="hfAvHa6saPe22wwvzet9-1">
          <mxGeometry width="50" height="50" relative="1" as="geometry">
            <mxPoint x="120" y="160" as="sourcePoint" />
            <mxPoint x="170" y="110" as="targetPoint" />
          </mxGeometry>
        </mxCell>
        <mxCell id="hfAvHa6saPe22wwvzet9-16" value="" style="endArrow=none;html=1;rounded=0;" edge="1" parent="1" source="hfAvHa6saPe22wwvzet9-2" target="hfAvHa6saPe22wwvzet9-1">
          <mxGeometry width="50" height="50" relative="1" as="geometry">
            <mxPoint x="120" y="160" as="sourcePoint" />
            <mxPoint x="170" y="110" as="targetPoint" />
          </mxGeometry>
        </mxCell>
        <mxCell id="hfAvHa6saPe22wwvzet9-17" value="" style="endArrow=none;html=1;rounded=0;" edge="1" parent="1" source="hfAvHa6saPe22wwvzet9-4" target="hfAvHa6saPe22wwvzet9-1">
          <mxGeometry width="50" height="50" relative="1" as="geometry">
            <mxPoint x="120" y="160" as="sourcePoint" />
            <mxPoint x="170" y="110" as="targetPoint" />
          </mxGeometry>
        </mxCell>
        <mxCell id="hfAvHa6saPe22wwvzet9-18" value="(-inf, inf)&lt;br&gt;(-inf, 1)" style="text;html=1;align=center;verticalAlign=middle;resizable=0;points=[];autosize=1;strokeColor=none;fillColor=none;" vertex="1" parent="1">
          <mxGeometry x="-30" y="160" width="70" height="40" as="geometry" />
        </mxCell>
        <mxCell id="hfAvHa6saPe22wwvzet9-19" value="[1, 2]" style="ellipse;whiteSpace=wrap;html=1;" vertex="1" parent="1">
          <mxGeometry x="-80" y="240" width="40" height="40" as="geometry" />
        </mxCell>
        <mxCell id="hfAvHa6saPe22wwvzet9-20" value="[0, 2]" style="ellipse;whiteSpace=wrap;html=1;" vertex="1" parent="1">
          <mxGeometry x="20" y="240" width="40" height="40" as="geometry" />
        </mxCell>
        <mxCell id="hfAvHa6saPe22wwvzet9-21" value="" style="endArrow=none;html=1;rounded=0;" edge="1" parent="1" source="hfAvHa6saPe22wwvzet9-19" target="hfAvHa6saPe22wwvzet9-10">
          <mxGeometry width="50" height="50" relative="1" as="geometry">
            <mxPoint x="60" y="250" as="sourcePoint" />
            <mxPoint x="110" y="200" as="targetPoint" />
          </mxGeometry>
        </mxCell>
        <mxCell id="hfAvHa6saPe22wwvzet9-22" value="" style="endArrow=none;html=1;rounded=0;" edge="1" parent="1" source="hfAvHa6saPe22wwvzet9-20" target="hfAvHa6saPe22wwvzet9-10">
          <mxGeometry width="50" height="50" relative="1" as="geometry">
            <mxPoint x="-33" y="259" as="sourcePoint" />
            <mxPoint x="50" y="203" as="targetPoint" />
          </mxGeometry>
        </mxCell>
        <mxCell id="hfAvHa6saPe22wwvzet9-23" value="(-inf, inf)&lt;br&gt;(-1, inf)&lt;br&gt;(1, inf)" style="text;html=1;align=center;verticalAlign=middle;resizable=0;points=[];autosize=1;strokeColor=none;fillColor=none;" vertex="1" parent="1">
          <mxGeometry x="-150" y="220" width="70" height="60" as="geometry" />
        </mxCell>
        <mxCell id="hfAvHa6saPe22wwvzet9-24" value="[0, 2]" style="rounded=0;whiteSpace=wrap;html=1;" vertex="1" parent="1">
          <mxGeometry x="-320" y="320" width="40" height="40" as="geometry" />
        </mxCell>
        <mxCell id="hfAvHa6saPe22wwvzet9-25" value="[1, 1]" style="rounded=0;whiteSpace=wrap;html=1;" vertex="1" parent="1">
          <mxGeometry x="-220" y="320" width="40" height="40" as="geometry" />
        </mxCell>
        <mxCell id="hfAvHa6saPe22wwvzet9-26" value="[1, 0]" style="rounded=0;whiteSpace=wrap;html=1;fillColor=#60a917;fontColor=#ffffff;strokeColor=#2D7600;" vertex="1" parent="1">
          <mxGeometry x="-120" y="320" width="40" height="40" as="geometry" />
        </mxCell>
        <mxCell id="hfAvHa6saPe22wwvzet9-27" value="" style="endArrow=none;html=1;rounded=0;fillColor=#e3c800;strokeColor=#B09500;strokeWidth=3;" edge="1" parent="1" source="hfAvHa6saPe22wwvzet9-26" target="hfAvHa6saPe22wwvzet9-19">
          <mxGeometry width="50" height="50" relative="1" as="geometry">
            <mxPoint x="-50" y="310" as="sourcePoint" />
            <mxPoint y="260" as="targetPoint" />
          </mxGeometry>
        </mxCell>
        <mxCell id="hfAvHa6saPe22wwvzet9-28" value="" style="endArrow=none;html=1;rounded=0;" edge="1" parent="1" source="hfAvHa6saPe22wwvzet9-25" target="hfAvHa6saPe22wwvzet9-19">
          <mxGeometry width="50" height="50" relative="1" as="geometry">
            <mxPoint x="-50" y="310" as="sourcePoint" />
            <mxPoint y="260" as="targetPoint" />
          </mxGeometry>
        </mxCell>
        <mxCell id="hfAvHa6saPe22wwvzet9-29" value="" style="endArrow=none;html=1;rounded=0;" edge="1" parent="1" source="hfAvHa6saPe22wwvzet9-24" target="hfAvHa6saPe22wwvzet9-19">
          <mxGeometry width="50" height="50" relative="1" as="geometry">
            <mxPoint x="-50" y="310" as="sourcePoint" />
            <mxPoint y="260" as="targetPoint" />
          </mxGeometry>
        </mxCell>
        <mxCell id="hfAvHa6saPe22wwvzet9-31" value="[0, 1]" style="rounded=0;whiteSpace=wrap;html=1;fillColor=#60a917;fontColor=#ffffff;strokeColor=#2D7600;" vertex="1" parent="1">
          <mxGeometry x="-20" y="320" width="40" height="40" as="geometry" />
        </mxCell>
        <mxCell id="hfAvHa6saPe22wwvzet9-32" value="[0, 0]" style="rounded=0;whiteSpace=wrap;html=1;fillColor=#d80073;fontColor=#ffffff;strokeColor=#A50040;opacity=20;" vertex="1" parent="1">
          <mxGeometry x="80" y="320" width="40" height="40" as="geometry" />
        </mxCell>
        <mxCell id="hfAvHa6saPe22wwvzet9-33" value="(-inf, inf)&lt;br&gt;(-inf, -1)" style="text;html=1;align=center;verticalAlign=middle;resizable=0;points=[];autosize=1;strokeColor=none;fillColor=none;" vertex="1" parent="1">
          <mxGeometry x="-390" y="320" width="70" height="40" as="geometry" />
        </mxCell>
        <mxCell id="hfAvHa6saPe22wwvzet9-34" value="" style="endArrow=none;html=1;rounded=0;opacity=20;" edge="1" parent="1" source="hfAvHa6saPe22wwvzet9-32" target="hfAvHa6saPe22wwvzet9-20">
          <mxGeometry width="50" height="50" relative="1" as="geometry">
            <mxPoint x="40" y="240" as="sourcePoint" />
            <mxPoint x="90" y="190" as="targetPoint" />
          </mxGeometry>
        </mxCell>
        <mxCell id="hfAvHa6saPe22wwvzet9-35" value="" style="endArrow=none;html=1;rounded=0;fillColor=#e3c800;strokeColor=#B09500;strokeWidth=3;" edge="1" parent="1" source="hfAvHa6saPe22wwvzet9-31" target="hfAvHa6saPe22wwvzet9-20">
          <mxGeometry width="50" height="50" relative="1" as="geometry">
            <mxPoint x="40" y="240" as="sourcePoint" />
            <mxPoint x="90" y="190" as="targetPoint" />
          </mxGeometry>
        </mxCell>
        <mxCell id="hfAvHa6saPe22wwvzet9-37" value="[0, 1]" style="ellipse;whiteSpace=wrap;html=1;fillColor=#d80073;fontColor=#ffffff;strokeColor=#A50040;" vertex="1" parent="1">
          <mxGeometry x="-400" y="400" width="40" height="40" as="geometry" />
        </mxCell>
        <mxCell id="hfAvHa6saPe22wwvzet9-38" value="[0, 0]" style="ellipse;whiteSpace=wrap;html=1;fillColor=#60a917;fontColor=#ffffff;strokeColor=#2D7600;" vertex="1" parent="1">
          <mxGeometry x="-320" y="400" width="40" height="40" as="geometry" />
        </mxCell>
        <mxCell id="hfAvHa6saPe22wwvzet9-39" value="" style="endArrow=none;html=1;rounded=0;" edge="1" parent="1" source="hfAvHa6saPe22wwvzet9-24" target="hfAvHa6saPe22wwvzet9-38">
          <mxGeometry width="50" height="50" relative="1" as="geometry">
            <mxPoint x="-290" y="370" as="sourcePoint" />
            <mxPoint x="-240" y="320" as="targetPoint" />
          </mxGeometry>
        </mxCell>
        <mxCell id="hfAvHa6saPe22wwvzet9-40" value="" style="endArrow=none;html=1;rounded=0;" edge="1" parent="1" source="hfAvHa6saPe22wwvzet9-37" target="hfAvHa6saPe22wwvzet9-24">
          <mxGeometry width="50" height="50" relative="1" as="geometry">
            <mxPoint x="-290" y="370" as="sourcePoint" />
            <mxPoint x="-240" y="320" as="targetPoint" />
          </mxGeometry>
        </mxCell>
        <mxCell id="hfAvHa6saPe22wwvzet9-43" value="[0, 1]" style="ellipse;whiteSpace=wrap;html=1;fillColor=#d80073;fontColor=#ffffff;strokeColor=#A50040;" vertex="1" parent="1">
          <mxGeometry x="-220" y="400" width="40" height="40" as="geometry" />
        </mxCell>
        <mxCell id="hfAvHa6saPe22wwvzet9-44" value="" style="endArrow=none;html=1;rounded=0;" edge="1" parent="1" source="hfAvHa6saPe22wwvzet9-43" target="hfAvHa6saPe22wwvzet9-25">
          <mxGeometry width="50" height="50" relative="1" as="geometry">
            <mxPoint x="-170" y="370" as="sourcePoint" />
            <mxPoint x="-120" y="320" as="targetPoint" />
          </mxGeometry>
        </mxCell>
        <mxCell id="hfAvHa6saPe22wwvzet9-45" value="" style="endArrow=classicThin;dashed=1;html=1;rounded=0;endFill=1;" edge="1" parent="1" source="hfAvHa6saPe22wwvzet9-37">
          <mxGeometry width="50" height="50" relative="1" as="geometry">
            <mxPoint x="-371.5721864729178" y="387.43046618229437" as="sourcePoint" />
            <mxPoint x="-359" y="356" as="targetPoint" />
          </mxGeometry>
        </mxCell>
        <mxCell id="hfAvHa6saPe22wwvzet9-46" value="" style="endArrow=classicThin;dashed=1;html=1;rounded=0;endFill=1;" edge="1" parent="1" source="hfAvHa6saPe22wwvzet9-24">
          <mxGeometry width="50" height="50" relative="1" as="geometry">
            <mxPoint x="-279" y="315.28834355828224" as="sourcePoint" />
            <mxPoint x="-136" y="253" as="targetPoint" />
          </mxGeometry>
        </mxCell>
        <mxCell id="hfAvHa6saPe22wwvzet9-47" value="(-1, inf)" style="text;html=1;align=center;verticalAlign=middle;resizable=0;points=[];autosize=1;strokeColor=none;fillColor=none;" vertex="1" parent="1">
          <mxGeometry x="-280" y="325" width="60" height="30" as="geometry" />
        </mxCell>
        <mxCell id="hfAvHa6saPe22wwvzet9-50" value="" style="endArrow=classicThin;dashed=1;html=1;rounded=0;endFill=1;" edge="1" parent="1" source="hfAvHa6saPe22wwvzet9-26">
          <mxGeometry width="50" height="50" relative="1" as="geometry">
            <mxPoint x="-266" y="347" as="sourcePoint" />
            <mxPoint x="-122" y="271" as="targetPoint" />
          </mxGeometry>
        </mxCell>
        <mxCell id="hfAvHa6saPe22wwvzet9-51" value="(-inf, 1)&lt;br&gt;(1, 1)" style="text;html=1;align=center;verticalAlign=middle;resizable=0;points=[];autosize=1;strokeColor=none;fillColor=none;" vertex="1" parent="1">
          <mxGeometry x="-35" y="240" width="60" height="40" as="geometry" />
        </mxCell>
        <mxCell id="hfAvHa6saPe22wwvzet9-52" value="" style="endArrow=classicThin;dashed=1;html=1;rounded=0;endFill=1;" edge="1" parent="1" source="hfAvHa6saPe22wwvzet9-31">
          <mxGeometry width="50" height="50" relative="1" as="geometry">
            <mxPoint x="0.1830985915491965" y="326" as="sourcePoint" />
            <mxPoint x="-7" y="275" as="targetPoint" />
          </mxGeometry>
        </mxCell>
        <mxCell id="hfAvHa6saPe22wwvzet9-53" value="" style="endArrow=classicThin;dashed=1;html=1;rounded=0;endFill=1;" edge="1" parent="1" source="hfAvHa6saPe22wwvzet9-10">
          <mxGeometry width="50" height="50" relative="1" as="geometry">
            <mxPoint x="114" y="81" as="sourcePoint" />
            <mxPoint x="146" y="52" as="targetPoint" />
          </mxGeometry>
        </mxCell>
        <mxCell id="hfAvHa6saPe22wwvzet9-55" value="&lt;font style=&quot;font-size: 60px;&quot;&gt;(...)&lt;/font&gt;" style="text;html=1;align=center;verticalAlign=middle;resizable=0;points=[];autosize=1;strokeColor=none;fillColor=none;" vertex="1" parent="1">
          <mxGeometry x="225" y="228" width="110" height="90" as="geometry" />
        </mxCell>
      </root>
    </mxGraphModel>
  </diagram>
</mxfile>
